SplineFontDB: 3.2
FontName: YoungSerif-Medium
FullName: Young Serif Medium
FamilyName: Young Serif Medium
Weight: Medium
Copyright: Copyright 2023 The Young Serif Project Authors \\(https://github.com/noirblancrouge/YoungSerif\\)
Version: 005.002
ItalicAngle: 0
UnderlinePosition: -125
UnderlineWidth: 50
Ascent: 800
Descent: 200
InvalidEm: 0
sfntRevision: 0x00050083
LayerCount: 2
Layer: 0 0 "Back" 1
Layer: 1 0 "Fore" 0
XUID: [1021 735 254010608 10955]
StyleMap: 0x0040
FSType: 0
OS2Version: 4
OS2_WeightWidthSlopeOnly: 0
OS2_UseTypoMetrics: 1
CreationTime: 1750244485
ModificationTime: 1752515065
PfmFamily: 17
TTFWeight: 500
TTFWidth: 5
LineGap: 0
VLineGap: 0
Panose: 2 2 7 4 4 4 6 0 2 3
OS2TypoAscent: 930
OS2TypoAOffset: 0
OS2TypoDescent: -275
OS2TypoDOffset: 0
OS2TypoLinegap: 0
OS2WinAscent: 1150
OS2WinAOffset: 0
OS2WinDescent: 275
OS2WinDOffset: 0
HheadAscent: 930
HheadAOffset: 0
HheadDescent: -275
HheadDOffset: 0
OS2SubXSize: 650
OS2SubYSize: 600
OS2SubXOff: 0
OS2SubYOff: 75
OS2SupXSize: 650
OS2SupYSize: 600
OS2SupXOff: 0
OS2SupYOff: 350
OS2StrikeYSize: 44
OS2StrikeYPos: 300
OS2CapHeight: 660
OS2XHeight: 440
OS2Vendor: 'NBR '
OS2CodePages: 00000001.00000000
OS2UnicodeRanges: 00000003.00000000.00000000.00000000
Lookup: 3 0 0 "'aalt' Access All Alternates in Latin lookup 0" { "'aalt' Access All Alternates in Latin lookup 0 subtable"  } ['aalt' ('DFLT' <'dflt' > 'latn' <'AZE ' 'CAT ' 'CRT ' 'KAZ ' 'MAH ' 'MOL ' 'NLD ' 'ROM ' 'TAT ' 'TRK ' 'dflt' > ) ]
Lookup: 1 0 0 "'smcp' Lowercase to Small Capitals in Latin lookup 1" { "'smcp' Lowercase to Small Capitals in Latin lookup 1 subtable"  } ['smcp' ('DFLT' <'dflt' > 'latn' <'AZE ' 'CAT ' 'CRT ' 'KAZ ' 'MAH ' 'MOL ' 'NLD ' 'ROM ' 'TAT ' 'TRK ' 'dflt' > ) ]
Lookup: 1 0 0 "'sinf' Scientific Inferiors in Latin lookup 2" { "'sinf' Scientific Inferiors in Latin lookup 2 subtable"  } ['sinf' ('DFLT' <'dflt' > 'latn' <'AZE ' 'CAT ' 'CRT ' 'KAZ ' 'MAH ' 'MOL ' 'NLD ' 'ROM ' 'TAT ' 'TRK ' 'dflt' > ) ]

StartChar: .notdef
Encoding: 1114112 -1 0
Width: 440
GlyphClass: 1
Flags: MW
HStem: 0 30.69 0 125 267 82 491 125 585.31 30.69
VStem: 0 35.13 0 70 190 60 370 70 404.88 35.12
LayerCount: 2
Fore
SplineSet
0 603 m 2x8c40
 0 610 6 616 13 616 c 2
 427 616 l 2
 434 616 440 610 440 603 c 2
 440 13 l 2
 440 6 434 0 427 0 c 2
 13 0 l 2
 6 0 0 6 0 13 c 2
 0 603 l 2x8c40
366.719726562 556.41015625 m 2xaa80
 375.609375 569.75 367.840820312 585.299804688 351.170898438 585.299804688 c 2
 88.8408203125 585.299804688 l 2
 72.1708984375 585.299804688 64.4013671875 569.75 73.291015625 556.41015625 c 2
 205.560546875 357.450195312 l 2
 212.23046875 346.330078125 227.780273438 346.330078125 234.450195312 357.450195312 c 2
 366.719726562 556.41015625 l 2xaa80
362.860351562 135.740234375 m 2x5540
 375.450195312 115.790039062 404.870117188 126.291015625 404.870117188 149.390625 c 2
 404.870117188 466.610351562 l 2
 404.870117188 489.709960938 375.450195312 500.209960938 362.860351562 480.259765625 c 2
 252.560546875 315.33984375 l 2
 249.41015625 312.200195312 249.41015625 303.799804688 252.560546875 300.66015625 c 2
 362.860351562 135.740234375 l 2x5540
351.169921875 30.7109375 m 2xaa80
 367.83984375 30.7109375 375.608398438 46.2705078125 366.71875 59.6005859375 c 2
 234.44921875 258.560546875 l 2
 227.779296875 269.680664062 212.229492188 269.680664062 205.559570312 258.560546875 c 2
 73.2900390625 59.6005859375 l 2
 64.400390625 46.2705078125 72.169921875 30.7109375 88.83984375 30.7109375 c 2
 351.169921875 30.7109375 l 2xaa80
35.138671875 149.401367188 m 2x5540
 35.138671875 126.301757812 64.548828125 115.801757812 77.138671875 135.751953125 c 2
 187.438476562 300.671875 l 2
 190.588867188 303.811523438 190.588867188 312.211914062 187.438476562 315.3515625 c 2
 77.138671875 480.271484375 l 2
 64.548828125 500.221679688 35.138671875 490.771484375 35.138671875 467.661132812 c 2
 35.138671875 149.401367188 l 2x5540
EndSplineSet
EndChar

StartChar: A
Encoding: 65 65 4
Width: 667
GlyphClass: 2
Flags: MW
HStem: 640 20G<289 370 370 373.5>
AnchorPoint: "Anchor-6" 648 0 basechar 0
AnchorPoint: "Anchor-5" 328 660 basechar 0
AnchorPoint: "Anchor-4" 305 0 basechar 0
LayerCount: 2
Fore
SplineSet
592.5 110.5 m 2
 607 73 616 43 648 43 c 0
 660 43 661 38 661 30 c 2
 661 13 l 2
 661 4 657 0 648 0 c 2
 413 0 l 2
 405 0 400 4 400 13 c 2
 400 30 l 2
 400 38 401 43 413 43 c 0
 467 43 489.5 72.5 473 119 c 2
 436.8203125 221 l 1
 175.209960938 221 l 1
 136.5 115 l 2
 121 73 152.5 43 203 43 c 0
 215 43 216 38 216 30 c 2
 216 13 l 2
 216 4 211 0 203 0 c 2
 18 0 l 2
 10 0 5 4 5 13 c 2
 5 30 l 2
 5 38 6 43 18 43 c 0
 49 43 61.5 73 76 113.5 c 2
 274 649 l 2
 276 656 281 660 289 660 c 2
 370 660 l 2
 377 660 382 656 385 649 c 2
 592.5 110.5 l 2
195.169921875 278 m 1
 415.83984375 278 l 1
 304.330078125 578.740234375 l 1
 195.169921875 278 l 1
EndSplineSet
Substitution2: "Single Substitution lookup 36 subtable" ordfeminine
Substitution2: "'ss04' Style Set 4 in Latin lookup 33 subtable" u1F150
Substitution2: "'ss03' Style Set 3 in Latin lookup 31 subtable" uni24B6
Substitution2: "'c2sc' Capitals to Small Capitals in Latin lookup 11 subtable" A.sc
AlternateSubs2: "'aalt' Access All Alternates in Latin lookup 0 subtable" ordfeminine A.sc uni24B6 u1F150
Position2: "'cpsp' Capital Spacing in Latin lookup 0 subtable" dx=5 dy=0 dh=10 dv=0
EndChar

StartChar: Aacute
Encoding: 193 193 5
Width: 667
GlyphClass: 2
Flags: MW
HStem: 640 20G<289 370 370 373.5> 865 20G
VStem: 266 166
AnchorPoint: "Anchor-6" 648 0 basechar 0
AnchorPoint: "Anchor-5" 360 899 basechar 0
AnchorPoint: "Anchor-4" 305 0 basechar 0
LayerCount: 2
Fore
SplineSet
592.5 110.5 m 2
 607 73 616 43 648 43 c 0
 660 43 661 38 661 30 c 2
 661 13 l 2
 661 4 657 0 648 0 c 2
 413 0 l 2
 405 0 400 4 400 13 c 2
 400 30 l 2
 400 38 401 43 413 43 c 0
 467 43 489.5 72.5 473 119 c 2
 436.8203125 221 l 1
 175.209960938 221 l 1
 136.5 115 l 2
 121 73 152.5 43 203 43 c 0
 215 43 216 38 216 30 c 2
 216 13 l 2
 216 4 211 0 203 0 c 2
 18 0 l 2
 10 0 5 4 5 13 c 2
 5 30 l 2
 5 38 6 43 18 43 c 0
 49 43 61.5 73 76 113.5 c 2
 274 649 l 2
 276 656 281 660 289 660 c 2
 370 660 l 2
 377 660 382 656 385 649 c 2
 592.5 110.5 l 2
265.990234375 729.099609375 m 1
 319.08984375 795.69921875 332.260742188 820.390625 354.670898438 872.890625 c 0
 359.37109375 883.23046875 371.55078125 885.23046875 382.930664062 885.23046875 c 0
 413.280273438 885.23046875 432.430664062 871.020507812 432.430664062 843.880859375 c 0
 432.430664062 786.100585938 362.180664062 745.560546875 311.140625 718.240234375 c 0
 307.110351562 716.240234375 302.990234375 714.330078125 299.259765625 714.459960938 c 0
 296.209960938 714.629882812 292.280273438 716.229492188 287.549804688 718.569335938 c 2
 265.990234375 729.099609375 l 1
195.170898438 277.991210938 m 1
 415.840820312 277.991210938 l 1
 304.331054688 578.731445312 l 1
 195.170898438 277.991210938 l 1
EndSplineSet
Substitution2: "'c2sc' Capitals to Small Capitals in Latin lookup 11 subtable" Aacute.sc
AlternateSubs2: "'aalt' Access All Alternates in Latin lookup 0 subtable" Aacute.sc
Position2: "'cpsp' Capital Spacing in Latin lookup 0 subtable" dx=5 dy=0 dh=10 dv=0
EndChar

StartChar: Abreve
Encoding: 258 258 6
Width: 667
GlyphClass: 2
Flags: MW
HStem: 640 20G<289 370 370 373.5>
VStem: 194 268
AnchorPoint: "Anchor-6" 648 0 basechar 0
AnchorPoint: "Anchor-5" 328 825 basechar 0
AnchorPoint: "Anchor-4" 305 0 basechar 0
LayerCount: 2
Fore
SplineSet
592.5 110.5 m 2
 607 73 616 43 648 43 c 0
 660 43 661 38 661 30 c 2
 661 13 l 2
 661 4 657 0 648 0 c 2
 413 0 l 2
 405 0 400 4 400 13 c 2
 400 30 l 2
 400 38 401 43 413 43 c 0
 467 43 489.5 72.5 473 119 c 2
 436.8203125 221 l 1
 175.209960938 221 l 1
 136.5 115 l 2
 121 73 152.5 43 203 43 c 0
 215 43 216 38 216 30 c 2
 216 13 l 2
 216 4 211 0 203 0 c 2
 18 0 l 2
 10 0 5 4 5 13 c 2
 5 30 l 2
 5 38 6 43 18 43 c 0
 49 43 61.5 73 76 113.5 c 2
 274 649 l 2
 276 656 281 660 289 660 c 2
 370 660 l 2
 377 660 382 656 385 649 c 2
 592.5 110.5 l 2
328 711 m 0
 237.5 711 193.908203125 782.849609375 193.908203125 821.75 c 0
 193.908203125 831.75 199.717773438 835.650390625 208.908203125 836.75 c 0
 219.927734375 837.990234375 239.078125 840.200195312 247.518554688 840.549804688 c 0
 258.05859375 841.209960938 261.938476562 837.629882812 263.228515625 825.979492188 c 0
 267.96875 789.239257812 289.098632812 767.239257812 327.999023438 767.239257812 c 0
 367.399414062 767.239257812 388.529296875 789.239257812 393.26953125 825.979492188 c 0
 394.059570312 837.629882812 398.439453125 841.209960938 408.979492188 840.549804688 c 0
 416.919921875 840.200195312 436.580078125 837.990234375 447.08984375 836.75 c 0
 456.280273438 835.650390625 462.08984375 831.75 462.08984375 821.75 c 0
 462.08984375 782.849609375 419 711 328 711 c 0
195.16796875 278 m 1
 415.837890625 278 l 1
 304.328125 578.740234375 l 1
 195.16796875 278 l 1
EndSplineSet
Substitution2: "'c2sc' Capitals to Small Capitals in Latin lookup 11 subtable" Abreve.sc
AlternateSubs2: "'aalt' Access All Alternates in Latin lookup 0 subtable" Abreve.sc
Position2: "'cpsp' Capital Spacing in Latin lookup 0 subtable" dx=5 dy=0 dh=10 dv=0
EndChar

StartChar: uni1EAE
Encoding: 7854 7854 7
Width: 667
GlyphClass: 2
Flags: MW
HStem: 640 20G<289 370 370 373.5> 1031 20G
VStem: 194 268 266 166
AnchorPoint: "Anchor-6" 648 0 basechar 0
AnchorPoint: "Anchor-5" 360 1064 basechar 0
AnchorPoint: "Anchor-4" 305 0 basechar 0
LayerCount: 2
Fore
SplineSet
592.5 110.5 m 2xe0
 607 73 616 43 648 43 c 0
 660 43 661 38 661 30 c 2
 661 13 l 2
 661 4 657 0 648 0 c 2
 413 0 l 2
 405 0 400 4 400 13 c 2
 400 30 l 2
 400 38 401 43 413 43 c 0
 467 43 489.5 72.5 473 119 c 2
 436.8203125 221 l 1
 175.209960938 221 l 1
 136.5 115 l 2
 121 73 152.5 43 203 43 c 0
 215 43 216 38 216 30 c 2
 216 13 l 2
 216 4 211 0 203 0 c 2
 18 0 l 2
 10 0 5 4 5 13 c 2
 5 30 l 2
 5 38 6 43 18 43 c 0
 49 43 61.5 73 76 113.5 c 2
 274 649 l 2
 276 656 281 660 289 660 c 2
 370 660 l 2
 377 660 382 656 385 649 c 2
 592.5 110.5 l 2xe0
328 711 m 0
 237.5 711 193.908203125 782.849609375 193.908203125 821.75 c 0
 193.908203125 831.75 199.717773438 835.650390625 208.908203125 836.75 c 0
 219.927734375 837.990234375 239.078125 840.200195312 247.518554688 840.549804688 c 0
 258.05859375 841.209960938 261.938476562 837.629882812 263.228515625 825.979492188 c 0
 267.96875 789.239257812 289.098632812 767.239257812 327.999023438 767.239257812 c 0
 367.399414062 767.239257812 388.529296875 789.239257812 393.26953125 825.979492188 c 0
 394.059570312 837.629882812 398.439453125 841.209960938 408.979492188 840.549804688 c 0
 416.919921875 840.200195312 436.580078125 837.990234375 447.08984375 836.75 c 0
 456.280273438 835.650390625 462.08984375 831.75 462.08984375 821.75 c 0
 462.08984375 782.849609375 419 711 328 711 c 0
265.998046875 894.580078125 m 1xd0
 319.09765625 961.190429688 332.268554688 985.880859375 354.678710938 1038.38085938 c 0
 359.37890625 1048.72070312 371.55859375 1050.72070312 382.938476562 1050.72070312 c 0
 413.288085938 1050.72070312 432.438476562 1036.51074219 432.438476562 1009.37109375 c 0
 432.438476562 951.581054688 362.188476562 911.041015625 311.1484375 883.720703125 c 0
 307.118164062 881.720703125 302.998046875 879.810546875 299.267578125 879.950195312 c 0
 296.217773438 880.120117188 292.288085938 881.709960938 287.557617188 884.049804688 c 2
 265.998046875 894.580078125 l 1xd0
195.178710938 277.990234375 m 1
 415.848632812 277.990234375 l 1
 304.338867188 578.73046875 l 1
 195.178710938 277.990234375 l 1
EndSplineSet
Substitution2: "'c2sc' Capitals to Small Capitals in Latin lookup 11 subtable" uni1EAE.sc
AlternateSubs2: "'aalt' Access All Alternates in Latin lookup 0 subtable" uni1EAE.sc
Position2: "'cpsp' Capital Spacing in Latin lookup 0 subtable" dx=5 dy=0 dh=10 dv=0
EndChar

StartChar: uni1EB6
Encoding: 7862 7862 8
Width: 667
GlyphClass: 2
Flags: MW
HStem: -190 138 640 20G<289 370 370 373.5>
VStem: 194 268 236 139
AnchorPoint: "Anchor-6" 648 0 basechar 0
AnchorPoint: "Anchor-5" 328 825 basechar 0
AnchorPoint: "Anchor-4" 305 0 basechar 0
LayerCount: 2
Fore
SplineSet
592.5 110.5 m 2xe0
 607 73 616 43 648 43 c 0
 660 43 661 38 661 30 c 2
 661 13 l 2
 661 4 657 0 648 0 c 2
 413 0 l 2
 405 0 400 4 400 13 c 2
 400 30 l 2
 400 38 401 43 413 43 c 0
 467 43 489.5 72.5 473 119 c 2
 436.8203125 221 l 1
 175.209960938 221 l 1
 136.5 115 l 2
 121 73 152.5 43 203 43 c 0
 215 43 216 38 216 30 c 2
 216 13 l 2
 216 4 211 0 203 0 c 2
 18 0 l 2
 10 0 5 4 5 13 c 2
 5 30 l 2
 5 38 6 43 18 43 c 0
 49 43 61.5 73 76 113.5 c 2
 274 649 l 2
 276 656 281 660 289 660 c 2
 370 660 l 2
 377 660 382 656 385 649 c 2
 592.5 110.5 l 2xe0
304.48046875 -52.830078125 m 0
 321.16015625 -52.830078125 334.719726562 -59.080078125 351.41015625 -75.7705078125 c 0
 368.08984375 -92.4609375 374.349609375 -104.970703125 374.349609375 -121.661132812 c 0
 374.349609375 -138.340820312 367.049804688 -151.900390625 351.41015625 -167.540039062 c 0
 334.719726562 -184.23046875 321.16015625 -190.490234375 304.48046875 -190.490234375 c 0
 288.840820312 -190.490234375 276.321289062 -184.23046875 258.590820312 -167.540039062 c 0
 241.911132812 -151.900390625 235.651367188 -138.340820312 235.651367188 -121.661132812 c 0xd0
 235.651367188 -104.970703125 241.911132812 -92.4609375 258.590820312 -75.7705078125 c 0
 275.28125 -59.080078125 288.840820312 -52.830078125 304.48046875 -52.830078125 c 0
328 711 m 0
 237.5 711 193.908203125 782.849609375 193.908203125 821.75 c 0
 193.908203125 831.75 199.717773438 835.650390625 208.908203125 836.75 c 0
 219.927734375 837.990234375 239.078125 840.200195312 247.518554688 840.549804688 c 0
 258.05859375 841.209960938 261.938476562 837.629882812 263.228515625 825.979492188 c 0
 267.96875 789.239257812 289.098632812 767.239257812 327.999023438 767.239257812 c 0
 367.399414062 767.239257812 388.529296875 789.239257812 393.26953125 825.979492188 c 0
 394.059570312 837.629882812 398.439453125 841.209960938 408.979492188 840.549804688 c 0
 416.919921875 840.200195312 436.580078125 837.990234375 447.08984375 836.75 c 0
 456.280273438 835.650390625 462.08984375 831.75 462.08984375 821.75 c 0xe0
 462.08984375 782.849609375 419 711 328 711 c 0
195.16796875 278 m 1
 415.837890625 278 l 1
 304.328125 578.740234375 l 1
 195.16796875 278 l 1
EndSplineSet
Substitution2: "'c2sc' Capitals to Small Capitals in Latin lookup 11 subtable" uni1EB6.sc
AlternateSubs2: "'aalt' Access All Alternates in Latin lookup 0 subtable" uni1EB6.sc
Position2: "'cpsp' Capital Spacing in Latin lookup 0 subtable" dx=5 dy=0 dh=10 dv=0
EndChar

StartChar: uni1EB0
Encoding: 7856 7856 9
Width: 667
GlyphClass: 2
Flags: MW
HStem: 640 20G<289 370 370 373.5> 1031 20G
VStem: 194 268 231 166
AnchorPoint: "Anchor-6" 648 0 basechar 0
AnchorPoint: "Anchor-5" 303 1064 basechar 0
AnchorPoint: "Anchor-4" 305 0 basechar 0
LayerCount: 2
Fore
SplineSet
592.5 110.5 m 2xd0
 607 73 616 43 648 43 c 0
 660 43 661 38 661 30 c 2
 661 13 l 2
 661 4 657 0 648 0 c 2
 413 0 l 2
 405 0 400 4 400 13 c 2
 400 30 l 2
 400 38 401 43 413 43 c 0
 467 43 489.5 72.5 473 119 c 2
 436.8203125 221 l 1
 175.209960938 221 l 1
 136.5 115 l 2
 121 73 152.5 43 203 43 c 0
 215 43 216 38 216 30 c 2
 216 13 l 2
 216 4 211 0 203 0 c 2
 18 0 l 2
 10 0 5 4 5 13 c 2
 5 30 l 2
 5 38 6 43 18 43 c 0
 49 43 61.5 73 76 113.5 c 2
 274 649 l 2
 276 656 281 660 289 660 c 2
 370 660 l 2
 377 660 382 656 385 649 c 2
 592.5 110.5 l 2xd0
328 711 m 0
 237.5 711 193.908203125 782.849609375 193.908203125 821.75 c 0
 193.908203125 831.75 199.717773438 835.650390625 208.908203125 836.75 c 0
 219.927734375 837.990234375 239.078125 840.200195312 247.518554688 840.549804688 c 0
 258.05859375 841.209960938 261.938476562 837.629882812 263.228515625 825.979492188 c 0
 267.96875 789.239257812 289.098632812 767.239257812 327.999023438 767.239257812 c 0
 367.399414062 767.239257812 388.529296875 789.239257812 393.26953125 825.979492188 c 0
 394.059570312 837.629882812 398.439453125 841.209960938 408.979492188 840.549804688 c 0
 416.919921875 840.200195312 436.580078125 837.990234375 447.08984375 836.75 c 0
 456.280273438 835.650390625 462.08984375 831.75 462.08984375 821.75 c 0xe0
 462.08984375 782.849609375 419 711 328 711 c 0
375.448242188 884.049804688 m 2
 370.717773438 881.709960938 366.788085938 880.129882812 363.73828125 879.959960938 c 0
 360.018554688 879.8203125 355.888671875 881.73046875 351.858398438 883.73046875 c 0
 300.818359375 911.05078125 230.568359375 951.590820312 230.568359375 1009.38085938 c 0
 230.568359375 1036.52050781 249.71875 1050.73046875 280.068359375 1050.73046875 c 0
 291.448242188 1050.73046875 303.627929688 1048.73046875 308.328125 1038.390625 c 0
 330.73828125 985.890625 343.908203125 961.190429688 397.0078125 894.580078125 c 1xd0
 375.448242188 884.049804688 l 2
195.16796875 278.009765625 m 1
 415.837890625 278.009765625 l 1
 304.328125 578.75 l 1
 195.16796875 278.009765625 l 1
EndSplineSet
Substitution2: "'c2sc' Capitals to Small Capitals in Latin lookup 11 subtable" uni1EB0.sc
AlternateSubs2: "'aalt' Access All Alternates in Latin lookup 0 subtable" uni1EB0.sc
Position2: "'cpsp' Capital Spacing in Latin lookup 0 subtable" dx=5 dy=0 dh=10 dv=0
EndChar

StartChar: uni1EB2
Encoding: 7858 7858 10
Width: 667
GlyphClass: 2
Flags: MW
HStem: 640 20G<289 370 370 373.5> 990 68
VStem: 194 268 338 59
AnchorPoint: "Anchor-6" 648 0 basechar 0
AnchorPoint: "Anchor-5" 328 1111 basechar 0
AnchorPoint: "Anchor-4" 305 0 basechar 0
LayerCount: 2
Fore
SplineSet
592.5 110.5 m 2xe0
 607 73 616 43 648 43 c 0
 660 43 661 38 661 30 c 2
 661 13 l 2
 661 4 657 0 648 0 c 2
 413 0 l 2
 405 0 400 4 400 13 c 2
 400 30 l 2
 400 38 401 43 413 43 c 0
 467 43 489.5 72.5 473 119 c 2
 436.8203125 221 l 1
 175.209960938 221 l 1
 136.5 115 l 2
 121 73 152.5 43 203 43 c 0
 215 43 216 38 216 30 c 2
 216 13 l 2
 216 4 211 0 203 0 c 2
 18 0 l 2
 10 0 5 4 5 13 c 2
 5 30 l 2
 5 38 6 43 18 43 c 0
 49 43 61.5 73 76 113.5 c 2
 274 649 l 2
 276 656 281 660 289 660 c 2
 370 660 l 2
 377 660 382 656 385 649 c 2
 592.5 110.5 l 2xe0
328 711 m 0
 237.5 711 193.908203125 782.849609375 193.908203125 821.75 c 0
 193.908203125 831.75 199.717773438 835.650390625 208.908203125 836.75 c 0
 219.927734375 837.990234375 239.078125 840.200195312 247.518554688 840.549804688 c 0
 258.05859375 841.209960938 261.938476562 837.629882812 263.228515625 825.979492188 c 0
 267.96875 789.239257812 289.098632812 767.239257812 327.999023438 767.239257812 c 0
 367.399414062 767.239257812 388.529296875 789.239257812 393.26953125 825.979492188 c 0
 394.059570312 837.629882812 398.439453125 841.209960938 408.979492188 840.549804688 c 0
 416.919921875 840.200195312 436.580078125 837.990234375 447.08984375 836.75 c 0
 456.280273438 835.650390625 462.08984375 831.75 462.08984375 821.75 c 0
 462.08984375 782.849609375 419 711 328 711 c 0
359.578125 883.419921875 m 0
 349.788085938 870.610351562 308.467773438 894.360351562 316.147460938 905.360351562 c 0
 326.77734375 921.190429688 338.177734375 935.360351562 338.177734375 957.270507812 c 0
 338.177734375 983.220703125 323.908203125 989.7109375 310.158203125 989.7109375 c 0
 289.538085938 989.7109375 274.748046875 969.600585938 268.677734375 979.55078125 c 0
 259.9375 993.991210938 251.357421875 1008.2109375 252.387695312 1025.140625 c 0
 252.857421875 1036.85058594 289.5078125 1057.99023438 321.998046875 1057.99023438 c 0
 378.84765625 1057.99023438 397.498046875 1013.47070312 397.498046875 977.490234375 c 0xd0
 397.498046875 947.259765625 383.587890625 914.139648438 359.578125 883.419921875 c 0
195.16796875 277.990234375 m 1
 415.837890625 277.990234375 l 1
 304.328125 578.73046875 l 1
 195.16796875 277.990234375 l 1
EndSplineSet
Substitution2: "'c2sc' Capitals to Small Capitals in Latin lookup 11 subtable" uni1EB2.sc
AlternateSubs2: "'aalt' Access All Alternates in Latin lookup 0 subtable" uni1EB2.sc
Position2: "'cpsp' Capital Spacing in Latin lookup 0 subtable" dx=5 dy=0 dh=10 dv=0
EndChar

StartChar: uni1EB4
Encoding: 7860 7860 11
Width: 667
GlyphClass: 2
Flags: MW
HStem: 640 20G<289 370 370 373.5> 886 59 970 58
VStem: 183 63 194 268 411 63
AnchorPoint: "Anchor-6" 648 0 basechar 0
AnchorPoint: "Anchor-5" 328 1010 basechar 0
AnchorPoint: "Anchor-4" 305 0 basechar 0
LayerCount: 2
Fore
SplineSet
592.5 110.5 m 2xf4
 607 73 616 43 648 43 c 0
 660 43 661 38 661 30 c 2
 661 13 l 2
 661 4 657 0 648 0 c 2
 413 0 l 2
 405 0 400 4 400 13 c 2
 400 30 l 2
 400 38 401 43 413 43 c 0
 467 43 489.5 72.5 473 119 c 2
 436.8203125 221 l 1
 175.209960938 221 l 1
 136.5 115 l 2
 121 73 152.5 43 203 43 c 0
 215 43 216 38 216 30 c 2
 216 13 l 2
 216 4 211 0 203 0 c 2
 18 0 l 2
 10 0 5 4 5 13 c 2
 5 30 l 2
 5 38 6 43 18 43 c 0
 49 43 61.5 73 76 113.5 c 2
 274 649 l 2
 276 656 281 660 289 660 c 2
 370 660 l 2
 377 660 382 656 385 649 c 2
 592.5 110.5 l 2xf4
328 711 m 0
 237.5 711 193.908203125 782.849609375 193.908203125 821.75 c 0
 193.908203125 831.75 199.717773438 835.650390625 208.908203125 836.75 c 0
 219.927734375 837.990234375 239.078125 840.200195312 247.518554688 840.549804688 c 0
 258.05859375 841.209960938 261.938476562 837.629882812 263.228515625 825.979492188 c 0
 267.96875 789.239257812 289.098632812 767.239257812 327.999023438 767.239257812 c 0
 367.399414062 767.239257812 388.529296875 789.239257812 393.26953125 825.979492188 c 0
 394.059570312 837.629882812 398.439453125 841.209960938 408.979492188 840.549804688 c 0
 416.919921875 840.200195312 436.580078125 837.990234375 447.08984375 836.75 c 0
 456.280273438 835.650390625 462.08984375 831.75 462.08984375 821.75 c 0xe8
 462.08984375 782.849609375 419 711 328 711 c 0
349.767578125 973 m 0
 362.977539062 952.58984375 373.298828125 944.981445312 385.999023438 944.981445312 c 0
 401.999023438 944.981445312 410.499023438 957.841796875 410.499023438 973.481445312 c 0
 410.499023438 984.8515625 407.928710938 996.681640625 399.8984375 1009.11132812 c 1
 409.05859375 1018.01171875 424.198242188 1028.98144531 437.998046875 1028.98144531 c 0
 452.127929688 1028.98144531 473.498046875 1001.20117188 473.498046875 969.481445312 c 0
 473.498046875 917.561523438 435.818359375 885.981445312 395.998046875 885.981445312 c 0
 339.8984375 885.981445312 320.168945312 917.051757812 306.388671875 940.681640625 c 0
 294.3984375 962.26171875 283.698242188 969.981445312 270.998046875 969.981445312 c 0
 254.998046875 969.981445312 245.498046875 955.181640625 245.498046875 940.481445312 c 0
 245.498046875 928.901367188 248.927734375 917.081054688 257.02734375 904.80078125 c 1
 247.84765625 895.920898438 232.627929688 884.98046875 217.998046875 884.98046875 c 0
 204.34765625 884.98046875 182.498046875 913.080078125 182.498046875 943.48046875 c 0xf4
 182.498046875 996.330078125 221.118164062 1027.98046875 260.998046875 1027.98046875 c 0
 316.177734375 1027.98046875 336.77734375 994.98046875 349.767578125 973 c 0
195.168945312 278.001953125 m 1
 415.838867188 278.001953125 l 1
 304.329101562 578.7421875 l 1
 195.168945312 278.001953125 l 1
EndSplineSet
Substitution2: "'c2sc' Capitals to Small Capitals in Latin lookup 11 subtable" uni1EB4.sc
AlternateSubs2: "'aalt' Access All Alternates in Latin lookup 0 subtable" uni1EB4.sc
Position2: "'cpsp' Capital Spacing in Latin lookup 0 subtable" dx=5 dy=0 dh=10 dv=0
EndChar

StartChar: uni01CD
Encoding: 461 461 12
Width: 667
GlyphClass: 2
Flags: MW
HStem: 640 20G<289 370 370 373.5> 717 160
VStem: 183 290
AnchorPoint: "Anchor-6" 648 0 basechar 0
AnchorPoint: "Anchor-5" 328 845 basechar 0
AnchorPoint: "Anchor-4" 305 0 basechar 0
LayerCount: 2
Fore
SplineSet
592.5 110.5 m 2
 607 73 616 43 648 43 c 0
 660 43 661 38 661 30 c 2
 661 13 l 2
 661 4 657 0 648 0 c 2
 413 0 l 2
 405 0 400 4 400 13 c 2
 400 30 l 2
 400 38 401 43 413 43 c 0
 467 43 489.5 72.5 473 119 c 2
 436.8203125 221 l 1
 175.209960938 221 l 1
 136.5 115 l 2
 121 73 152.5 43 203 43 c 0
 215 43 216 38 216 30 c 2
 216 13 l 2
 216 4 211 0 203 0 c 2
 18 0 l 2
 10 0 5 4 5 13 c 2
 5 30 l 2
 5 38 6 43 18 43 c 0
 49 43 61.5 73 76 113.5 c 2
 274 649 l 2
 276 656 281 660 289 660 c 2
 370 660 l 2
 377 660 382 656 385 649 c 2
 592.5 110.5 l 2
328 789.040039062 m 1
 350.030273438 830.559570312 387.3203125 877.170898438 435.620117188 877.170898438 c 0
 461.040039062 877.170898438 472.91015625 852.590820312 472.91015625 824.630859375 c 0
 472.91015625 811.920898438 472.060546875 800.901367188 462.740234375 796.670898438 c 0
 413.58984375 778.020507812 388.169921875 765.310546875 328 717.010742188 c 1
 267.830078125 765.310546875 242.41015625 778.020507812 193.259765625 796.670898438 c 0
 183.939453125 800.901367188 183.08984375 811.920898438 183.08984375 824.630859375 c 0
 183.08984375 852.590820312 194.959960938 877.170898438 220.379882812 877.170898438 c 0
 268.6796875 877.170898438 305.969726562 830.560546875 328 789.040039062 c 1
195.169921875 278.000976562 m 1
 415.83984375 278.000976562 l 1
 304.330078125 578.741210938 l 1
 195.169921875 278.000976562 l 1
EndSplineSet
Substitution2: "'c2sc' Capitals to Small Capitals in Latin lookup 11 subtable" uni01CD.sc
AlternateSubs2: "'aalt' Access All Alternates in Latin lookup 0 subtable" uni01CD.sc
Position2: "'cpsp' Capital Spacing in Latin lookup 0 subtable" dx=5 dy=0 dh=10 dv=0
EndChar

StartChar: Acircumflex
Encoding: 194 194 13
Width: 667
GlyphClass: 2
Flags: MW
HStem: 640 20G<289 370 370 373.5> 713 160
VStem: 183 290
AnchorPoint: "Anchor-7" 328 777 basechar 0
AnchorPoint: "Anchor-6" 648 0 basechar 0
AnchorPoint: "Anchor-5" 328 833 basechar 0
AnchorPoint: "Anchor-4" 305 0 basechar 0
LayerCount: 2
Fore
SplineSet
592.5 110.5 m 2
 607 73 616 43 648 43 c 0
 660 43 661 38 661 30 c 2
 661 13 l 2
 661 4 657 0 648 0 c 2
 413 0 l 2
 405 0 400 4 400 13 c 2
 400 30 l 2
 400 38 401 43 413 43 c 0
 467 43 489.5 72.5 473 119 c 2
 436.8203125 221 l 1
 175.209960938 221 l 1
 136.5 115 l 2
 121 73 152.5 43 203 43 c 0
 215 43 216 38 216 30 c 2
 216 13 l 2
 216 4 211 0 203 0 c 2
 18 0 l 2
 10 0 5 4 5 13 c 2
 5 30 l 2
 5 38 6 43 18 43 c 0
 49 43 61.5 73 76 113.5 c 2
 274 649 l 2
 276 656 281 660 289 660 c 2
 370 660 l 2
 377 660 382 656 385 649 c 2
 592.5 110.5 l 2
328 800.959960938 m 1
 305.969726562 759.440429688 268.6796875 712.829101562 220.379882812 712.829101562 c 0
 194.959960938 712.829101562 183.08984375 737.409179688 183.08984375 765.369140625 c 0
 183.08984375 778.079101562 183.939453125 789.098632812 193.259765625 793.338867188 c 0
 242.41015625 811.978515625 267.830078125 824.688476562 328 872.98828125 c 1
 388.169921875 824.688476562 413.58984375 811.978515625 462.740234375 793.338867188 c 0
 472.060546875 789.098632812 472.91015625 778.079101562 472.91015625 765.369140625 c 0
 472.91015625 737.409179688 461.040039062 712.829101562 435.620117188 712.829101562 c 0
 387.3203125 712.829101562 350.030273438 759.439453125 328 800.959960938 c 1
195.169921875 277.999023438 m 1
 415.83984375 277.999023438 l 1
 304.330078125 578.739257812 l 1
 195.169921875 277.999023438 l 1
EndSplineSet
Substitution2: "'c2sc' Capitals to Small Capitals in Latin lookup 11 subtable" Acircumflex.sc
AlternateSubs2: "'aalt' Access All Alternates in Latin lookup 0 subtable" Acircumflex.sc
Position2: "'cpsp' Capital Spacing in Latin lookup 0 subtable" dx=5 dy=0 dh=10 dv=0
EndChar

StartChar: uni1EA4
Encoding: 7844 7844 14
Width: 667
GlyphClass: 2
Flags: MW
HStem: 640 20G<289 370 370 373.5> 713 160 987 20G
VStem: 183 290 411 166
AnchorPoint: "Anchor-7" 505 1021 basechar 0
AnchorPoint: "Anchor-6" 648 0 basechar 0
AnchorPoint: "Anchor-5" 328 833 basechar 0
AnchorPoint: "Anchor-4" 305 0 basechar 0
LayerCount: 2
Fore
SplineSet
592.5 110.5 m 2xf0
 607 73 616 43 648 43 c 0
 660 43 661 38 661 30 c 2
 661 13 l 2
 661 4 657 0 648 0 c 2
 413 0 l 2
 405 0 400 4 400 13 c 2
 400 30 l 2
 400 38 401 43 413 43 c 0
 467 43 489.5 72.5 473 119 c 2
 436.8203125 221 l 1
 175.209960938 221 l 1
 136.5 115 l 2
 121 73 152.5 43 203 43 c 0
 215 43 216 38 216 30 c 2
 216 13 l 2
 216 4 211 0 203 0 c 2
 18 0 l 2
 10 0 5 4 5 13 c 2
 5 30 l 2
 5 38 6 43 18 43 c 0
 49 43 61.5 73 76 113.5 c 2
 274 649 l 2
 276 656 281 660 289 660 c 2
 370 660 l 2
 377 660 382 656 385 649 c 2
 592.5 110.5 l 2xf0
328 800.959960938 m 1
 305.969726562 759.440429688 268.6796875 712.829101562 220.379882812 712.829101562 c 0
 194.959960938 712.829101562 183.08984375 737.409179688 183.08984375 765.369140625 c 0
 183.08984375 778.079101562 183.939453125 789.098632812 193.259765625 793.338867188 c 0
 242.41015625 811.978515625 267.830078125 824.688476562 328 872.98828125 c 1
 388.169921875 824.688476562 413.58984375 811.978515625 462.740234375 793.338867188 c 0
 472.060546875 789.098632812 472.91015625 778.079101562 472.91015625 765.369140625 c 0
 472.91015625 737.409179688 461.040039062 712.829101562 435.620117188 712.829101562 c 0
 387.3203125 712.829101562 350.030273438 759.439453125 328 800.959960938 c 1
410.849609375 850.869140625 m 1xe8
 463.94921875 917.46875 477.118164062 942.169921875 499.528320312 994.669921875 c 0
 504.228515625 1005.00976562 516.408203125 1007.00976562 527.778320312 1007.00976562 c 0
 558.138671875 1007.00976562 577.278320312 992.799804688 577.278320312 965.66015625 c 0
 577.278320312 907.879882812 507.038085938 867.330078125 455.98828125 840.009765625 c 0
 451.958007812 838.009765625 447.837890625 836.099609375 444.118164062 836.229492188 c 0
 441.05859375 836.399414062 437.12890625 837.999023438 432.409179688 840.338867188 c 2
 410.849609375 850.869140625 l 1xe8
195.168945312 278 m 1
 415.838867188 278 l 1
 304.329101562 578.740234375 l 1
 195.168945312 278 l 1
EndSplineSet
Substitution2: "'c2sc' Capitals to Small Capitals in Latin lookup 11 subtable" uni1EA4.sc
AlternateSubs2: "'aalt' Access All Alternates in Latin lookup 0 subtable" uni1EA4.sc
Position2: "'cpsp' Capital Spacing in Latin lookup 0 subtable" dx=5 dy=0 dh=10 dv=0
EndChar

StartChar: uni1EAC
Encoding: 7852 7852 15
Width: 667
GlyphClass: 2
Flags: MW
HStem: -190 138 640 20G<289 370 370 373.5> 713 160
VStem: 183 290 236 139
AnchorPoint: "Anchor-7" 328 777 basechar 0
AnchorPoint: "Anchor-6" 648 0 basechar 0
AnchorPoint: "Anchor-5" 328 833 basechar 0
AnchorPoint: "Anchor-4" 305 0 basechar 0
LayerCount: 2
Fore
SplineSet
592.5 110.5 m 2xe8
 607 73 616 43 648 43 c 0
 660 43 661 38 661 30 c 2
 661 13 l 2
 661 4 657 0 648 0 c 2
 413 0 l 2
 405 0 400 4 400 13 c 2
 400 30 l 2
 400 38 401 43 413 43 c 0
 467 43 489.5 72.5 473 119 c 2xf0
 436.8203125 221 l 1
 175.209960938 221 l 1
 136.5 115 l 2
 121 73 152.5 43 203 43 c 0
 215 43 216 38 216 30 c 2
 216 13 l 2
 216 4 211 0 203 0 c 2
 18 0 l 2
 10 0 5 4 5 13 c 2
 5 30 l 2
 5 38 6 43 18 43 c 0
 49 43 61.5 73 76 113.5 c 2
 274 649 l 2
 276 656 281 660 289 660 c 2
 370 660 l 2
 377 660 382 656 385 649 c 2
 592.5 110.5 l 2xe8
304.48046875 -52.830078125 m 0
 321.16015625 -52.830078125 334.719726562 -59.080078125 351.41015625 -75.7705078125 c 0
 368.08984375 -92.4609375 374.349609375 -104.970703125 374.349609375 -121.661132812 c 0
 374.349609375 -138.340820312 367.049804688 -151.900390625 351.41015625 -167.540039062 c 0
 334.719726562 -184.23046875 321.16015625 -190.490234375 304.48046875 -190.490234375 c 0
 288.840820312 -190.490234375 276.321289062 -184.23046875 258.590820312 -167.540039062 c 0
 241.911132812 -151.900390625 235.651367188 -138.340820312 235.651367188 -121.661132812 c 0xe8
 235.651367188 -104.970703125 241.911132812 -92.4609375 258.590820312 -75.7705078125 c 0
 275.28125 -59.080078125 288.840820312 -52.830078125 304.48046875 -52.830078125 c 0
328 800.959960938 m 1
 305.969726562 759.440429688 268.6796875 712.829101562 220.379882812 712.829101562 c 0
 194.959960938 712.829101562 183.08984375 737.409179688 183.08984375 765.369140625 c 0
 183.08984375 778.079101562 183.939453125 789.098632812 193.259765625 793.338867188 c 0
 242.41015625 811.978515625 267.830078125 824.688476562 328 872.98828125 c 1
 388.169921875 824.688476562 413.58984375 811.978515625 462.740234375 793.338867188 c 0
 472.060546875 789.098632812 472.91015625 778.079101562 472.91015625 765.369140625 c 0xf0
 472.91015625 737.409179688 461.040039062 712.829101562 435.620117188 712.829101562 c 0
 387.3203125 712.829101562 350.030273438 759.439453125 328 800.959960938 c 1
195.169921875 277.999023438 m 1
 415.83984375 277.999023438 l 1
 304.330078125 578.739257812 l 1
 195.169921875 277.999023438 l 1
EndSplineSet
Substitution2: "'c2sc' Capitals to Small Capitals in Latin lookup 11 subtable" uni1EAC.sc
AlternateSubs2: "'aalt' Access All Alternates in Latin lookup 0 subtable" uni1EAC.sc
Position2: "'cpsp' Capital Spacing in Latin lookup 0 subtable" dx=5 dy=0 dh=10 dv=0
EndChar

StartChar: uni1EA6
Encoding: 7846 7846 16
Width: 667
GlyphClass: 2
Flags: MW
HStem: 640 20G<289 370 370 373.5> 713 160 987 20G
VStem: 88 166 183 290
AnchorPoint: "Anchor-7" 160 1021 basechar 0
AnchorPoint: "Anchor-6" 648 0 basechar 0
AnchorPoint: "Anchor-5" 328 833 basechar 0
AnchorPoint: "Anchor-4" 305 0 basechar 0
LayerCount: 2
Fore
SplineSet
592.5 110.5 m 2xf0
 607 73 616 43 648 43 c 0
 660 43 661 38 661 30 c 2
 661 13 l 2
 661 4 657 0 648 0 c 2
 413 0 l 2
 405 0 400 4 400 13 c 2
 400 30 l 2
 400 38 401 43 413 43 c 0
 467 43 489.5 72.5 473 119 c 2xe8
 436.8203125 221 l 1
 175.209960938 221 l 1
 136.5 115 l 2
 121 73 152.5 43 203 43 c 0
 215 43 216 38 216 30 c 2
 216 13 l 2
 216 4 211 0 203 0 c 2
 18 0 l 2
 10 0 5 4 5 13 c 2
 5 30 l 2
 5 38 6 43 18 43 c 0
 49 43 61.5 73 76 113.5 c 2
 274 649 l 2
 276 656 281 660 289 660 c 2
 370 660 l 2
 377 660 382 656 385 649 c 2
 592.5 110.5 l 2xf0
328 800.959960938 m 1
 305.969726562 759.440429688 268.6796875 712.829101562 220.379882812 712.829101562 c 0
 194.959960938 712.829101562 183.08984375 737.409179688 183.08984375 765.369140625 c 0
 183.08984375 778.079101562 183.939453125 789.098632812 193.259765625 793.338867188 c 0
 242.41015625 811.978515625 267.830078125 824.688476562 328 872.98828125 c 1
 388.169921875 824.688476562 413.58984375 811.978515625 462.740234375 793.338867188 c 0
 472.060546875 789.098632812 472.91015625 778.079101562 472.91015625 765.369140625 c 0
 472.91015625 737.409179688 461.040039062 712.829101562 435.620117188 712.829101562 c 0
 387.3203125 712.829101562 350.030273438 759.439453125 328 800.959960938 c 1
232.040039062 840.338867188 m 2
 227.309570312 837.999023438 223.379882812 836.3984375 220.330078125 836.228515625 c 0
 216.610351562 836.098632812 212.48046875 838.008789062 208.450195312 840.008789062 c 0
 157.41015625 867.329101562 87.16015625 907.87890625 87.16015625 965.659179688 c 0
 87.16015625 992.798828125 106.310546875 1007.00878906 136.66015625 1007.00878906 c 0
 148.040039062 1007.00878906 160.219726562 1005.00878906 164.919921875 994.668945312 c 0
 187.330078125 942.168945312 200.5 917.46875 253.599609375 850.869140625 c 1xf0
 232.040039062 840.338867188 l 2
195.169921875 277.998046875 m 1
 415.83984375 277.998046875 l 1
 304.330078125 578.73828125 l 1
 195.169921875 277.998046875 l 1
EndSplineSet
Substitution2: "'c2sc' Capitals to Small Capitals in Latin lookup 11 subtable" uni1EA6.sc
AlternateSubs2: "'aalt' Access All Alternates in Latin lookup 0 subtable" uni1EA6.sc
Position2: "'cpsp' Capital Spacing in Latin lookup 0 subtable" dx=5 dy=0 dh=10 dv=0
EndChar

StartChar: uni1EA8
Encoding: 7848 7848 17
Width: 667
GlyphClass: 2
Flags: MW
HStem: 640 20G<289 370 370 373.5> 713 160 946 68
VStem: 183 290 439 59
AnchorPoint: "Anchor-7" 429 1068 basechar 0
AnchorPoint: "Anchor-6" 648 0 basechar 0
AnchorPoint: "Anchor-5" 328 833 basechar 0
AnchorPoint: "Anchor-4" 305 0 basechar 0
LayerCount: 2
Fore
SplineSet
592.5 110.5 m 2xf0
 607 73 616 43 648 43 c 0
 660 43 661 38 661 30 c 2
 661 13 l 2
 661 4 657 0 648 0 c 2
 413 0 l 2
 405 0 400 4 400 13 c 2
 400 30 l 2
 400 38 401 43 413 43 c 0
 467 43 489.5 72.5 473 119 c 2
 436.8203125 221 l 1
 175.209960938 221 l 1
 136.5 115 l 2
 121 73 152.5 43 203 43 c 0
 215 43 216 38 216 30 c 2
 216 13 l 2
 216 4 211 0 203 0 c 2
 18 0 l 2
 10 0 5 4 5 13 c 2
 5 30 l 2
 5 38 6 43 18 43 c 0
 49 43 61.5 73 76 113.5 c 2
 274 649 l 2
 276 656 281 660 289 660 c 2
 370 660 l 2
 377 660 382 656 385 649 c 2
 592.5 110.5 l 2xf0
328 800.959960938 m 1
 305.969726562 759.440429688 268.6796875 712.829101562 220.379882812 712.829101562 c 0
 194.959960938 712.829101562 183.08984375 737.409179688 183.08984375 765.369140625 c 0
 183.08984375 778.079101562 183.939453125 789.098632812 193.259765625 793.338867188 c 0
 242.41015625 811.978515625 267.830078125 824.688476562 328 872.98828125 c 1
 388.169921875 824.688476562 413.58984375 811.978515625 462.740234375 793.338867188 c 0
 472.060546875 789.098632812 472.91015625 778.079101562 472.91015625 765.369140625 c 0
 472.91015625 737.409179688 461.040039062 712.829101562 435.620117188 712.829101562 c 0
 387.3203125 712.829101562 350.030273438 759.439453125 328 800.959960938 c 1
460.580078125 839.69921875 m 0
 450.790039062 826.889648438 409.469726562 850.649414062 417.149414062 861.649414062 c 0
 427.779296875 877.479492188 439.1796875 891.649414062 439.1796875 913.559570312 c 0
 439.1796875 939.509765625 424.91015625 946.009765625 411.16015625 946.009765625 c 0
 390.540039062 946.009765625 375.75 925.899414062 369.6796875 935.849609375 c 0
 360.939453125 950.279296875 352.359375 964.508789062 353.389648438 981.428710938 c 0
 353.859375 993.138671875 390.509765625 1014.27832031 423 1014.27832031 c 0
 479.849609375 1014.27832031 498.5 969.768554688 498.5 933.768554688 c 0xe8
 498.5 903.548828125 484.58984375 870.418945312 460.580078125 839.69921875 c 0
195.169921875 277.999023438 m 1
 415.83984375 277.999023438 l 1
 304.330078125 578.739257812 l 1
 195.169921875 277.999023438 l 1
EndSplineSet
Substitution2: "'c2sc' Capitals to Small Capitals in Latin lookup 11 subtable" uni1EA8.sc
AlternateSubs2: "'aalt' Access All Alternates in Latin lookup 0 subtable" uni1EA8.sc
Position2: "'cpsp' Capital Spacing in Latin lookup 0 subtable" dx=5 dy=0 dh=10 dv=0
EndChar

StartChar: uni1EAA
Encoding: 7850 7850 18
Width: 667
GlyphClass: 2
Flags: MW
HStem: 640 20G<289 370 370 373.5> 713 160 894 59 978 58
VStem: 183 63 411 63
AnchorPoint: "Anchor-7" 328 777 basechar 0
AnchorPoint: "Anchor-6" 648 0 basechar 0
AnchorPoint: "Anchor-5" 328 1018 basechar 0
AnchorPoint: "Anchor-4" 305 0 basechar 0
LayerCount: 2
Fore
SplineSet
592.5 110.5 m 2
 607 73 616 43 648 43 c 0
 660 43 661 38 661 30 c 2
 661 13 l 2
 661 4 657 0 648 0 c 2
 413 0 l 2
 405 0 400 4 400 13 c 2
 400 30 l 2
 400 38 401 43 413 43 c 0
 467 43 489.5 72.5 473 119 c 2
 436.8203125 221 l 1
 175.209960938 221 l 1
 136.5 115 l 2
 121 73 152.5 43 203 43 c 0
 215 43 216 38 216 30 c 2
 216 13 l 2
 216 4 211 0 203 0 c 2
 18 0 l 2
 10 0 5 4 5 13 c 2
 5 30 l 2
 5 38 6 43 18 43 c 0
 49 43 61.5 73 76 113.5 c 2
 274 649 l 2
 276 656 281 660 289 660 c 2
 370 660 l 2
 377 660 382 656 385 649 c 2
 592.5 110.5 l 2
328 800.959960938 m 1
 305.969726562 759.440429688 268.6796875 712.829101562 220.379882812 712.829101562 c 0
 194.959960938 712.829101562 183.08984375 737.409179688 183.08984375 765.369140625 c 0
 183.08984375 778.079101562 183.939453125 789.098632812 193.259765625 793.338867188 c 0
 242.41015625 811.978515625 267.830078125 824.688476562 328 872.98828125 c 1
 388.169921875 824.688476562 413.58984375 811.978515625 462.740234375 793.338867188 c 0
 472.060546875 789.098632812 472.91015625 778.079101562 472.91015625 765.369140625 c 0
 472.91015625 737.409179688 461.040039062 712.829101562 435.620117188 712.829101562 c 0
 387.3203125 712.829101562 350.030273438 759.439453125 328 800.959960938 c 1
349.76953125 980.749023438 m 0
 362.979492188 960.338867188 373.30078125 952.728515625 386.000976562 952.728515625 c 0
 402.000976562 952.728515625 410.500976562 965.588867188 410.500976562 981.228515625 c 0
 410.500976562 992.598632812 407.930664062 1004.42871094 399.900390625 1016.85839844 c 1
 409.060546875 1025.75878906 424.200195312 1036.72851562 438 1036.72851562 c 0
 452.129882812 1036.72851562 473.5 1008.94824219 473.5 977.228515625 c 0
 473.5 925.30859375 435.8203125 893.728515625 396 893.728515625 c 0
 339.900390625 893.728515625 320.170898438 924.80859375 306.390625 948.438476562 c 0
 294.400390625 970.008789062 283.700195312 977.728515625 271 977.728515625 c 0
 255 977.728515625 245.5 962.928710938 245.5 948.228515625 c 0
 245.5 936.6484375 248.9296875 924.838867188 257.029296875 912.548828125 c 1
 247.849609375 903.668945312 232.629882812 892.728515625 218 892.728515625 c 0
 204.349609375 892.728515625 182.5 920.828125 182.5 951.228515625 c 0
 182.5 1004.08886719 221.120117188 1035.72851562 261 1035.72851562 c 0
 316.1796875 1035.72851562 336.779296875 1002.72851562 349.76953125 980.749023438 c 0
195.170898438 278.008789062 m 1
 415.840820312 278.008789062 l 1
 304.331054688 578.749023438 l 1
 195.170898438 278.008789062 l 1
EndSplineSet
Substitution2: "'c2sc' Capitals to Small Capitals in Latin lookup 11 subtable" uni1EAA.sc
AlternateSubs2: "'aalt' Access All Alternates in Latin lookup 0 subtable" uni1EAA.sc
Position2: "'cpsp' Capital Spacing in Latin lookup 0 subtable" dx=5 dy=0 dh=10 dv=0
EndChar

StartChar: uni0200
Encoding: 512 512 19
Width: 667
GlyphClass: 2
Flags: MW
HStem: 640 20G<289 370 370 373.5> 865 20G
VStem: 170 166 342 166
AnchorPoint: "Anchor-6" 648 0 basechar 0
AnchorPoint: "Anchor-5" 328 899 basechar 0
AnchorPoint: "Anchor-4" 305 0 basechar 0
LayerCount: 2
Fore
SplineSet
592.5 110.5 m 2
 607 73 616 43 648 43 c 0
 660 43 661 38 661 30 c 2
 661 13 l 2
 661 4 657 0 648 0 c 2
 413 0 l 2
 405 0 400 4 400 13 c 2
 400 30 l 2
 400 38 401 43 413 43 c 0
 467 43 489.5 72.5 473 119 c 2
 436.8203125 221 l 1
 175.209960938 221 l 1
 136.5 115 l 2
 121 73 152.5 43 203 43 c 0
 215 43 216 38 216 30 c 2
 216 13 l 2
 216 4 211 0 203 0 c 2
 18 0 l 2
 10 0 5 4 5 13 c 2
 5 30 l 2
 5 38 6 43 18 43 c 0
 49 43 61.5 73 76 113.5 c 2
 274 649 l 2
 276 656 281 660 289 660 c 2
 370 660 l 2
 377 660 382 656 385 649 c 2
 592.5 110.5 l 2
486.799804688 718.5703125 m 2
 482.069335938 716.23046875 478.140625 714.639648438 475.090820312 714.469726562 c 0
 471.360351562 714.33984375 467.240234375 716.25 463.209960938 718.25 c 0
 412.169921875 745.5703125 341.919921875 786.110351562 341.919921875 843.890625 c 0
 341.919921875 871.030273438 361.0703125 885.240234375 391.419921875 885.240234375 c 0
 402.799804688 885.240234375 414.979492188 883.240234375 419.6796875 872.900390625 c 0
 442.08984375 820.400390625 455.259765625 795.700195312 508.359375 729.100585938 c 1
 486.799804688 718.5703125 l 2
314.180664062 718.579101562 m 2
 309.4609375 716.239257812 305.530273438 714.6484375 302.470703125 714.478515625 c 0
 298.750976562 714.348632812 294.630859375 716.258789062 290.600585938 718.258789062 c 0
 239.55078125 745.579101562 169.310546875 786.119140625 169.310546875 843.899414062 c 0
 169.310546875 871.0390625 188.450195312 885.249023438 218.810546875 885.249023438 c 0
 230.180664062 885.249023438 242.360351562 883.249023438 247.060546875 872.909179688 c 0
 269.48046875 820.409179688 282.640625 795.708984375 335.740234375 729.109375 c 1
 314.180664062 718.579101562 l 2
195.1796875 278.017578125 m 1
 415.849609375 278.017578125 l 1
 304.33984375 578.7578125 l 1
 195.1796875 278.017578125 l 1
EndSplineSet
Substitution2: "'c2sc' Capitals to Small Capitals in Latin lookup 11 subtable" uni0200.sc
AlternateSubs2: "'aalt' Access All Alternates in Latin lookup 0 subtable" uni0200.sc
Position2: "'cpsp' Capital Spacing in Latin lookup 0 subtable" dx=5 dy=0 dh=10 dv=0
EndChar

StartChar: Adieresis
Encoding: 196 196 20
Width: 667
GlyphClass: 2
Flags: MW
HStem: 640 20G<289 370 370 373.5> 716 138
VStem: 157 139 362 139
AnchorPoint: "Anchor-6" 648 0 basechar 0
AnchorPoint: "Anchor-5" 328 845 basechar 0
AnchorPoint: "Anchor-4" 305 0 basechar 0
LayerCount: 2
Fore
SplineSet
592.5 110.5 m 2
 607 73 616 43 648 43 c 0
 660 43 661 38 661 30 c 2
 661 13 l 2
 661 4 657 0 648 0 c 2
 413 0 l 2
 405 0 400 4 400 13 c 2
 400 30 l 2
 400 38 401 43 413 43 c 0
 467 43 489.5 72.5 473 119 c 2
 436.8203125 221 l 1
 175.209960938 221 l 1
 136.5 115 l 2
 121 73 152.5 43 203 43 c 0
 215 43 216 38 216 30 c 2
 216 13 l 2
 216 4 211 0 203 0 c 2
 18 0 l 2
 10 0 5 4 5 13 c 2
 5 30 l 2
 5 38 6 43 18 43 c 0
 49 43 61.5 73 76 113.5 c 2
 274 649 l 2
 276 656 281 660 289 660 c 2
 370 660 l 2
 377 660 382 656 385 649 c 2
 592.5 110.5 l 2
225.379882812 853.830078125 m 0
 242.0703125 853.830078125 255.619140625 847.5703125 272.309570312 830.890625 c 0
 289 814.200195312 295.25 801.690429688 295.25 785 c 0
 295.25 768.309570312 287.950195312 754.759765625 272.310546875 739.109375 c 0
 255.620117188 722.4296875 242.0703125 716.169921875 225.379882812 716.169921875 c 0
 209.740234375 716.169921875 197.220703125 722.4296875 179.490234375 739.109375 c 0
 162.810546875 754.759765625 156.55078125 768.309570312 156.55078125 785 c 0
 156.55078125 801.690429688 162.810546875 814.200195312 179.490234375 830.890625 c 0
 196.180664062 847.5703125 209.740234375 853.830078125 225.379882812 853.830078125 c 0
430.37890625 853.830078125 m 0
 447.069335938 853.830078125 460.618164062 847.5703125 477.30859375 830.890625 c 0
 493.999023438 814.200195312 500.249023438 801.690429688 500.249023438 785 c 0
 500.249023438 768.309570312 492.94921875 754.759765625 477.309570312 739.109375 c 0
 460.619140625 722.4296875 447.069335938 716.169921875 430.37890625 716.169921875 c 0
 414.739257812 716.169921875 402.219726562 722.4296875 384.489257812 739.109375 c 0
 367.809570312 754.759765625 361.549804688 768.309570312 361.549804688 785 c 0
 361.549804688 801.690429688 367.809570312 814.200195312 384.489257812 830.890625 c 0
 401.1796875 847.5703125 414.739257812 853.830078125 430.37890625 853.830078125 c 0
195.16796875 278 m 1
 415.837890625 278 l 1
 304.328125 578.740234375 l 1
 195.16796875 278 l 1
EndSplineSet
Substitution2: "'c2sc' Capitals to Small Capitals in Latin lookup 11 subtable" Adieresis.sc
AlternateSubs2: "'aalt' Access All Alternates in Latin lookup 0 subtable" Adieresis.sc
Position2: "'cpsp' Capital Spacing in Latin lookup 0 subtable" dx=5 dy=0 dh=10 dv=0
EndChar

StartChar: uni1EA0
Encoding: 7840 7840 21
Width: 667
GlyphClass: 2
Flags: MW
HStem: -190 138 640 20G<289 370 370 373.5>
VStem: 236 139
AnchorPoint: "Anchor-6" 648 0 basechar 0
AnchorPoint: "Anchor-5" 328 660 basechar 0
AnchorPoint: "Anchor-4" 305 0 basechar 0
LayerCount: 2
Fore
SplineSet
592.5 110.5 m 2
 607 73 616 43 648 43 c 0
 660 43 661 38 661 30 c 2
 661 13 l 2
 661 4 657 0 648 0 c 2
 413 0 l 2
 405 0 400 4 400 13 c 2
 400 30 l 2
 400 38 401 43 413 43 c 0
 467 43 489.5 72.5 473 119 c 2
 436.8203125 221 l 1
 175.209960938 221 l 1
 136.5 115 l 2
 121 73 152.5 43 203 43 c 0
 215 43 216 38 216 30 c 2
 216 13 l 2
 216 4 211 0 203 0 c 2
 18 0 l 2
 10 0 5 4 5 13 c 2
 5 30 l 2
 5 38 6 43 18 43 c 0
 49 43 61.5 73 76 113.5 c 2
 274 649 l 2
 276 656 281 660 289 660 c 2
 370 660 l 2
 377 660 382 656 385 649 c 2
 592.5 110.5 l 2
304.48046875 -52.830078125 m 0
 321.16015625 -52.830078125 334.719726562 -59.080078125 351.41015625 -75.7705078125 c 0
 368.08984375 -92.4609375 374.349609375 -104.970703125 374.349609375 -121.661132812 c 0
 374.349609375 -138.340820312 367.049804688 -151.900390625 351.41015625 -167.540039062 c 0
 334.719726562 -184.23046875 321.16015625 -190.490234375 304.48046875 -190.490234375 c 0
 288.840820312 -190.490234375 276.321289062 -184.23046875 258.590820312 -167.540039062 c 0
 241.911132812 -151.900390625 235.651367188 -138.340820312 235.651367188 -121.661132812 c 0
 235.651367188 -104.970703125 241.911132812 -92.4609375 258.590820312 -75.7705078125 c 0
 275.28125 -59.080078125 288.840820312 -52.830078125 304.48046875 -52.830078125 c 0
195.170898438 278 m 1
 415.840820312 278 l 1
 304.331054688 578.740234375 l 1
 195.170898438 278 l 1
EndSplineSet
Substitution2: "'c2sc' Capitals to Small Capitals in Latin lookup 11 subtable" uni1EA0.sc
AlternateSubs2: "'aalt' Access All Alternates in Latin lookup 0 subtable" uni1EA0.sc
Position2: "'cpsp' Capital Spacing in Latin lookup 0 subtable" dx=5 dy=0 dh=10 dv=0
EndChar

StartChar: Agrave
Encoding: 192 192 22
Width: 667
GlyphClass: 2
Flags: MW
HStem: 640 20G<289 370 370 373.5> 865 20G
VStem: 231 166
AnchorPoint: "Anchor-6" 648 0 basechar 0
AnchorPoint: "Anchor-5" 303 899 basechar 0
AnchorPoint: "Anchor-4" 305 0 basechar 0
LayerCount: 2
Fore
SplineSet
592.5 110.5 m 2
 607 73 616 43 648 43 c 0
 660 43 661 38 661 30 c 2
 661 13 l 2
 661 4 657 0 648 0 c 2
 413 0 l 2
 405 0 400 4 400 13 c 2
 400 30 l 2
 400 38 401 43 413 43 c 0
 467 43 489.5 72.5 473 119 c 2
 436.8203125 221 l 1
 175.209960938 221 l 1
 136.5 115 l 2
 121 73 152.5 43 203 43 c 0
 215 43 216 38 216 30 c 2
 216 13 l 2
 216 4 211 0 203 0 c 2
 18 0 l 2
 10 0 5 4 5 13 c 2
 5 30 l 2
 5 38 6 43 18 43 c 0
 49 43 61.5 73 76 113.5 c 2
 274 649 l 2
 276 656 281 660 289 660 c 2
 370 660 l 2
 377 660 382 656 385 649 c 2
 592.5 110.5 l 2
375.450195312 718.5703125 m 2
 370.719726562 716.23046875 366.790039062 714.639648438 363.740234375 714.469726562 c 0
 360.020507812 714.33984375 355.890625 716.25 351.860351562 718.25 c 0
 300.8203125 745.5703125 230.5703125 786.110351562 230.5703125 843.890625 c 0
 230.5703125 871.030273438 249.720703125 885.240234375 280.0703125 885.240234375 c 0
 291.450195312 885.240234375 303.629882812 883.240234375 308.330078125 872.900390625 c 0
 330.740234375 820.400390625 343.91015625 795.700195312 397.009765625 729.100585938 c 1
 375.450195312 718.5703125 l 2
195.169921875 278.008789062 m 1
 415.83984375 278.008789062 l 1
 304.330078125 578.749023438 l 1
 195.169921875 278.008789062 l 1
EndSplineSet
Substitution2: "'c2sc' Capitals to Small Capitals in Latin lookup 11 subtable" Agrave.sc
AlternateSubs2: "'aalt' Access All Alternates in Latin lookup 0 subtable" Agrave.sc
Position2: "'cpsp' Capital Spacing in Latin lookup 0 subtable" dx=5 dy=0 dh=10 dv=0
EndChar

StartChar: uni1EA2
Encoding: 7842 7842 23
Width: 667
GlyphClass: 2
Flags: MW
HStem: 640 20G<289 370 370 373.5> 824 68
VStem: 338 59
AnchorPoint: "Anchor-6" 648 0 basechar 0
AnchorPoint: "Anchor-5" 328 946 basechar 0
AnchorPoint: "Anchor-4" 305 0 basechar 0
LayerCount: 2
Fore
SplineSet
592.5 110.5 m 2
 607 73 616 43 648 43 c 0
 660 43 661 38 661 30 c 2
 661 13 l 2
 661 4 657 0 648 0 c 2
 413 0 l 2
 405 0 400 4 400 13 c 2
 400 30 l 2
 400 38 401 43 413 43 c 0
 467 43 489.5 72.5 473 119 c 2
 436.8203125 221 l 1
 175.209960938 221 l 1
 136.5 115 l 2
 121 73 152.5 43 203 43 c 0
 215 43 216 38 216 30 c 2
 216 13 l 2
 216 4 211 0 203 0 c 2
 18 0 l 2
 10 0 5 4 5 13 c 2
 5 30 l 2
 5 38 6 43 18 43 c 0
 49 43 61.5 73 76 113.5 c 2
 274 649 l 2
 276 656 281 660 289 660 c 2
 370 660 l 2
 377 660 382 656 385 649 c 2
 592.5 110.5 l 2
359.580078125 717.9296875 m 0
 349.790039062 705.120117188 308.469726562 728.879882812 316.149414062 739.879882812 c 0
 326.779296875 755.709960938 338.1796875 769.879882812 338.1796875 791.790039062 c 0
 338.1796875 817.740234375 323.91015625 824.240234375 310.16015625 824.240234375 c 0
 289.540039062 824.240234375 274.75 804.129882812 268.6796875 814.080078125 c 0
 259.939453125 828.509765625 251.359375 842.740234375 252.389648438 859.66015625 c 0
 252.859375 871.370117188 289.509765625 892.509765625 322 892.509765625 c 0
 378.849609375 892.509765625 397.5 848 397.5 812 c 0
 397.5 781.780273438 383.58984375 748.66015625 359.580078125 717.9296875 c 0
195.169921875 278 m 1
 415.83984375 278 l 1
 304.330078125 578.740234375 l 1
 195.169921875 278 l 1
EndSplineSet
Substitution2: "'c2sc' Capitals to Small Capitals in Latin lookup 11 subtable" uni1EA2.sc
AlternateSubs2: "'aalt' Access All Alternates in Latin lookup 0 subtable" uni1EA2.sc
Position2: "'cpsp' Capital Spacing in Latin lookup 0 subtable" dx=5 dy=0 dh=10 dv=0
EndChar

StartChar: uni0202
Encoding: 514 514 24
Width: 667
GlyphClass: 2
Flags: MW
HStem: 640 20G<289 370 370 373.5> 817 56
VStem: 196 268
AnchorPoint: "Anchor-6" 648 0 basechar 0
AnchorPoint: "Anchor-5" 328 899 basechar 0
AnchorPoint: "Anchor-4" 305 0 basechar 0
LayerCount: 2
Fore
SplineSet
592.5 110.5 m 2
 607 73 616 43 648 43 c 0
 660 43 661 38 661 30 c 2
 661 13 l 2
 661 4 657 0 648 0 c 2
 413 0 l 2
 405 0 400 4 400 13 c 2
 400 30 l 2
 400 38 401 43 413 43 c 0
 467 43 489.5 72.5 473 119 c 2
 436.8203125 221 l 1
 175.209960938 221 l 1
 136.5 115 l 2
 121 73 152.5 43 203 43 c 0
 215 43 216 38 216 30 c 2
 216 13 l 2
 216 4 211 0 203 0 c 2
 18 0 l 2
 10 0 5 4 5 13 c 2
 5 30 l 2
 5 38 6 43 18 43 c 0
 49 43 61.5 73 76 113.5 c 2
 274 649 l 2
 276 656 281 660 289 660 c 2
 370 660 l 2
 377 660 382 656 385 649 c 2
 592.5 110.5 l 2
330 873 m 0
 421 873 464.091796875 801.150390625 464.091796875 762.25 c 0
 464.091796875 752.25 458.282226562 748.349609375 449.091796875 747.25 c 0
 438.58203125 746.009765625 418.921875 743.799804688 410.981445312 743.450195312 c 0
 400.44140625 742.790039062 396.061523438 746.370117188 395.271484375 758.020507812 c 0
 390.53125 794.760742188 369.401367188 816.760742188 330.000976562 816.760742188 c 0
 291.100585938 816.760742188 269.970703125 794.760742188 265.23046875 758.020507812 c 0
 263.940429688 746.370117188 260.060546875 742.790039062 249.520507812 743.450195312 c 0
 241.080078125 743.799804688 221.9296875 746.009765625 210.91015625 747.25 c 0
 201.719726562 748.349609375 195.91015625 752.25 195.91015625 762.25 c 0
 195.91015625 801.150390625 239.5 873 330 873 c 0
195.171875 278 m 1
 415.841796875 278 l 1
 304.33203125 578.740234375 l 1
 195.171875 278 l 1
EndSplineSet
Substitution2: "'c2sc' Capitals to Small Capitals in Latin lookup 11 subtable" uni0202.sc
AlternateSubs2: "'aalt' Access All Alternates in Latin lookup 0 subtable" uni0202.sc
Position2: "'cpsp' Capital Spacing in Latin lookup 0 subtable" dx=5 dy=0 dh=10 dv=0
EndChar

StartChar: Amacron
Encoding: 256 256 25
Width: 667
GlyphClass: 2
Flags: MW
HStem: 640 20G<289 370 370 373.5> 721 64<210.5 441 215 441>
VStem: 202 252<734 772 730 776.5>
AnchorPoint: "Anchor-6" 648 0 basechar 0
AnchorPoint: "Anchor-5" 328 765 basechar 0
AnchorPoint: "Anchor-4" 305 0 basechar 0
LayerCount: 2
Fore
SplineSet
592.5 110.5 m 2
 607 73 616 43 648 43 c 0
 660 43 661 38 661 30 c 2
 661 13 l 2
 661 4 657 0 648 0 c 2
 413 0 l 2
 405 0 400 4 400 13 c 2
 400 30 l 2
 400 38 401 43 413 43 c 0
 467 43 489.5 72.5 473 119 c 2
 436.8203125 221 l 1
 175.209960938 221 l 1
 136.5 115 l 2
 121 73 152.5 43 203 43 c 0
 215 43 216 38 216 30 c 2
 216 13 l 2
 216 4 211 0 203 0 c 2
 18 0 l 2
 10 0 5 4 5 13 c 2
 5 30 l 2
 5 38 6 43 18 43 c 0
 49 43 61.5 73 76 113.5 c 2
 274 649 l 2
 276 656 281 660 289 660 c 2
 370 660 l 2
 377 660 382 656 385 649 c 2
 592.5 110.5 l 2
454 734 m 2
 454 726 450 721 441 721 c 2
 215 721 l 2
 206 721 202 726 202 734 c 2
 202 772 l 2
 202 781 206 785 215 785 c 2
 441 785 l 2
 450 785 454 781 454 772 c 2
 454 734 l 2
195.169921875 278 m 1
 415.83984375 278 l 1
 304.330078125 578.740234375 l 1
 195.169921875 278 l 1
EndSplineSet
Substitution2: "'c2sc' Capitals to Small Capitals in Latin lookup 11 subtable" Amacron.sc
AlternateSubs2: "'aalt' Access All Alternates in Latin lookup 0 subtable" Amacron.sc
Position2: "'cpsp' Capital Spacing in Latin lookup 0 subtable" dx=5 dy=0 dh=10 dv=0
EndChar

StartChar: Aogonek
Encoding: 260 260 26
Width: 667
GlyphClass: 2
Flags: MW
HStem: 0 35 640 20G<289 370 370 373.5>
AnchorPoint: "Anchor-6" 648 0 basechar 0
AnchorPoint: "Anchor-5" 328 660 basechar 0
AnchorPoint: "Anchor-4" 305 0 basechar 0
LayerCount: 2
Fore
SplineSet
592.5 110.5 m 2
 607 73 615.999023438 42.9990234375 647.999023438 42.9990234375 c 0
 659.999023438 42.9990234375 660.999023438 37.9990234375 660.999023438 29.9990234375 c 2
 660.999023438 12.9990234375 l 2
 660.999023438 8.708984375 660.088867188 5.55859375 658.168945312 3.4287109375 c 0
 657.168945312 2.05859375 655.338867188 1.0986328125 653.05859375 0.548828125 c 0
 651.598632812 0.1787109375 649.908203125 -0.0009765625 647.998046875 -0.0009765625 c 0
 636.998046875 -0.0009765625 544.038085938 -15.2705078125 544.038085938 -92.3505859375 c 0
 544.038085938 -140.970703125 573.688476562 -167.73046875 627.048828125 -167.73046875 c 0
 664.999023438 -167.73046875 700.999023438 -142 709.999023438 -142 c 0
 713.999023438 -142 717.999023438 -146 717.999023438 -153 c 2
 717.999023438 -178 l 2
 717.999023438 -184 715.999023438 -189 710.999023438 -192 c 0
 677.999023438 -212 644.999023438 -223 614.999023438 -223 c 0
 518.999023438 -223 475.999023438 -156 475.999023438 -102 c 0
 475.999023438 -53.8203125 502.359375 -21.25 533.719726562 0 c 1
 413 0 l 2
 405 0 400 4 400 13 c 2
 400 30 l 2
 400 38 401 43 413 43 c 0
 467 43 489.5 72.5 473 119 c 2
 436.8203125 221 l 1
 175.209960938 221 l 1
 136.5 115 l 2
 121 73 152.5 43 203 43 c 0
 215 43 216 38 216 30 c 2
 216 13 l 2
 216 4 211 0 203 0 c 2
 18 0 l 2
 10 0 5 4 5 13 c 2
 5 30 l 2
 5 38 6 43 18 43 c 0
 49 43 61.5 73 76 113.5 c 2
 274 649 l 2
 276 656 281 660 289 660 c 2
 370 660 l 2
 377 660 382 656 385 649 c 2
 592.5 110.5 l 2
195.168945312 277.999023438 m 1
 415.838867188 277.999023438 l 1
 304.329101562 578.739257812 l 1
 195.168945312 277.999023438 l 1
EndSplineSet
Substitution2: "'c2sc' Capitals to Small Capitals in Latin lookup 11 subtable" Aogonek.sc
AlternateSubs2: "'aalt' Access All Alternates in Latin lookup 0 subtable" Aogonek.sc
Position2: "'cpsp' Capital Spacing in Latin lookup 0 subtable" dx=5 dy=0 dh=10 dv=0
EndChar

StartChar: Aring
Encoding: 197 197 27
Width: 667
GlyphClass: 2
Flags: MW
HStem: 639 20G 687 20G 774 54
VStem: 372 59
AnchorPoint: "Anchor-6" 648 0 basechar 0
AnchorPoint: "Anchor-5" 326 792 basechar 0
AnchorPoint: "Anchor-4" 305 0 basechar 0
LayerCount: 2
Fore
SplineSet
592.5 110.5 m 2
 607 73 616.000976562 42.9990234375 648.000976562 42.9990234375 c 0
 660.000976562 42.9990234375 661.000976562 37.9990234375 661.000976562 29.9990234375 c 2
 661.000976562 12.9990234375 l 2
 661.000976562 3.9990234375 657.000976562 -0.0009765625 648.000976562 -0.0009765625 c 2
 413.000976562 -0.0009765625 l 2
 405.000976562 -0.0009765625 400.000976562 3.9990234375 400.000976562 12.9990234375 c 2
 400.000976562 29.9990234375 l 2
 400.000976562 37.9990234375 401.000976562 42.9990234375 413.000976562 42.9990234375 c 0
 467.000976562 42.9990234375 489.500976562 72.4990234375 473.000976562 118.999023438 c 2
 436.821289062 220.999023438 l 1
 175.2109375 220.999023438 l 1
 136.500976562 114.999023438 l 2
 121.000976562 72.9990234375 152.500976562 42.9990234375 203.000976562 42.9990234375 c 0
 215.000976562 42.9990234375 216.000976562 37.9990234375 216.000976562 29.9990234375 c 2
 216.000976562 12.9990234375 l 2
 216.000976562 3.9990234375 211.000976562 -0.0009765625 203.000976562 -0.0009765625 c 2
 18.0009765625 -0.0009765625 l 2
 10.0009765625 -0.0009765625 5.0009765625 3.9990234375 5.0009765625 12.9990234375 c 2
 5.0009765625 29.9990234375 l 2
 5.0009765625 37.9990234375 6.0009765625 42.9990234375 18.0009765625 42.9990234375 c 0
 49.0009765625 42.9990234375 61.5009765625 72.9990234375 76.0009765625 113.499023438 c 2
 272.130859375 643.939453125 l 1
 241.361328125 661.159179688 221.000976562 692.609375 221.000976562 728.58984375 c 0
 221.000976562 783.939453125 267.701171875 828.049804688 326.510742188 828.049804688 c 0
 384.4609375 828.049804688 431.161132812 783.939453125 431.161132812 728.58984375 c 0
 431.161132812 694.790039062 413.180664062 664.969726562 385.690429688 647.219726562 c 1
 592.5 110.5 l 2
279.810546875 728.588867188 m 0
 279.810546875 701.779296875 297.970703125 683.619140625 326.510742188 683.619140625 c 0
 354.190429688 683.619140625 372.350585938 701.779296875 372.350585938 728.588867188 c 0
 372.350585938 756.268554688 354.190429688 774.428710938 326.510742188 774.428710938 c 0
 297.970703125 774.428710938 279.810546875 756.268554688 279.810546875 728.588867188 c 0
195.170898438 277.999023438 m 1
 415.840820312 277.999023438 l 1
 304.331054688 578.739257812 l 1
 195.170898438 277.999023438 l 1
EndSplineSet
Substitution2: "'c2sc' Capitals to Small Capitals in Latin lookup 11 subtable" Aring.sc
AlternateSubs2: "'aalt' Access All Alternates in Latin lookup 0 subtable" Aring.sc
Position2: "'cpsp' Capital Spacing in Latin lookup 0 subtable" dx=5 dy=0 dh=10 dv=0
EndChar

StartChar: Aringacute
Encoding: 506 506 28
Width: 667
GlyphClass: 2
Flags: MW
HStem: 640 20G 687 20G 774 54 997 20G
VStem: 264 166 372 59
AnchorPoint: "Anchor-6" 648 0 basechar 0
AnchorPoint: "Anchor-5" 358 1031 basechar 0
AnchorPoint: "Anchor-4" 305 0 basechar 0
LayerCount: 2
Fore
SplineSet
592.5 110.5 m 2xf4
 607 73 616.000976562 42.9990234375 648.000976562 42.9990234375 c 0
 660.000976562 42.9990234375 661.000976562 37.9990234375 661.000976562 29.9990234375 c 2
 661.000976562 12.9990234375 l 2
 661.000976562 3.9990234375 657.000976562 -0.0009765625 648.000976562 -0.0009765625 c 2
 413.000976562 -0.0009765625 l 2
 405.000976562 -0.0009765625 400.000976562 3.9990234375 400.000976562 12.9990234375 c 2
 400.000976562 29.9990234375 l 2
 400.000976562 37.9990234375 401.000976562 42.9990234375 413.000976562 42.9990234375 c 0
 467.000976562 42.9990234375 489.500976562 72.4990234375 473.000976562 118.999023438 c 2
 436.821289062 220.999023438 l 1
 175.2109375 220.999023438 l 1
 136.500976562 114.999023438 l 2
 121.000976562 72.9990234375 152.500976562 42.9990234375 203.000976562 42.9990234375 c 0
 215.000976562 42.9990234375 216.000976562 37.9990234375 216.000976562 29.9990234375 c 2
 216.000976562 12.9990234375 l 2
 216.000976562 3.9990234375 211.000976562 -0.0009765625 203.000976562 -0.0009765625 c 2
 18.0009765625 -0.0009765625 l 2
 10.0009765625 -0.0009765625 5.0009765625 3.9990234375 5.0009765625 12.9990234375 c 2
 5.0009765625 29.9990234375 l 2
 5.0009765625 37.9990234375 6.0009765625 42.9990234375 18.0009765625 42.9990234375 c 0
 49.0009765625 42.9990234375 61.5009765625 72.9990234375 76.0009765625 113.499023438 c 2
 272.130859375 643.939453125 l 1
 241.361328125 661.159179688 221.000976562 692.609375 221.000976562 728.58984375 c 0
 221.000976562 783.939453125 267.701171875 828.049804688 326.510742188 828.049804688 c 0
 384.4609375 828.049804688 431.161132812 783.939453125 431.161132812 728.58984375 c 0
 431.161132812 694.790039062 413.180664062 664.969726562 385.690429688 647.219726562 c 1
 592.5 110.5 l 2xf4
279.810546875 728.588867188 m 0
 279.810546875 701.779296875 297.970703125 683.619140625 326.510742188 683.619140625 c 0
 354.190429688 683.619140625 372.350585938 701.779296875 372.350585938 728.588867188 c 0
 372.350585938 756.268554688 354.190429688 774.428710938 326.510742188 774.428710938 c 0
 297.970703125 774.428710938 279.810546875 756.268554688 279.810546875 728.588867188 c 0
263.500976562 861.029296875 m 1xf8
 316.600585938 927.62890625 329.771484375 952.330078125 352.181640625 1004.83007812 c 0
 356.881835938 1015.16992188 369.061523438 1017.16015625 380.44140625 1017.16015625 c 0
 410.791015625 1017.16015625 429.94140625 1002.95019531 429.94140625 975.810546875 c 0
 429.94140625 918.030273438 359.69140625 877.48046875 308.651367188 850.16015625 c 0
 304.62109375 848.169921875 300.500976562 846.259765625 296.770507812 846.389648438 c 0
 293.720703125 846.559570312 289.791015625 848.159179688 285.060546875 850.499023438 c 2
 263.500976562 861.029296875 l 1xf8
195.171875 278 m 1
 415.841796875 278 l 1
 304.33203125 578.740234375 l 1
 195.171875 278 l 1
EndSplineSet
Substitution2: "'c2sc' Capitals to Small Capitals in Latin lookup 11 subtable" Aringacute.sc
AlternateSubs2: "'aalt' Access All Alternates in Latin lookup 0 subtable" Aringacute.sc
Position2: "'cpsp' Capital Spacing in Latin lookup 0 subtable" dx=5 dy=0 dh=10 dv=0
EndChar

StartChar: Atilde
Encoding: 195 195 29
Width: 667
GlyphClass: 2
Flags: MW
HStem: 640 20G<289 370 370 373.5> 721 59 805 58
VStem: 183 63 411 63
AnchorPoint: "Anchor-6" 648 0 basechar 0
AnchorPoint: "Anchor-5" 328 845 basechar 0
AnchorPoint: "Anchor-4" 305 0 basechar 0
LayerCount: 2
Fore
SplineSet
592.5 110.5 m 2
 607 73 616 43 648 43 c 0
 660 43 661 38 661 30 c 2
 661 13 l 2
 661 4 657 0 648 0 c 2
 413 0 l 2
 405 0 400 4 400 13 c 2
 400 30 l 2
 400 38 401 43 413 43 c 0
 467 43 489.5 72.5 473 119 c 2
 436.8203125 221 l 1
 175.209960938 221 l 1
 136.5 115 l 2
 121 73 152.5 43 203 43 c 0
 215 43 216 38 216 30 c 2
 216 13 l 2
 216 4 211 0 203 0 c 2
 18 0 l 2
 10 0 5 4 5 13 c 2
 5 30 l 2
 5 38 6 43 18 43 c 0
 49 43 61.5 73 76 113.5 c 2
 274 649 l 2
 276 656 281 660 289 660 c 2
 370 660 l 2
 377 660 382 656 385 649 c 2
 592.5 110.5 l 2
349.76953125 807.530273438 m 0
 362.979492188 787.120117188 373.30078125 779.509765625 386.000976562 779.509765625 c 0
 402.000976562 779.509765625 410.500976562 792.370117188 410.500976562 808.009765625 c 0
 410.500976562 819.379882812 407.930664062 831.209960938 399.900390625 843.639648438 c 1
 409.060546875 852.540039062 424.200195312 863.509765625 438 863.509765625 c 0
 452.129882812 863.509765625 473.5 835.729492188 473.5 804.009765625 c 0
 473.5 752.08984375 435.8203125 720.509765625 396 720.509765625 c 0
 339.900390625 720.509765625 320.170898438 751.58984375 306.390625 775.219726562 c 0
 294.400390625 796.790039062 283.700195312 804.509765625 271 804.509765625 c 0
 255 804.509765625 245.5 789.709960938 245.5 775.009765625 c 0
 245.5 763.4296875 248.9296875 751.620117188 257.029296875 739.330078125 c 1
 247.849609375 730.450195312 232.629882812 719.509765625 218 719.509765625 c 0
 204.349609375 719.509765625 182.5 747.609375 182.5 778.009765625 c 0
 182.5 830.870117188 221.120117188 862.509765625 261 862.509765625 c 0
 316.1796875 862.509765625 336.779296875 829.509765625 349.76953125 807.530273438 c 0
195.170898438 278.009765625 m 1
 415.840820312 278.009765625 l 1
 304.331054688 578.75 l 1
 195.170898438 278.009765625 l 1
EndSplineSet
Substitution2: "'c2sc' Capitals to Small Capitals in Latin lookup 11 subtable" Atilde.sc
AlternateSubs2: "'aalt' Access All Alternates in Latin lookup 0 subtable" Atilde.sc
Position2: "'cpsp' Capital Spacing in Latin lookup 0 subtable" dx=5 dy=0 dh=10 dv=0
EndChar

StartChar: AE
Encoding: 198 198 30
Width: 982
GlyphClass: 2
Flags: MW
HStem: -11.9 21G 0 45 0.100006 46.5 0.100006 52 220.5 57 325.1 56 608.1 52 616.1 44 651.1 20G
VStem: 5 159 442.98 111.49 723.97 42 917.47 46.53
AnchorPoint: "Anchor-6" 848 0 basechar 0
AnchorPoint: "Anchor-5" 611 660 basechar 0
AnchorPoint: "Anchor-4" 656 0 basechar 0
LayerCount: 2
Fore
SplineSet
868.959960938 -11.8896484375 m 0x8e38
 865.959960938 -11.8896484375 863.208984375 -11.7236328125 860.958984375 -8.9033203125 c 2
 856.958984375 -3.9033203125 l 2
 853.838867188 -0.0029296875 849.96875 0.0771484375 838.96875 0.0771484375 c 2
 378.478515625 0.0771484375 l 2
 369.978515625 0.0771484375 364.978515625 4.0771484375 364.978515625 13.0771484375 c 2x1e38
 364.978515625 33.5771484375 l 2
 364.978515625 41.5771484375 369.478515625 46.5771484375 378.478515625 46.5771484375 c 0
 417.978515625 46.5771484375 442.978515625 73.0771484375 442.978515625 126.077148438 c 2x2e30
 442.978515625 220.477539062 l 1
 239.548828125 220.477539062 l 1
 181.548828125 114.977539062 l 2
 153.638671875 65.4775390625 157.188476562 44.9775390625 203.008789062 44.9775390625 c 0
 215.508789062 44.9775390625 216.008789062 39.9775390625 216.008789062 31.9775390625 c 2
 216.008789062 12.9775390625 l 2
 216.008789062 3.9775390625 211.008789062 -0.0224609375 203.008789062 -0.0224609375 c 2
 18.5087890625 -0.0224609375 l 2
 10.0087890625 -0.0224609375 5.0087890625 3.9775390625 5.0087890625 12.9775390625 c 2
 5.0087890625 31.9775390625 l 2
 5.0087890625 39.9775390625 7.0087890625 44.9775390625 18.5087890625 44.9775390625 c 0
 56.5087890625 44.9775390625 87.4892578125 65.767578125 114.739257812 113.467773438 c 2
 372.838867188 571.967773438 l 2
 392.619140625 607.118164062 379.159179688 616.05859375 347.96875 616.05859375 c 0
 339.46875 616.05859375 333.96875 622.05859375 333.96875 630.05859375 c 2x4d70
 333.96875 646.05859375 l 2
 333.96875 655.05859375 338.96875 660.05859375 347.96875 660.05859375 c 2
 797.958984375 660.05859375 l 2x1e30
 806.958984375 660.05859375 811.189453125 660.7890625 814.94921875 664.048828125 c 2
 819.94921875 669.048828125 l 2
 821.94921875 671.048828125 824.94921875 671.048828125 827.94921875 671.048828125 c 0
 831.94921875 671.048828125 835.979492188 669.069335938 838.939453125 664.059570312 c 2x1cb0
 907.939453125 545.059570312 l 2
 909.849609375 542.009765625 910.9296875 539.069335938 910.9296875 537.069335938 c 0
 910.9296875 532.069335938 908.129882812 528.76953125 903.939453125 526.079101562 c 2
 878.939453125 512.079101562 l 2
 873.879882812 509.189453125 871.950195312 508.08984375 868.950195312 508.08984375 c 0
 864.950195312 508.08984375 861.850585938 511.280273438 858.9609375 516.080078125 c 2
 855.9609375 521.080078125 l 2
 815.4609375 588.080078125 782.9609375 608.080078125 714.9609375 608.080078125 c 2
 554.4609375 608.080078125 l 1
 554.4609375 381.080078125 l 1
 649.9609375 381.080078125 l 2
 697.9609375 381.080078125 723.9609375 401.080078125 723.9609375 440.080078125 c 2
 723.9609375 446.080078125 l 2
 723.9609375 455.080078125 727.9609375 459.080078125 736.9609375 459.080078125 c 2
 752.9609375 459.080078125 l 2
 761.9609375 459.080078125 765.9609375 455.080078125 765.9609375 446.080078125 c 2
 765.9609375 261.080078125 l 2
 765.9609375 252.080078125 761.9609375 248.080078125 752.9609375 248.080078125 c 2
 736.9609375 248.080078125 l 2
 727.9609375 248.080078125 723.9609375 252.080078125 723.9609375 261.080078125 c 2
 723.9609375 266.080078125 l 2
 723.9609375 306.080078125 698.9609375 325.080078125 649.9609375 325.080078125 c 2
 554.4609375 325.080078125 l 1
 554.4609375 136.080078125 l 2
 554.4609375 82.080078125 580.4609375 52.080078125 619.4609375 52.080078125 c 2
 685.9609375 52.080078125 l 2x1e30
 814.9609375 52.080078125 860.9609375 81.580078125 914.4609375 189.080078125 c 2
 917.4609375 195.080078125 l 2
 920.4609375 201.580078125 927.9609375 204.580078125 935.9609375 200.080078125 c 2
 956.9609375 188.580078125 l 2
 965.920898438 184.030273438 965.98046875 178.850585938 961.950195312 170.090820312 c 2
 878.950195312 -3.8994140625 l 2
 876.240234375 -9.609375 872.959960938 -11.8896484375 868.959960938 -11.8896484375 c 0x8e38
271.428710938 277.49609375 m 1x1e30
 442.958984375 277.49609375 l 1
 442.958984375 585.896484375 l 1
 271.428710938 277.49609375 l 1x1e30
EndSplineSet
Substitution2: "'c2sc' Capitals to Small Capitals in Latin lookup 11 subtable" AE.sc
AlternateSubs2: "'aalt' Access All Alternates in Latin lookup 0 subtable" AE.sc
Position2: "'cpsp' Capital Spacing in Latin lookup 0 subtable" dx=5 dy=0 dh=10 dv=0
EndChar

StartChar: AEacute
Encoding: 508 508 31
Width: 982
GlyphClass: 2
Flags: MW
HStem: -11.9 21G 0 45 0.100006 46.5 0.100006 52 220.5 57 325.1 56 608.1 52 616.1 44 651.1 20G
VStem: 5 159 442.98 111.49 723.97 42 917.47 46.53
AnchorPoint: "Anchor-6" 848 0 basechar 0
AnchorPoint: "Anchor-5" 643 899 basechar 0
AnchorPoint: "Anchor-4" 656 0 basechar 0
LayerCount: 2
Fore
SplineSet
868.959960938 -11.8896484375 m 0x8e38
 865.959960938 -11.8896484375 863.208984375 -11.7236328125 860.958984375 -8.9033203125 c 2
 856.958984375 -3.9033203125 l 2
 853.838867188 -0.0029296875 849.96875 0.0771484375 838.96875 0.0771484375 c 2
 378.478515625 0.0771484375 l 2
 369.978515625 0.0771484375 364.978515625 4.0771484375 364.978515625 13.0771484375 c 2x1e38
 364.978515625 33.5771484375 l 2
 364.978515625 41.5771484375 369.478515625 46.5771484375 378.478515625 46.5771484375 c 0
 417.978515625 46.5771484375 442.978515625 73.0771484375 442.978515625 126.077148438 c 2x2e30
 442.978515625 220.477539062 l 1
 239.548828125 220.477539062 l 1
 181.548828125 114.977539062 l 2
 153.638671875 65.4775390625 157.188476562 44.9775390625 203.008789062 44.9775390625 c 0
 215.508789062 44.9775390625 216.008789062 39.9775390625 216.008789062 31.9775390625 c 2
 216.008789062 12.9775390625 l 2
 216.008789062 3.9775390625 211.008789062 -0.0224609375 203.008789062 -0.0224609375 c 2
 18.5087890625 -0.0224609375 l 2
 10.0087890625 -0.0224609375 5.0087890625 3.9775390625 5.0087890625 12.9775390625 c 2
 5.0087890625 31.9775390625 l 2
 5.0087890625 39.9775390625 7.0087890625 44.9775390625 18.5087890625 44.9775390625 c 0
 56.5087890625 44.9775390625 87.4892578125 65.767578125 114.739257812 113.467773438 c 2
 372.838867188 571.967773438 l 2
 392.619140625 607.118164062 379.159179688 616.05859375 347.96875 616.05859375 c 0
 339.46875 616.05859375 333.96875 622.05859375 333.96875 630.05859375 c 2x4d70
 333.96875 646.05859375 l 2
 333.96875 655.05859375 338.96875 660.05859375 347.96875 660.05859375 c 2
 797.958984375 660.05859375 l 2x1e30
 806.958984375 660.05859375 811.189453125 660.7890625 814.94921875 664.048828125 c 2
 819.94921875 669.048828125 l 2
 821.94921875 671.048828125 824.94921875 671.048828125 827.94921875 671.048828125 c 0
 831.94921875 671.048828125 835.979492188 669.069335938 838.939453125 664.059570312 c 2x1cb0
 907.939453125 545.059570312 l 2
 909.849609375 542.009765625 910.9296875 539.069335938 910.9296875 537.069335938 c 0
 910.9296875 532.069335938 908.129882812 528.76953125 903.939453125 526.079101562 c 2
 878.939453125 512.079101562 l 2
 873.879882812 509.189453125 871.950195312 508.08984375 868.950195312 508.08984375 c 0
 864.950195312 508.08984375 861.850585938 511.280273438 858.9609375 516.080078125 c 2
 855.9609375 521.080078125 l 2
 815.4609375 588.080078125 782.9609375 608.080078125 714.9609375 608.080078125 c 2
 554.4609375 608.080078125 l 1
 554.4609375 381.080078125 l 1
 649.9609375 381.080078125 l 2
 697.9609375 381.080078125 723.9609375 401.080078125 723.9609375 440.080078125 c 2
 723.9609375 446.080078125 l 2
 723.9609375 455.080078125 727.9609375 459.080078125 736.9609375 459.080078125 c 2
 752.9609375 459.080078125 l 2
 761.9609375 459.080078125 765.9609375 455.080078125 765.9609375 446.080078125 c 2
 765.9609375 261.080078125 l 2
 765.9609375 252.080078125 761.9609375 248.080078125 752.9609375 248.080078125 c 2
 736.9609375 248.080078125 l 2
 727.9609375 248.080078125 723.9609375 252.080078125 723.9609375 261.080078125 c 2
 723.9609375 266.080078125 l 2
 723.9609375 306.080078125 698.9609375 325.080078125 649.9609375 325.080078125 c 2
 554.4609375 325.080078125 l 1
 554.4609375 136.080078125 l 2
 554.4609375 82.080078125 580.4609375 52.080078125 619.4609375 52.080078125 c 2
 685.9609375 52.080078125 l 2x1e30
 814.9609375 52.080078125 860.9609375 81.580078125 914.4609375 189.080078125 c 2
 917.4609375 195.080078125 l 2
 920.4609375 201.580078125 927.9609375 204.580078125 935.9609375 200.080078125 c 2
 956.9609375 188.580078125 l 2
 965.920898438 184.030273438 965.98046875 178.850585938 961.950195312 170.090820312 c 2
 878.950195312 -3.8994140625 l 2
 876.240234375 -9.609375 872.959960938 -11.8896484375 868.959960938 -11.8896484375 c 0x8e38
271.428710938 277.49609375 m 1x1e30
 442.958984375 277.49609375 l 1
 442.958984375 585.896484375 l 1
 271.428710938 277.49609375 l 1x1e30
548.62890625 729.0859375 m 1
 601.728515625 795.685546875 614.858398438 820.40625 637.268554688 872.90625 c 0
 641.96875 883.236328125 654.1484375 885.216796875 665.518554688 885.216796875 c 0
 695.868164062 885.216796875 715.0078125 871.016601562 715.0078125 843.876953125 c 0
 715.0078125 786.096679688 644.778320312 745.56640625 593.728515625 718.24609375 c 0
 589.698242188 716.24609375 585.578125 714.3359375 581.868164062 714.475585938 c 0
 578.818359375 714.635742188 574.8984375 716.225585938 570.178710938 718.555664062 c 2
 548.62890625 729.0859375 l 1
EndSplineSet
Substitution2: "'c2sc' Capitals to Small Capitals in Latin lookup 11 subtable" AEacute.sc
AlternateSubs2: "'aalt' Access All Alternates in Latin lookup 0 subtable" AEacute.sc
Position2: "'cpsp' Capital Spacing in Latin lookup 0 subtable" dx=5 dy=0 dh=10 dv=0
EndChar

StartChar: B
Encoding: 66 66 32
Width: 633
GlyphClass: 2
Flags: MW
HStem: 0 39.5<303 325 325 363> 0 43<50.5 55 55 76.5 50.5 363> 338.5 47.5 617 43<55 76.5> 620.5 39.5
VStem: 120 111.5 428.5 111.5 486.5 111.5
AnchorPoint: "Anchor-5" 317 660 basechar 0
AnchorPoint: "Anchor-4" 317 0 basechar 0
LayerCount: 2
Fore
SplineSet
55 0 m 2xad
 46 0 41 4 41 13 c 2xad
 41 30 l 2
 41 38 46 43 55 43 c 0
 98 43 120 71 120 126 c 2
 120 534 l 2
 120 589 98 617 55 617 c 0
 46 617 41 622 41 630 c 2x75
 41 647 l 2
 41 656 46 660 55 660 c 2
 323 660 l 2
 445 660 540 590 540 501 c 0xae
 540 450 509 407 451 378 c 1
 543 351 598 282 598 194 c 0
 598 80 501 0 363 0 c 2
 55 0 l 2xad
325 39.5 m 2
 428.5 39.5 486.509765625 96.9794921875 486.509765625 190.479492188 c 0
 486.509765625 288.479492188 425.009765625 338.479492188 296.009765625 338.479492188 c 2
 231.509765625 338.479492188 l 1
 231.509765625 124.139648438 l 2
 231.509765625 66.0400390625 261.969726562 39.5 303 39.5 c 2
 325 39.5 l 2
295.009765625 385.979492188 m 2xae
 381.509765625 385.979492188 428.509765625 430.979492188 428.509765625 503.479492188 c 0
 428.509765625 576.479492188 382.509765625 620.479492188 298.009765625 620.479492188 c 2
 231.509765625 620.479492188 l 1
 231.509765625 385.979492188 l 1
 295.009765625 385.979492188 l 2xae
EndSplineSet
Substitution2: "'ss04' Style Set 4 in Latin lookup 33 subtable" u1F151
Substitution2: "'ss03' Style Set 3 in Latin lookup 31 subtable" uni24B7
Substitution2: "'c2sc' Capitals to Small Capitals in Latin lookup 11 subtable" B.sc
AlternateSubs2: "'aalt' Access All Alternates in Latin lookup 0 subtable" B.sc uni24B7 u1F151
Position2: "'cpsp' Capital Spacing in Latin lookup 0 subtable" dx=5 dy=0 dh=10 dv=0
EndChar

StartChar: uni1E04
Encoding: 7684 7684 33
Width: 633
GlyphClass: 2
Flags: MW
HStem: -190.48 137.66 1.52588e-05 39.5 1.52588e-05 43 338.5 47.5 617 43 620.5 39.5
VStem: 120 111.5 248.15 138.7 428.5 111.5 486.5 111.5
AnchorPoint: "Anchor-5" 317 660 basechar 0
AnchorPoint: "Anchor-4" 317 0 basechar 0
LayerCount: 2
Fore
SplineSet
55 0 m 2x5640
 46 0 41 4 41 13 c 2x5640
 41 30 l 2
 41 38 46 43 55 43 c 0
 98 43 120 71 120 126 c 2
 120 534 l 2
 120 589 98 617 55 617 c 0
 46 617 41 622 41 630 c 2x3a40
 41 647 l 2
 41 656 46 660 55 660 c 2
 323 660 l 2
 445 660 540 590 540 501 c 0x5680
 540 450 509 407 451 378 c 1
 543 351 598 282 598 194 c 0
 598 80 501 0 363 0 c 2
 55 0 l 2x5640
325 39.5 m 2
 428.5 39.5 486.509765625 96.9794921875 486.509765625 190.479492188 c 0
 486.509765625 288.479492188 425.009765625 338.479492188 296.009765625 338.479492188 c 2
 231.509765625 338.479492188 l 1
 231.509765625 124.139648438 l 2
 231.509765625 66.0400390625 261.969726562 39.5 303 39.5 c 2
 325 39.5 l 2
295.009765625 385.979492188 m 2x5680
 381.509765625 385.979492188 428.509765625 430.979492188 428.509765625 503.479492188 c 0
 428.509765625 576.479492188 382.509765625 620.479492188 298.009765625 620.479492188 c 2
 231.509765625 620.479492188 l 1
 231.509765625 385.979492188 l 1
 295.009765625 385.979492188 l 2x5680
316.979492188 -52.8408203125 m 0xd740
 333.649414062 -52.8408203125 347.21875 -59.0908203125 363.8984375 -75.78125 c 0
 380.578125 -92.4609375 386.828125 -104.970703125 386.828125 -121.650390625 c 0
 386.828125 -138.330078125 379.528320312 -151.879882812 363.888671875 -167.51953125 c 0
 347.208984375 -184.19921875 333.649414062 -190.458984375 316.979492188 -190.458984375 c 0
 301.349609375 -190.458984375 288.830078125 -184.19921875 271.110351562 -167.51953125 c 0
 254.430664062 -151.879882812 248.180664062 -138.330078125 248.180664062 -121.650390625 c 0
 248.180664062 -104.970703125 254.430664062 -92.4609375 271.110351562 -75.78125 c 0
 287.790039062 -59.0908203125 301.349609375 -52.8408203125 316.979492188 -52.8408203125 c 0xd740
EndSplineSet
Substitution2: "'c2sc' Capitals to Small Capitals in Latin lookup 11 subtable" uni1E04.sc
AlternateSubs2: "'aalt' Access All Alternates in Latin lookup 0 subtable" uni1E04.sc
Position2: "'cpsp' Capital Spacing in Latin lookup 0 subtable" dx=5 dy=0 dh=10 dv=0
EndChar

StartChar: C
Encoding: 67 67 34
Width: 649
GlyphClass: 2
Flags: MW
HStem: -11 57.5<296 433.25 296 435.5> 621 50<282.25 407>
VStem: 31 125.5<267.25 396.5> 501.5 113.5<475 499.5 475 507.75>
AnchorPoint: "Anchor-5" 348 660 basechar 0
AnchorPoint: "Anchor-4" 353 0 basechar 0
LayerCount: 2
Fore
SplineSet
632 209.5 m 2
 639.5 206.5 642.5 203.5 639 196 c 0
 603 97.5 518 -11 353 -11 c 0
 147 -11 31 134 31 323 c 0
 31 470 107 671 356 671 c 0
 553.5 671 615 519 615 480 c 0
 615 470 611.5 466.5 603 464 c 2
 519 435 l 2
 505 430.5 499.5 433 499.5 441.5 c 0
 499.5 448.5 501.5 460 501.5 475.5 c 0
 501.5 540 462 621 352 621 c 0
 212.5 621 156.5 467 156.5 360.5 c 0
 156.5 174 227 46.5 365 46.5 c 0
 501.5 46.5 563.5 132.5 592.5 211.5 c 0
 597 221.5 601.5 222.5 610 218.5 c 2
 632 209.5 l 2
EndSplineSet
Substitution2: "'ss04' Style Set 4 in Latin lookup 33 subtable" u1F152
Substitution2: "'ss03' Style Set 3 in Latin lookup 31 subtable" uni24B8
Substitution2: "'c2sc' Capitals to Small Capitals in Latin lookup 11 subtable" C.sc
AlternateSubs2: "'aalt' Access All Alternates in Latin lookup 0 subtable" C.sc uni24B8 u1F152
Position2: "'cpsp' Capital Spacing in Latin lookup 0 subtable" dx=5 dy=0 dh=10 dv=0
EndChar

StartChar: Cacute
Encoding: 262 262 35
Width: 649
GlyphClass: 2
Flags: MW
HStem: -11 57.5<296 433.25 296 435.5> 621 50<282.25 407>
VStem: 31 125.5<267.25 396.5> 501.5 113.5<475 499.5 475 507.75>
AnchorPoint: "Anchor-5" 380 899 basechar 0
AnchorPoint: "Anchor-4" 353 0 basechar 0
LayerCount: 2
Fore
SplineSet
632 209.5 m 2
 639.5 206.5 642.5 203.5 639 196 c 0
 603 97.5 518 -11 353 -11 c 0
 147 -11 31 134 31 323 c 0
 31 470 107 671 356 671 c 0
 553.5 671 615 519 615 480 c 0
 615 470 611.5 466.5 603 464 c 2
 519 435 l 2
 505 430.5 499.5 433 499.5 441.5 c 0
 499.5 448.5 501.5 460 501.5 475.5 c 0
 501.5 540 462 621 352 621 c 0
 212.5 621 156.5 467 156.5 360.5 c 0
 156.5 174 227 46.5 365 46.5 c 0
 501.5 46.5 563.5 132.5 592.5 211.5 c 0
 597 221.5 601.5 222.5 610 218.5 c 2
 632 209.5 l 2
285.990234375 729.08984375 m 1
 339.08984375 795.689453125 352.249023438 820.41015625 374.659179688 872.91015625 c 0
 379.349609375 883.240234375 391.51953125 885.220703125 402.899414062 885.220703125 c 0
 433.239257812 885.220703125 452.389648438 871.020507812 452.389648438 843.880859375 c 0
 452.389648438 786.100585938 382.139648438 745.5703125 331.099609375 718.25 c 0
 327.079101562 716.25 322.94921875 714.33984375 319.239257812 714.479492188 c 0
 316.189453125 714.639648438 312.26953125 716.229492188 307.540039062 718.559570312 c 2
 285.990234375 729.08984375 l 1
EndSplineSet
Substitution2: "'c2sc' Capitals to Small Capitals in Latin lookup 11 subtable" Cacute.sc
AlternateSubs2: "'aalt' Access All Alternates in Latin lookup 0 subtable" Cacute.sc
Position2: "'cpsp' Capital Spacing in Latin lookup 0 subtable" dx=5 dy=0 dh=10 dv=0
EndChar

StartChar: Ccaron
Encoding: 268 268 36
Width: 649
GlyphClass: 2
Flags: MW
HStem: -11 57.5<296 433.25 296 435.5> 621 50<282.25 407>
VStem: 31 125.5<267.25 396.5> 501.5 113.5<475 499.5 475 507.75>
AnchorPoint: "Anchor-5" 348 845 basechar 0
AnchorPoint: "Anchor-4" 353 0 basechar 0
LayerCount: 2
Fore
SplineSet
632 209.5 m 2
 639.5 206.5 642.5 203.5 639 196 c 0
 603 97.5 518 -11 353 -11 c 0
 147 -11 31 134 31 323 c 0
 31 470 107 671 356 671 c 0
 553.5 671 615 519 615 480 c 0
 615 470 611.5 466.5 603 464 c 2
 519 435 l 2
 505 430.5 499.5 433 499.5 441.5 c 0
 499.5 448.5 501.5 460 501.5 475.5 c 0
 501.5 540 462 621 352 621 c 0
 212.5 621 156.5 467 156.5 360.5 c 0
 156.5 174 227 46.5 365 46.5 c 0
 501.5 46.5 563.5 132.5 592.5 211.5 c 0
 597 221.5 601.5 222.5 610 218.5 c 2
 632 209.5 l 2
348 789.030273438 m 1
 370.01953125 830.540039062 407.298828125 877.139648438 455.598632812 877.139648438 c 0
 481.018554688 877.139648438 492.87890625 852.569335938 492.87890625 824.609375 c 0
 492.87890625 811.899414062 492.0390625 800.889648438 482.71875 796.659179688 c 0
 433.579101562 778.01953125 408.159179688 765.309570312 347.999023438 717.009765625 c 1
 287.829101562 765.309570312 262.409179688 778.01953125 213.26953125 796.659179688 c 0
 203.94921875 800.889648438 203.109375 811.899414062 203.109375 824.609375 c 0
 203.109375 852.569335938 214.969726562 877.139648438 240.389648438 877.139648438 c 0
 288.689453125 877.139648438 325.969726562 830.540039062 348 789.030273438 c 1
EndSplineSet
Substitution2: "'c2sc' Capitals to Small Capitals in Latin lookup 11 subtable" Ccaron.sc
AlternateSubs2: "'aalt' Access All Alternates in Latin lookup 0 subtable" Ccaron.sc
Position2: "'cpsp' Capital Spacing in Latin lookup 0 subtable" dx=5 dy=0 dh=10 dv=0
EndChar

StartChar: Ccedilla
Encoding: 199 199 37
Width: 649
GlyphClass: 2
Flags: MW
HStem: -6 21G
AnchorPoint: "Anchor-5" 348 660 basechar 0
AnchorPoint: "Anchor-4" 353 0 basechar 0
LayerCount: 2
Fore
SplineSet
632 209.5 m 2
 639.5 206.5 642.501953125 203.5 639.001953125 196 c 0
 603.782226562 99.6396484375 521.662109375 -6.30078125 363.622070312 -10.8505859375 c 1
 328.001953125 -53.0009765625 l 1
 341.001953125 -48.0009765625 355.001953125 -46.0009765625 369.001953125 -46.0009765625 c 0
 415.001953125 -46.0009765625 468.001953125 -72.0009765625 468.001953125 -135.000976562 c 0
 468.001953125 -187.000976562 422.001953125 -225.000976562 354.001953125 -225.000976562 c 0
 327.001953125 -225.000976562 297.001953125 -220.000976562 266.001953125 -207.000976562 c 0
 249.001953125 -200.000976562 248.001953125 -186.701171875 248.001953125 -166.880859375 c 0
 248.001953125 -159.890625 250.33203125 -155.23046875 254.9921875 -155.23046875 c 0
 258.4921875 -155.23046875 261.912109375 -156.590820312 264.322265625 -157.560546875 c 0
 288.801757812 -165.720703125 317.6015625 -173.880859375 346.741210938 -173.880859375 c 0
 379.7109375 -173.880859375 400.69140625 -160.720703125 400.69140625 -136.240234375 c 0
 400.69140625 -101.270507812 368.061523438 -87.2900390625 322.6015625 -87.2900390625 c 0
 306.62109375 -87.2900390625 286.80078125 -90.7802734375 273.150390625 -90.7802734375 c 0
 267.330078125 -90.7802734375 263.830078125 -87.2900390625 263.830078125 -82.6201171875 c 0
 263.830078125 -79.1298828125 263.549804688 -76.580078125 266.16015625 -73.2998046875 c 2
 312.620117188 -9.0595703125 l 1
 131.900390625 8.73046875 31 146.73046875 31 323 c 0
 31 470 107 671 356 671 c 0
 553.5 671 615 519 615 480 c 0
 615 470 611.5 466.5 603 464 c 2
 519 435 l 2
 505 430.5 499.5 433 499.5 441.5 c 0
 499.5 448.5 501.5 460 501.5 475.5 c 0
 501.5 540 462 621 352 621 c 0
 212.5 621 156.5 467 156.5 360.5 c 0
 156.5 174 227 46.5 365 46.5 c 0
 501.5 46.5 563.5 132.5 592.5 211.5 c 0
 597 221.5 601.5 222.5 610 218.5 c 2
 632 209.5 l 2
EndSplineSet
Substitution2: "'c2sc' Capitals to Small Capitals in Latin lookup 11 subtable" Ccedilla.sc
AlternateSubs2: "'aalt' Access All Alternates in Latin lookup 0 subtable" Ccedilla.sc
Position2: "'cpsp' Capital Spacing in Latin lookup 0 subtable" dx=5 dy=0 dh=10 dv=0
EndChar

StartChar: uni1E08
Encoding: 7688 7688 38
Width: 649
GlyphClass: 2
Flags: MW
HStem: -225 51.12 -87.28 41.29 -9.05 55.56 621 50<282.25 407>
VStem: 31 125.5<267.25 396.5> 400.69 67.31 501.5 113.5<475 499.5 475 507.75>
AnchorPoint: "Anchor-5" 380 899 basechar 0
AnchorPoint: "Anchor-4" 353 0 basechar 0
LayerCount: 2
Fore
SplineSet
632 209.5 m 2
 639.5 206.5 642.479492188 203.51953125 638.979492188 196.01953125 c 0
 603.759765625 99.6591796875 521.639648438 -6.2705078125 363.609375 -10.8203125 c 1
 327.999023438 -52.970703125 l 1
 340.999023438 -47.970703125 354.999023438 -45.970703125 368.999023438 -45.970703125 c 0
 414.999023438 -45.970703125 467.999023438 -71.970703125 467.999023438 -134.970703125 c 0
 467.999023438 -186.970703125 421.999023438 -224.970703125 353.999023438 -224.970703125 c 0
 326.999023438 -224.970703125 296.999023438 -219.970703125 265.999023438 -206.970703125 c 0
 248.999023438 -199.970703125 247.999023438 -186.670898438 247.999023438 -166.861328125 c 0
 247.999023438 -159.861328125 250.319335938 -155.201171875 254.979492188 -155.201171875 c 0
 258.479492188 -155.201171875 261.889648438 -156.561523438 264.299804688 -157.521484375 c 0
 288.780273438 -165.681640625 317.580078125 -173.841796875 346.719726562 -173.841796875 c 0
 379.6796875 -173.841796875 400.66015625 -160.681640625 400.66015625 -136.201171875 c 0
 400.66015625 -101.241210938 368.040039062 -87.2607421875 322.580078125 -87.2607421875 c 0
 306.600585938 -87.2607421875 286.780273438 -90.7412109375 273.140625 -90.7412109375 c 0
 267.3203125 -90.7412109375 263.8203125 -87.2607421875 263.8203125 -82.5908203125 c 0
 263.8203125 -79.1103515625 263.540039062 -76.560546875 266.139648438 -73.2802734375 c 2
 312.599609375 -9.0498046875 l 1
 131.889648438 8.73046875 31 146.73046875 31 323 c 0
 31 470 107 671 356 671 c 0
 553.5 671 615 519 615 480 c 0
 615 470 611.5 466.5 603 464 c 2
 519 435 l 2
 505 430.5 499.5 433 499.5 441.5 c 0
 499.5 448.5 501.5 460 501.5 475.5 c 0
 501.5 540 462 621 352 621 c 0
 212.5 621 156.5 467 156.5 360.5 c 0
 156.5 174 227 46.5 365 46.5 c 0
 501.5 46.5 563.5 132.5 592.5 211.5 c 0
 597 221.5 601.5 222.5 610 218.5 c 2
 632 209.5 l 2
285.969726562 729.109375 m 1
 339.069335938 795.708984375 352.228515625 820.4296875 374.638671875 872.9296875 c 0
 379.329101562 883.259765625 391.499023438 885.240234375 402.87890625 885.240234375 c 0
 433.21875 885.240234375 452.369140625 871.040039062 452.369140625 843.900390625 c 0
 452.369140625 786.120117188 382.119140625 745.58984375 331.079101562 718.26953125 c 0
 327.059570312 716.26953125 322.9296875 714.359375 319.219726562 714.499023438 c 0
 316.169921875 714.659179688 312.25 716.249023438 307.51953125 718.579101562 c 2
 285.969726562 729.109375 l 1
EndSplineSet
Substitution2: "'c2sc' Capitals to Small Capitals in Latin lookup 11 subtable" uni1E08.sc
AlternateSubs2: "'aalt' Access All Alternates in Latin lookup 0 subtable" uni1E08.sc
Position2: "'cpsp' Capital Spacing in Latin lookup 0 subtable" dx=5 dy=0 dh=10 dv=0
EndChar

StartChar: Ccircumflex
Encoding: 264 264 39
Width: 649
GlyphClass: 2
Flags: MW
HStem: -11 57.5<296 433.25 296 435.5> 621 50<282.25 407>
VStem: 31 125.5<267.25 396.5> 501.5 113.5<475 499.5 475 507.75>
AnchorPoint: "Anchor-7" 348 777 basechar 0
AnchorPoint: "Anchor-5" 348 833 basechar 0
AnchorPoint: "Anchor-4" 353 0 basechar 0
LayerCount: 2
Fore
SplineSet
632 209.5 m 2
 639.5 206.5 642.5 203.5 639 196 c 0
 603 97.5 518 -11 353 -11 c 0
 147 -11 31 134 31 323 c 0
 31 470 107 671 356 671 c 0
 553.5 671 615 519 615 480 c 0
 615 470 611.5 466.5 603 464 c 2
 519 435 l 2
 505 430.5 499.5 433 499.5 441.5 c 0
 499.5 448.5 501.5 460 501.5 475.5 c 0
 501.5 540 462 621 352 621 c 0
 212.5 621 156.5 467 156.5 360.5 c 0
 156.5 174 227 46.5 365 46.5 c 0
 501.5 46.5 563.5 132.5 592.5 211.5 c 0
 597 221.5 601.5 222.5 610 218.5 c 2
 632 209.5 l 2
348 800.950195312 m 1
 325.969726562 759.440429688 288.690429688 712.840820312 240.390625 712.840820312 c 0
 214.970703125 712.840820312 203.110351562 737.411132812 203.110351562 765.37109375 c 0
 203.110351562 778.081054688 203.950195312 789.090820312 213.270507812 793.331054688 c 0
 262.41015625 811.9609375 287.830078125 824.670898438 348 872.970703125 c 1
 408.16015625 824.670898438 433.580078125 811.9609375 482.719726562 793.331054688 c 0
 492.040039062 789.090820312 492.879882812 778.081054688 492.879882812 765.37109375 c 0
 492.879882812 737.411132812 481.01953125 712.840820312 455.599609375 712.840820312 c 0
 407.299804688 712.840820312 370.01953125 759.440429688 348 800.950195312 c 1
EndSplineSet
Substitution2: "'c2sc' Capitals to Small Capitals in Latin lookup 11 subtable" Ccircumflex.sc
AlternateSubs2: "'aalt' Access All Alternates in Latin lookup 0 subtable" Ccircumflex.sc
Position2: "'cpsp' Capital Spacing in Latin lookup 0 subtable" dx=5 dy=0 dh=10 dv=0
EndChar

StartChar: Cdotaccent
Encoding: 266 266 40
Width: 649
GlyphClass: 2
Flags: MW
HStem: -11 57.5<296 433.25 296 435.5> 621 50<282.25 407> 716.17 137.66
VStem: 31 125.5<267.25 396.5> 279.15 138.7 501.5 113.5
AnchorPoint: "Anchor-5" 348 845 basechar 0
AnchorPoint: "Anchor-4" 353 0 basechar 0
LayerCount: 2
Fore
SplineSet
632 209.5 m 2
 639.5 206.5 642.5 203.5 639 196 c 0
 603 97.5 518 -11 353 -11 c 0
 147 -11 31 134 31 323 c 0
 31 470 107 671 356 671 c 0
 553.5 671 615 519 615 480 c 0
 615 470 611.5 466.5 603 464 c 2
 519 435 l 2
 505 430.5 499.5 433 499.5 441.5 c 0
 499.5 448.5 501.5 460 501.5 475.5 c 0
 501.5 540 462 621 352 621 c 0
 212.5 621 156.5 467 156.5 360.5 c 0
 156.5 174 227 46.5 365 46.5 c 0
 501.5 46.5 563.5 132.5 592.5 211.5 c 0
 597 221.5 601.5 222.5 610 218.5 c 2
 632 209.5 l 2
347.98046875 853.8203125 m 0
 364.650390625 853.8203125 378.220703125 847.560546875 394.900390625 830.890625 c 0
 411.580078125 814.2109375 417.830078125 801.701171875 417.830078125 785.021484375 c 0
 417.830078125 768.331054688 410.530273438 754.78125 394.890625 739.141601562 c 0
 378.2109375 722.471679688 364.651367188 716.211914062 347.981445312 716.211914062 c 0
 332.3515625 716.211914062 319.831054688 722.471679688 302.111328125 739.141601562 c 0
 285.431640625 754.78125 279.181640625 768.331054688 279.181640625 785.021484375 c 0
 279.181640625 801.701171875 285.431640625 814.2109375 302.111328125 830.890625 c 0
 318.791015625 847.560546875 332.350585938 853.8203125 347.98046875 853.8203125 c 0
EndSplineSet
Substitution2: "'c2sc' Capitals to Small Capitals in Latin lookup 11 subtable" Cdotaccent.sc
AlternateSubs2: "'aalt' Access All Alternates in Latin lookup 0 subtable" Cdotaccent.sc
Position2: "'cpsp' Capital Spacing in Latin lookup 0 subtable" dx=5 dy=0 dh=10 dv=0
EndChar

StartChar: D
Encoding: 68 68 41
Width: 660
GlyphClass: 2
Flags: MW
HStem: 0 43<35.5 46 40 46 46 65 40 300> 0 47<253 300> 617 43<40 61.5 216.5 216.5 216.5 257.5>
VStem: 105 111.5<126 534 534 561.5> 516 113<235.5 416>
AnchorPoint: "Anchor-5" 289 660 basechar 0
AnchorPoint: "Anchor-4" 301 0 basechar 0
LayerCount: 2
Fore
SplineSet
276 660 m 2x78
 486 660 629 535 629 331 c 0
 629 121 501 0 300 0 c 2
 40 0 l 2
 31 0 26 4 26 13 c 2x78
 26 30 l 2
 26 38 31 43 40 43 c 2
 46 43 l 2
 84 43 105 74 105 126 c 2xb8
 105 534 l 2
 105 589 83 617 40 617 c 0
 31 617 26 622 26 630 c 2
 26 647 l 2
 26 656 31 660 40 660 c 2
 276 660 l 2x78
216.5 122 m 2
 216.5 76 224.5 47 281.5 47 c 0
 426.5 47 516 140 516 331 c 0
 516 501 428.5 617 257.5 617 c 2
 216.5 617 l 1
 216.5 122 l 2
EndSplineSet
Substitution2: "'ss04' Style Set 4 in Latin lookup 33 subtable" u1F153
Substitution2: "'ss03' Style Set 3 in Latin lookup 31 subtable" uni24B9
Substitution2: "'c2sc' Capitals to Small Capitals in Latin lookup 11 subtable" D.sc
AlternateSubs2: "'aalt' Access All Alternates in Latin lookup 0 subtable" D.sc uni24B9 u1F153
Position2: "'cpsp' Capital Spacing in Latin lookup 0 subtable" dx=5 dy=0 dh=10 dv=0
EndChar

StartChar: uni01C4
Encoding: 452 452 42
Width: 1307
GlyphClass: 2
Flags: MW
HStem: -12 21G 0 43<35.5 46 40 46 46 65 40 300> 0 47<253 300> 617 43<40 61.5 216.5 216.5 216.5 257.5> 717 160
VStem: 516 113<235.5 416> 874 290
AnchorPoint: "Anchor-5" 1019 845 basechar 0
AnchorPoint: "Anchor-4" 951 0 basechar 0
LayerCount: 2
Fore
SplineSet
276 660 m 2x3e
 486 660 629 535 629 331 c 0
 629 121 501 0 300 0 c 2
 40 0 l 2x3e
 31 0 26 4 26 13 c 2
 26 30 l 2
 26 38 31 43 40 43 c 2
 46 43 l 2x5e
 84 43 105 74 105 126 c 2
 105 534 l 2
 105 589 83 617 40 617 c 0
 31 617 26 622 26 630 c 2
 26 647 l 2
 26 656 31 660 40 660 c 2
 276 660 l 2x3e
216.5 122 m 2
 216.5 76 224.5 47 281.5 47 c 0
 426.5 47 516 140 516 331 c 0
 516 501 428.5 617 257.5 617 c 2
 216.5 617 l 1
 216.5 122 l 2
1283 151 m 2
 1289 147.5 1290 144 1290 141 c 0
 1290 138 1289 136 1287 133 c 2
 1217 -4 l 2
 1214 -9 1211 -11 1206 -11 c 0x9e
 1204 -11 1201 -11 1198 -9 c 2
 1194 -4 l 2
 1190 0 1183 0 1177 0 c 2
 677 0 l 2
 669 0 664 4 664 13 c 2
 664 47 l 2
 664 53 666.5 59 670 64 c 2
 1099.5 604 l 1
 902 604 l 2
 822 604 786 567.5 744 516.5 c 2
 741 512.5 l 2
 737 507.5 734 504.5 730 504.5 c 0
 728 504.5 725 505 722 506.5 c 2
 700 519 l 2
 695.5 521.5 693 525 693 529 c 0
 693 532 694 534 696 537 c 2
 765 664 l 2
 768 670 772 671 777 671 c 0
 780 671 782 671 789 664 c 0
 794 660 800 660 806 660 c 2
 1267 660 l 2
 1271 660 1272 658 1272 656 c 2
 1272 651 l 2
 1272 648 1269 644 1267 641 c 2
 810 65 l 1
 963 65 l 2
 1127 65 1194 87.5 1235.5 154.5 c 2
 1238.5 159.5 l 2
 1241.5 164.5 1245.5 167.5 1249.5 167.5 c 0
 1252.5 167.5 1254.5 167 1257.5 165.5 c 2
 1283 151 l 2
1019 789.040039062 m 1
 1041.03027344 830.559570312 1078.3203125 877.170898438 1126.62011719 877.170898438 c 0
 1152.04003906 877.170898438 1163.91015625 852.590820312 1163.91015625 824.630859375 c 0
 1163.91015625 811.920898438 1163.06054688 800.901367188 1153.74023438 796.670898438 c 0
 1104.58984375 778.020507812 1079.16992188 765.310546875 1019 717.010742188 c 1
 958.830078125 765.310546875 933.41015625 778.020507812 884.259765625 796.670898438 c 0
 874.939453125 800.901367188 874.08984375 811.920898438 874.08984375 824.630859375 c 0
 874.08984375 852.590820312 885.959960938 877.170898438 911.379882812 877.170898438 c 0
 959.6796875 877.170898438 996.969726562 830.560546875 1019 789.040039062 c 1
EndSplineSet
Substitution2: "'c2sc' Capitals to Small Capitals in Latin lookup 11 subtable" uni01C4.sc
AlternateSubs2: "'aalt' Access All Alternates in Latin lookup 0 subtable" uni01C4.sc
Position2: "'cpsp' Capital Spacing in Latin lookup 0 subtable" dx=5 dy=0 dh=10 dv=0
EndChar

StartChar: Dcaron
Encoding: 270 270 43
Width: 660
GlyphClass: 2
Flags: MW
HStem: 0 43<35.5 46 40 46 46 65 40 300> 0 47<253 300> 617 43<40 61.5 216.5 216.5 216.5 257.5>
VStem: 105 111.5<126 534 534 561.5> 516 113<235.5 416>
AnchorPoint: "Anchor-5" 289 845 basechar 0
AnchorPoint: "Anchor-4" 301 0 basechar 0
LayerCount: 2
Fore
SplineSet
276 660 m 2x78
 486 660 629 535 629 331 c 0
 629 121 501 0 300 0 c 2
 40 0 l 2
 31 0 26 4 26 13 c 2x78
 26 30 l 2
 26 38 31 43 40 43 c 2
 46 43 l 2
 84 43 105 74 105 126 c 2xb8
 105 534 l 2
 105 589 83 617 40 617 c 0
 31 617 26 622 26 630 c 2
 26 647 l 2
 26 656 31 660 40 660 c 2
 276 660 l 2x78
216.5 122 m 2
 216.5 76 224.5 47 281.5 47 c 0
 426.5 47 516 140 516 331 c 0
 516 501 428.5 617 257.5 617 c 2
 216.5 617 l 1
 216.5 122 l 2
289 789.030273438 m 1
 311.01953125 830.540039062 348.298828125 877.139648438 396.598632812 877.139648438 c 0
 422.018554688 877.139648438 433.87890625 852.569335938 433.87890625 824.609375 c 0
 433.87890625 811.899414062 433.0390625 800.889648438 423.71875 796.659179688 c 0
 374.579101562 778.01953125 349.159179688 765.309570312 288.999023438 717.009765625 c 1
 228.829101562 765.309570312 203.409179688 778.01953125 154.26953125 796.659179688 c 0
 144.94921875 800.889648438 144.109375 811.899414062 144.109375 824.609375 c 0
 144.109375 852.569335938 155.969726562 877.139648438 181.389648438 877.139648438 c 0
 229.689453125 877.139648438 266.969726562 830.540039062 289 789.030273438 c 1
EndSplineSet
Substitution2: "'c2sc' Capitals to Small Capitals in Latin lookup 11 subtable" Dcaron.sc
AlternateSubs2: "'aalt' Access All Alternates in Latin lookup 0 subtable" Dcaron.sc
Position2: "'cpsp' Capital Spacing in Latin lookup 0 subtable" dx=5 dy=0 dh=10 dv=0
EndChar

StartChar: Dcroat
Encoding: 272 272 44
Width: 695
GlyphClass: 2
Flags: MW
HStem: 0 43<35.5 46 40 46 46 65 40 300> 0 47<253 300> 287 73<35.5 105 40 105 216.5 401> 617 43<40 61.5 216.5 216.5 216.5 257.5>
VStem: 105 111.5<126 287 360 534 534 561.5> 516 113<235.5 416>
AnchorPoint: "Anchor-5" 289 660 basechar 0
AnchorPoint: "Anchor-4" 301 0 basechar 0
LayerCount: 2
Fore
SplineSet
40 287 m 2x7c
 31 287 26 292 26 300 c 2
 26 346 l 2
 26 355 31 360 40 360 c 2
 105 360 l 1
 105 534 l 2
 105 589 83 617 40 617 c 0
 31 617 26 622 26 630 c 2
 26 647 l 2
 26 656 31 660 40 660 c 2
 276 660 l 2
 486 660 629 535 629 331 c 0
 629 121 501 0 300 0 c 2
 40 0 l 2
 31 0 26 4 26 13 c 2x7c
 26 30 l 2
 26 38 31 43 40 43 c 2
 46 43 l 2
 84 43 105 74 105 126 c 2xbc
 105 287 l 1
 40 287 l 2x7c
216.5 122 m 2
 216.5 76 224.5 47 281.5 47 c 0
 426.5 47 516 140 516 331 c 0
 516 501 428.5 617 257.5 617 c 2
 216.5 617 l 1
 216.5 360 l 1
 401 360 l 2
 410 360 414 355 414 346 c 2
 414 300 l 2
 414 292 410 287 401 287 c 2
 216.5 287 l 1
 216.5 122 l 2
EndSplineSet
Substitution2: "'c2sc' Capitals to Small Capitals in Latin lookup 11 subtable" Dcroat.sc
AlternateSubs2: "'aalt' Access All Alternates in Latin lookup 0 subtable" Dcroat.sc
Position2: "'cpsp' Capital Spacing in Latin lookup 0 subtable" dx=5 dy=0 dh=10 dv=0
EndChar

StartChar: uni1E0C
Encoding: 7692 7692 45
Width: 660
GlyphClass: 2
Flags: MW
HStem: -190.48 137.66 1.52588e-05 43 1.52588e-05 47 617 43
VStem: 105 111.5<126 534 534 561.5> 232.15 138.7 516 113
AnchorPoint: "Anchor-5" 289 660 basechar 0
AnchorPoint: "Anchor-4" 301 0 basechar 0
LayerCount: 2
Fore
SplineSet
276 660 m 2x3a
 486 660 629 535 629 331 c 0
 629 121 501 0 300 0 c 2
 40 0 l 2
 31 0 26 4 26 13 c 2x3a
 26 30 l 2
 26 38 31 43 40 43 c 2
 46 43 l 2
 84 43 105 74 105 126 c 2x5a
 105 534 l 2
 105 589 83 617 40 617 c 0
 31 617 26 622 26 630 c 2
 26 647 l 2
 26 656 31 660 40 660 c 2
 276 660 l 2x3a
216.5 122 m 2
 216.5 76 224.5 47 281.5 47 c 0
 426.5 47 516 140 516 331 c 0
 516 501 428.5 617 257.5 617 c 2
 216.5 617 l 1
 216.5 122 l 2
300.969726562 -52.8203125 m 0xbe
 317.639648438 -52.8203125 331.208984375 -59.0703125 347.888671875 -75.7607421875 c 0
 364.568359375 -92.4404296875 370.818359375 -104.950195312 370.818359375 -121.629882812 c 0
 370.818359375 -138.309570312 363.518554688 -151.859375 347.87890625 -167.499023438 c 0
 331.19921875 -184.178710938 317.639648438 -190.438476562 300.969726562 -190.438476562 c 0
 285.33984375 -190.438476562 272.8203125 -184.178710938 255.100585938 -167.499023438 c 0
 238.420898438 -151.859375 232.170898438 -138.309570312 232.170898438 -121.629882812 c 0
 232.170898438 -104.950195312 238.420898438 -92.4404296875 255.100585938 -75.7607421875 c 0
 271.780273438 -59.0703125 285.33984375 -52.8203125 300.969726562 -52.8203125 c 0xbe
EndSplineSet
Substitution2: "'c2sc' Capitals to Small Capitals in Latin lookup 11 subtable" uni1E0C.sc
AlternateSubs2: "'aalt' Access All Alternates in Latin lookup 0 subtable" uni1E0C.sc
Position2: "'cpsp' Capital Spacing in Latin lookup 0 subtable" dx=5 dy=0 dh=10 dv=0
EndChar

StartChar: uni1E0E
Encoding: 7694 7694 46
Width: 660
GlyphClass: 2
Flags: MW
HStem: -138 64<183.5 414 188 414> 0 43<35.5 46 40 46 46 65 40 300> 0 47<253 300> 617 43<40 61.5 216.5 216.5 216.5 257.5>
VStem: 105 111.5<126 534 534 561.5> 516 113<235.5 416>
AnchorPoint: "Anchor-5" 289 660 basechar 0
AnchorPoint: "Anchor-4" 301 0 basechar 0
LayerCount: 2
Fore
SplineSet
276 660 m 2xbc
 486 660 629 535 629 331 c 0
 629 121 501 0 300 0 c 2
 40 0 l 2
 31 0 26 4 26 13 c 2xbc
 26 30 l 2
 26 38 31 43 40 43 c 2
 46 43 l 2
 84 43 105 74 105 126 c 2xdc
 105 534 l 2
 105 589 83 617 40 617 c 0
 31 617 26 622 26 630 c 2
 26 647 l 2
 26 656 31 660 40 660 c 2
 276 660 l 2xbc
216.5 122 m 2
 216.5 76 224.5 47 281.5 47 c 0
 426.5 47 516 140 516 331 c 0
 516 501 428.5 617 257.5 617 c 2
 216.5 617 l 1
 216.5 122 l 2
427 -125 m 2
 427 -133 423 -138 414 -138 c 2
 188 -138 l 2
 179 -138 175 -133 175 -125 c 2
 175 -87 l 2
 175 -78 179 -74 188 -74 c 2
 414 -74 l 2
 423 -74 427 -78 427 -87 c 2
 427 -125 l 2
EndSplineSet
Substitution2: "'c2sc' Capitals to Small Capitals in Latin lookup 11 subtable" uni1E0E.sc
AlternateSubs2: "'aalt' Access All Alternates in Latin lookup 0 subtable" uni1E0E.sc
Position2: "'cpsp' Capital Spacing in Latin lookup 0 subtable" dx=5 dy=0 dh=10 dv=0
EndChar

StartChar: uni01C5
Encoding: 453 453 47
Width: 1125
GlyphClass: 2
Flags: MW
HStem: -12 21G 0 43<35.5 46 40 46 46 65 40 300> 0 47<253 300> 431 20G 497 160 617 43<40 61.5 216.5 216.5 216.5 257.5>
VStem: 516 113<235.5 416> 759 290
AnchorPoint: "Anchor-5" 904 625 basechar 0
AnchorPoint: "Anchor-4" 885 0 basechar 0
LayerCount: 2
Fore
SplineSet
276 660 m 2x97
 486 660 629 535 629 331 c 0
 629 121 501 0 300 0 c 2
 40 0 l 2
 31 0 26 4 26 13 c 2
 26 30 l 2
 26 38 31 43 40 43 c 2
 46 43 l 2x57
 84 43 105 74 105 126 c 2
 105 534 l 2
 105 589 83 617 40 617 c 0
 31 617 26 622 26 630 c 2
 26 647 l 2
 26 656 31 660 40 660 c 2
 276 660 l 2x97
216.5 122 m 2
 216.5 76 224.5 47 281.5 47 c 0x37
 426.5 47 516 140 516 331 c 0
 516 501 428.5 617 257.5 617 c 2
 216.5 617 l 1
 216.5 122 l 2
1109 130 m 2
 1116.20996094 125.83984375 1118.2109375 119.189453125 1114.00097656 111.999023438 c 2
 1046.00097656 -4.0009765625 l 2
 1043.05078125 -9.03125 1039.00097656 -11.0009765625 1035.00097656 -11.0009765625 c 0x97
 1031.00097656 -11.0009765625 1031.12109375 -10.87109375 1023.00097656 -4.0009765625 c 0
 1018.11132812 0.138671875 1013.00097656 -0.0009765625 1007.00097656 -0.0009765625 c 2
 673.000976562 -0.0009765625 l 2x57
 664.000976562 -0.0009765625 660.000976562 3.9990234375 660.000976562 12.9990234375 c 2
 660.000976562 40.9990234375 l 2
 660.000976562 44.9990234375 659.911132812 48.62890625 662.000976562 50.9990234375 c 2
 960.000976562 388.999023438 l 1
 841.170898438 388.999023438 l 2
 783.000976562 388.999023438 744.430664062 364.138671875 714.650390625 312.008789062 c 2
 710.650390625 305.008789062 l 2
 704.98046875 295.088867188 702.450195312 294.12890625 692.650390625 300.008789062 c 2
 676 310.008789062 l 2
 667.830078125 314.909179688 666.98046875 319.909179688 672 327.999023438 c 2
 744 443.999023438 l 2
 746.639648438 448.249023438 750 450.999023438 755 450.999023438 c 0
 758 450.999023438 759.799804688 450.819335938 766 443.999023438 c 0
 769.809570312 439.80859375 776 439.999023438 782 439.999023438 c 2
 1093.06054688 439.999023438 l 2
 1098.20996094 439.999023438 1099 437.12890625 1099 433.12890625 c 0
 1099 430.12890625 1097.78027344 427.19921875 1095 423.999023438 c 2
 771 50.9990234375 l 1
 892.620117188 50.9990234375 l 2
 953.620117188 50.9990234375 1028.15039062 56.5693359375 1072 129.649414062 c 2
 1075 134.649414062 l 2
 1082.56054688 147.259765625 1091.66015625 140 1094 138.650390625 c 2
 1109 130 l 2
904.000976562 569.040039062 m 1
 926.03125 610.559570312 963.321289062 657.170898438 1011.62109375 657.170898438 c 0
 1037.04101562 657.170898438 1048.91113281 632.590820312 1048.91113281 604.630859375 c 0
 1048.91113281 591.920898438 1048.06152344 580.901367188 1038.74121094 576.670898438 c 0
 989.590820312 558.020507812 964.170898438 545.310546875 904.000976562 497.010742188 c 1
 843.831054688 545.310546875 818.411132812 558.020507812 769.260742188 576.670898438 c 0
 759.940429688 580.901367188 759.090820312 591.920898438 759.090820312 604.630859375 c 0
 759.090820312 632.590820312 770.9609375 657.170898438 796.380859375 657.170898438 c 0x9b
 844.680664062 657.170898438 881.970703125 610.560546875 904.000976562 569.040039062 c 1
EndSplineSet
Substitution2: "'c2sc' Capitals to Small Capitals in Latin lookup 11 subtable" uni01C5.sc
AlternateSubs2: "'aalt' Access All Alternates in Latin lookup 0 subtable" uni01C5.sc
Position2: "'cpsp' Capital Spacing in Latin lookup 0 subtable" dx=5 dy=0 dh=10 dv=0
EndChar

StartChar: Eth
Encoding: 208 208 48
Width: 695
GlyphClass: 2
Flags: MW
HStem: 0 43<35.5 46 40 46 46 65 40 300> 0 47<253 300> 287 73<35.5 105 40 105 216.5 401> 617 43<40 61.5 216.5 216.5 216.5 257.5>
VStem: 105 111.5<126 287 360 534 534 561.5> 516 113<235.5 416>
AnchorPoint: "Anchor-5" 289 660 basechar 0
AnchorPoint: "Anchor-4" 301 0 basechar 0
LayerCount: 2
Fore
SplineSet
40 287 m 2x7c
 31 287 26 292 26 300 c 2
 26 346 l 2
 26 355 31 360 40 360 c 2
 105 360 l 1
 105 534 l 2
 105 589 83 617 40 617 c 0
 31 617 26 622 26 630 c 2
 26 647 l 2
 26 656 31 660 40 660 c 2
 276 660 l 2
 486 660 629 535 629 331 c 0
 629 121 501 0 300 0 c 2
 40 0 l 2
 31 0 26 4 26 13 c 2x7c
 26 30 l 2
 26 38 31 43 40 43 c 2
 46 43 l 2
 84 43 105 74 105 126 c 2xbc
 105 287 l 1
 40 287 l 2x7c
216.5 122 m 2
 216.5 76 224.5 47 281.5 47 c 0
 426.5 47 516 140 516 331 c 0
 516 501 428.5 617 257.5 617 c 2
 216.5 617 l 1
 216.5 360 l 1
 401 360 l 2
 410 360 414 355 414 346 c 2
 414 300 l 2
 414 292 410 287 401 287 c 2
 216.5 287 l 1
 216.5 122 l 2
EndSplineSet
Substitution2: "'c2sc' Capitals to Small Capitals in Latin lookup 11 subtable" Eth.sc
AlternateSubs2: "'aalt' Access All Alternates in Latin lookup 0 subtable" Eth.sc
Position2: "'cpsp' Capital Spacing in Latin lookup 0 subtable" dx=5 dy=0 dh=10 dv=0
EndChar

StartChar: E
Encoding: 69 69 49
Width: 644
GlyphClass: 2
Flags: MW
HStem: 0 43<35.5 41 40 41 41 62.5 40 501> 0 52<281.5 348 348 412.5> 325 56<216.5 312 216.5 312> 608 52<216.5 377 216.5 216.5> 616 44<40 62> 651 20G<488.5 492>
VStem: 105 111.5<126 136 136 325 381 533 533 560.5> 386 42<261 266 266 286 440 446>
AnchorPoint: "Anchor-6" 511 0 basechar 0
AnchorPoint: "Anchor-5" 311 660 basechar 0
AnchorPoint: "Anchor-4" 319 0 basechar 0
LayerCount: 2
Fore
SplineSet
619 188.5 m 2x73
 628 184 628 179 624 170 c 2
 541 -4 l 2
 538.5 -10 535 -12 531 -12 c 0
 528 -12 525.5 -11.5 523 -9 c 2
 519 -4 l 2
 515.5 -0.5 512 0 501 0 c 2
 40 0 l 2
 31 0 26 4 26 13 c 2x73
 26 30 l 2
 26 38 32 43 40 43 c 2
 41 43 l 2
 84 43 105 70 105 126 c 2
 105 533 l 2
 105 588 84 616 40 616 c 0
 32 616 26 622 26 630 c 2xab
 26 646 l 2
 26 655 31 660 40 660 c 2
 460 660 l 2x73
 469 660 473 660.5 477 664 c 2
 482 669 l 2
 484 671 487 671 490 671 c 0
 494 671 498 669 501 664 c 2x67
 570 545 l 2
 572 542 573 539 573 537 c 0
 573 532 570 528.5 566 526 c 2
 541 512 l 2
 536 509 534 508 531 508 c 0
 527 508 524 511 521 516 c 2
 518 521 l 2
 477.5 588 445 608 377 608 c 2
 216.5 608 l 1
 216.5 381 l 1
 312 381 l 2
 360 381 386 401 386 440 c 2
 386 446 l 2
 386 455 390 459 399 459 c 2
 415 459 l 2
 424 459 428 455 428 446 c 2
 428 261 l 2
 428 252 424 248 415 248 c 2
 399 248 l 2
 390 248 386 252 386 261 c 2
 386 266 l 2
 386 306 361 325 312 325 c 2
 216.5 325 l 1
 216.5 136 l 2
 216.5 82 242.5 52 281.5 52 c 2
 348 52 l 2
 477 52 523 81.5 576.5 189 c 2
 579.5 195 l 2
 582.5 201.5 590 204.5 598 200 c 2
 619 188.5 l 2x73
EndSplineSet
Substitution2: "'ss04' Style Set 4 in Latin lookup 33 subtable" u1F154
Substitution2: "'ss03' Style Set 3 in Latin lookup 31 subtable" uni24BA
Substitution2: "'c2sc' Capitals to Small Capitals in Latin lookup 11 subtable" E.sc
AlternateSubs2: "'aalt' Access All Alternates in Latin lookup 0 subtable" E.sc uni24BA u1F154
Position2: "'cpsp' Capital Spacing in Latin lookup 0 subtable" dx=5 dy=0 dh=10 dv=0
EndChar

StartChar: Eacute
Encoding: 201 201 50
Width: 644
GlyphClass: 2
Flags: MW
HStem: 0 43<35.5 41 40 41 41 62.5 40 501> 0 52<281.5 348 348 412.5> 325 56<216.5 312 216.5 312> 608 52<216.5 377 216.5 216.5> 616 44<40 62> 651 20G<488.5 492>
VStem: 105 111.5<126 136 136 325 381 533 533 560.5> 386 42<261 266 266 286 440 446>
AnchorPoint: "Anchor-6" 511 0 basechar 0
AnchorPoint: "Anchor-5" 343 899 basechar 0
AnchorPoint: "Anchor-4" 319 0 basechar 0
LayerCount: 2
Fore
SplineSet
619 188.5 m 2x73
 628 184 628 179 624 170 c 2
 541 -4 l 2
 538.5 -10 535 -12 531 -12 c 0
 528 -12 525.5 -11.5 523 -9 c 2
 519 -4 l 2
 515.5 -0.5 512 0 501 0 c 2
 40 0 l 2
 31 0 26 4 26 13 c 2x73
 26 30 l 2
 26 38 32 43 40 43 c 2
 41 43 l 2
 84 43 105 70 105 126 c 2
 105 533 l 2
 105 588 84 616 40 616 c 0
 32 616 26 622 26 630 c 2xab
 26 646 l 2
 26 655 31 660 40 660 c 2
 460 660 l 2x73
 469 660 473 660.5 477 664 c 2
 482 669 l 2
 484 671 487 671 490 671 c 0
 494 671 498 669 501 664 c 2x67
 570 545 l 2
 572 542 573 539 573 537 c 0
 573 532 570 528.5 566 526 c 2
 541 512 l 2
 536 509 534 508 531 508 c 0
 527 508 524 511 521 516 c 2
 518 521 l 2
 477.5 588 445 608 377 608 c 2
 216.5 608 l 1
 216.5 381 l 1
 312 381 l 2
 360 381 386 401 386 440 c 2
 386 446 l 2
 386 455 390 459 399 459 c 2
 415 459 l 2
 424 459 428 455 428 446 c 2
 428 261 l 2
 428 252 424 248 415 248 c 2
 399 248 l 2
 390 248 386 252 386 261 c 2
 386 266 l 2
 386 306 361 325 312 325 c 2
 216.5 325 l 1
 216.5 136 l 2
 216.5 82 242.5 52 281.5 52 c 2
 348 52 l 2
 477 52 523 81.5 576.5 189 c 2
 579.5 195 l 2
 582.5 201.5 590 204.5 598 200 c 2
 619 188.5 l 2x73
248.990234375 729.08984375 m 1
 302.08984375 795.689453125 315.249023438 820.41015625 337.659179688 872.91015625 c 0
 342.349609375 883.240234375 354.51953125 885.220703125 365.899414062 885.220703125 c 0
 396.239257812 885.220703125 415.389648438 871.020507812 415.389648438 843.880859375 c 0
 415.389648438 786.100585938 345.139648438 745.5703125 294.099609375 718.25 c 0
 290.079101562 716.25 285.94921875 714.33984375 282.239257812 714.479492188 c 0
 279.189453125 714.639648438 275.26953125 716.229492188 270.540039062 718.559570312 c 2
 248.990234375 729.08984375 l 1
EndSplineSet
Substitution2: "'c2sc' Capitals to Small Capitals in Latin lookup 11 subtable" Eacute.sc
AlternateSubs2: "'aalt' Access All Alternates in Latin lookup 0 subtable" Eacute.sc
Position2: "'cpsp' Capital Spacing in Latin lookup 0 subtable" dx=5 dy=0 dh=10 dv=0
EndChar

StartChar: Ebreve
Encoding: 276 276 51
Width: 644
GlyphClass: 2
Flags: MW
HStem: 0 43<35.5 41 40 41 41 62.5 40 501> 0 52<281.5 348 348 412.5> 325 56<216.5 312 216.5 312> 608 52<216.5 377 216.5 216.5> 616 44<40 62> 651 20G<488.5 492> 711 56.24
VStem: 105 111.5<126 136 136 325 381 533 533 560.5> 386 42<261 266 266 286 440 446>
AnchorPoint: "Anchor-6" 511 0 basechar 0
AnchorPoint: "Anchor-5" 311 825 basechar 0
AnchorPoint: "Anchor-4" 319 0 basechar 0
LayerCount: 2
Fore
SplineSet
619 188.5 m 2x7380
 628 184 628 179 624 170 c 2
 541 -4 l 2
 538.5 -10 535 -12 531 -12 c 0
 528 -12 525.5 -11.5 523 -9 c 2
 519 -4 l 2
 515.5 -0.5 512 0 501 0 c 2
 40 0 l 2
 31 0 26 4 26 13 c 2x7380
 26 30 l 2
 26 38 32 43 40 43 c 2
 41 43 l 2
 84 43 105 70 105 126 c 2
 105 533 l 2
 105 588 84 616 40 616 c 0
 32 616 26 622 26 630 c 2xab80
 26 646 l 2
 26 655 31 660 40 660 c 2
 460 660 l 2x7380
 469 660 473 660.5 477 664 c 2
 482 669 l 2
 484 671 487 671 490 671 c 0
 494 671 498 669 501 664 c 2x6780
 570 545 l 2
 572 542 573 539 573 537 c 0
 573 532 570 528.5 566 526 c 2
 541 512 l 2
 536 509 534 508 531 508 c 0
 527 508 524 511 521 516 c 2
 518 521 l 2
 477.5 588 445 608 377 608 c 2
 216.5 608 l 1
 216.5 381 l 1
 312 381 l 2
 360 381 386 401 386 440 c 2
 386 446 l 2
 386 455 390 459 399 459 c 2
 415 459 l 2
 424 459 428 455 428 446 c 2
 428 261 l 2
 428 252 424 248 415 248 c 2
 399 248 l 2
 390 248 386 252 386 261 c 2
 386 266 l 2
 386 306 361 325 312 325 c 2
 216.5 325 l 1
 216.5 136 l 2
 216.5 82 242.5 52 281.5 52 c 2
 348 52 l 2
 477 52 523 81.5 576.5 189 c 2
 579.5 195 l 2
 582.5 201.5 590 204.5 598 200 c 2
 619 188.5 l 2x7380
311 711 m 1
 311.118164062 711 l 1
 220.618164062 711 177.028320312 782.83984375 177.028320312 821.740234375 c 0
 177.028320312 831.740234375 182.837890625 835.629882812 192.017578125 836.729492188 c 0
 203.037109375 837.959960938 222.176757812 840.169921875 230.6171875 840.509765625 c 0
 241.147460938 841.169921875 245.017578125 837.599609375 246.297851562 825.94921875 c 0
 251.038085938 789.21875 272.158203125 767.21875 311.05859375 767.21875 c 0
 350.448242188 767.21875 371.568359375 789.21875 376.30859375 825.94921875 c 0
 377.088867188 837.599609375 381.458984375 841.169921875 391.989257812 840.509765625 c 0
 399.9296875 840.169921875 419.58984375 837.959960938 430.099609375 836.729492188 c 0
 439.26953125 835.629882812 445.08984375 831.740234375 445.08984375 821.740234375 c 0
 445.08984375 782.83984375 402 711 311 711 c 1
EndSplineSet
Substitution2: "'c2sc' Capitals to Small Capitals in Latin lookup 11 subtable" Ebreve.sc
AlternateSubs2: "'aalt' Access All Alternates in Latin lookup 0 subtable" Ebreve.sc
Position2: "'cpsp' Capital Spacing in Latin lookup 0 subtable" dx=5 dy=0 dh=10 dv=0
EndChar

StartChar: Ecaron
Encoding: 282 282 52
Width: 644
GlyphClass: 2
Flags: MW
HStem: 0 43<35.5 41 40 41 41 62.5 40 501> 0 52<281.5 348 348 412.5> 325 56<216.5 312 216.5 312> 608 52<216.5 377 216.5 216.5> 616 44<40 62> 651 20G<488.5 492>
VStem: 105 111.5<126 136 136 325 381 533 533 560.5> 386 42<261 266 266 286 440 446>
AnchorPoint: "Anchor-6" 511 0 basechar 0
AnchorPoint: "Anchor-5" 311 845 basechar 0
AnchorPoint: "Anchor-4" 319 0 basechar 0
LayerCount: 2
Fore
SplineSet
619 188.5 m 2x73
 628 184 628 179 624 170 c 2
 541 -4 l 2
 538.5 -10 535 -12 531 -12 c 0
 528 -12 525.5 -11.5 523 -9 c 2
 519 -4 l 2
 515.5 -0.5 512 0 501 0 c 2
 40 0 l 2
 31 0 26 4 26 13 c 2x73
 26 30 l 2
 26 38 32 43 40 43 c 2
 41 43 l 2
 84 43 105 70 105 126 c 2
 105 533 l 2
 105 588 84 616 40 616 c 0
 32 616 26 622 26 630 c 2xab
 26 646 l 2
 26 655 31 660 40 660 c 2
 460 660 l 2x73
 469 660 473 660.5 477 664 c 2
 482 669 l 2
 484 671 487 671 490 671 c 0
 494 671 498 669 501 664 c 2x67
 570 545 l 2
 572 542 573 539 573 537 c 0
 573 532 570 528.5 566 526 c 2
 541 512 l 2
 536 509 534 508 531 508 c 0
 527 508 524 511 521 516 c 2
 518 521 l 2
 477.5 588 445 608 377 608 c 2
 216.5 608 l 1
 216.5 381 l 1
 312 381 l 2
 360 381 386 401 386 440 c 2
 386 446 l 2
 386 455 390 459 399 459 c 2
 415 459 l 2
 424 459 428 455 428 446 c 2
 428 261 l 2
 428 252 424 248 415 248 c 2
 399 248 l 2
 390 248 386 252 386 261 c 2
 386 266 l 2
 386 306 361 325 312 325 c 2
 216.5 325 l 1
 216.5 136 l 2
 216.5 82 242.5 52 281.5 52 c 2
 348 52 l 2
 477 52 523 81.5 576.5 189 c 2
 579.5 195 l 2
 582.5 201.5 590 204.5 598 200 c 2
 619 188.5 l 2x73
311 789.030273438 m 1
 333.01953125 830.540039062 370.298828125 877.139648438 418.598632812 877.139648438 c 0
 444.018554688 877.139648438 455.87890625 852.569335938 455.87890625 824.609375 c 0
 455.87890625 811.899414062 455.0390625 800.889648438 445.71875 796.659179688 c 0
 396.579101562 778.01953125 371.159179688 765.309570312 310.999023438 717.009765625 c 1
 250.829101562 765.309570312 225.409179688 778.01953125 176.26953125 796.659179688 c 0
 166.94921875 800.889648438 166.109375 811.899414062 166.109375 824.609375 c 0
 166.109375 852.569335938 177.969726562 877.139648438 203.389648438 877.139648438 c 0
 251.689453125 877.139648438 288.969726562 830.540039062 311 789.030273438 c 1
EndSplineSet
Substitution2: "'c2sc' Capitals to Small Capitals in Latin lookup 11 subtable" Ecaron.sc
AlternateSubs2: "'aalt' Access All Alternates in Latin lookup 0 subtable" Ecaron.sc
Position2: "'cpsp' Capital Spacing in Latin lookup 0 subtable" dx=5 dy=0 dh=10 dv=0
EndChar

StartChar: uni1E1C
Encoding: 7708 7708 53
Width: 644
GlyphClass: 2
Flags: MW
HStem: -225 51.12 -87.28 41.29 0 43<35.5 41 40 41 41 62.5 40 285.16> 0 52<281.5 285.16> 325 56<216.5 312 216.5 312> 608 52<216.5 377 216.5 216.5> 616 44<40 62> 651 20G<488.5 492> 711 56.24
VStem: 105 111.5<126 136 136 325 381 533 533 560.5> 366.69 67.31 386 42<261 266 266 286 440 446>
AnchorPoint: "Anchor-6" 511 0 basechar 0
AnchorPoint: "Anchor-5" 311 825 basechar 0
AnchorPoint: "Anchor-4" 319 0 basechar 0
LayerCount: 2
Fore
SplineSet
619 188.5 m 2xdcd0
 628 184 628.000976562 179.01953125 624.000976562 170.01953125 c 2
 541.000976562 -3.98046875 l 2
 538.500976562 -9.98046875 535.000976562 -11.98046875 531.000976562 -11.98046875 c 0
 528.000976562 -11.98046875 525.500976562 -11.48046875 523.000976562 -8.98046875 c 2
 519.000976562 -3.98046875 l 2
 515.500976562 -0.48046875 512.000976562 0.01953125 501.000976562 0.01953125 c 2
 338.791015625 0.01953125 l 1
 294.010742188 -52.98046875 l 1
 307.010742188 -47.98046875 321.010742188 -45.98046875 335.010742188 -45.98046875 c 0
 381.010742188 -45.98046875 434.010742188 -71.98046875 434.010742188 -134.98046875 c 0
 434.010742188 -186.98046875 388.010742188 -224.98046875 320.010742188 -224.98046875 c 0
 293.010742188 -224.98046875 263.010742188 -219.98046875 232.010742188 -206.98046875 c 0
 215.010742188 -199.98046875 214.010742188 -186.680664062 214.010742188 -166.87109375 c 0
 214.010742188 -159.87109375 216.331054688 -155.2109375 220.991210938 -155.2109375 c 0
 224.491210938 -155.2109375 227.901367188 -156.571289062 230.311523438 -157.53125 c 0
 254.791992188 -165.69140625 283.591796875 -173.8515625 312.731445312 -173.8515625 c 0
 345.69140625 -173.8515625 366.671875 -160.69140625 366.671875 -136.2109375 c 0
 366.671875 -101.250976562 334.051757812 -87.2705078125 288.591796875 -87.2705078125 c 0
 272.611328125 -87.2705078125 252.791015625 -90.7509765625 239.151367188 -90.7509765625 c 0
 233.331054688 -90.7509765625 229.831054688 -87.2705078125 229.831054688 -82.6005859375 c 0
 229.831054688 -79.1201171875 229.55078125 -76.5703125 232.150390625 -73.2900390625 c 2
 285.16015625 0 l 1
 40 0 l 2
 31 0 26 4 26 13 c 2xdce0
 26 30 l 2
 26 38 32 43 40 43 c 2
 41 43 l 2
 84 43 105 70 105 126 c 2
 105 533 l 2
 105 588 84 616 40 616 c 0
 32 616 26 622 26 630 c 2xead0
 26 646 l 2
 26 655 31 660 40 660 c 2
 460 660 l 2xdcd0
 469 660 473 660.5 477 664 c 2
 482 669 l 2
 484 671 487 671 490 671 c 0
 494 671 498 669 501 664 c 2xd9d0
 570 545 l 2
 572 542 573 539 573 537 c 0
 573 532 570 528.5 566 526 c 2
 541 512 l 2
 536 509 534 508 531 508 c 0
 527 508 524 511 521 516 c 2
 518 521 l 2
 477.5 588 445 608 377 608 c 2
 216.5 608 l 1
 216.5 381 l 1
 312 381 l 2
 360 381 386 401 386 440 c 2
 386 446 l 2
 386 455 390 459 399 459 c 2
 415 459 l 2
 424 459 428 455 428 446 c 2
 428 261 l 2
 428 252 424 248 415 248 c 2
 399 248 l 2
 390 248 386 252 386 261 c 2
 386 266 l 2
 386 306 361 325 312 325 c 2
 216.5 325 l 1
 216.5 136 l 2
 216.5 82 242.5 52 281.5 52 c 2
 348 52 l 2
 477 52 523 81.5 576.5 189 c 2
 579.5 195 l 2
 582.5 201.5 590 204.5 598 200 c 2
 619 188.5 l 2xdcd0
311.000976562 711.01953125 m 1
 311.119140625 711.020507812 l 1
 220.619140625 711.020507812 177.029296875 782.860351562 177.029296875 821.760742188 c 0
 177.029296875 831.760742188 182.838867188 835.650390625 192.018554688 836.75 c 0
 203.038085938 837.979492188 222.177734375 840.189453125 230.618164062 840.529296875 c 0
 241.1484375 841.189453125 245.018554688 837.619140625 246.298828125 825.96875 c 0
 251.0390625 789.23828125 272.159179688 767.23828125 311.059570312 767.23828125 c 0
 350.44921875 767.23828125 371.569335938 789.23828125 376.309570312 825.967773438 c 0
 377.08984375 837.618164062 381.459960938 841.188476562 391.990234375 840.528320312 c 0
 399.930664062 840.188476562 419.590820312 837.978515625 430.100585938 836.749023438 c 0
 439.270507812 835.649414062 445.090820312 831.759765625 445.090820312 821.759765625 c 0
 445.090820312 782.859375 402.000976562 711.01953125 311.000976562 711.01953125 c 1
EndSplineSet
Substitution2: "'c2sc' Capitals to Small Capitals in Latin lookup 11 subtable" uni1E1C.sc
AlternateSubs2: "'aalt' Access All Alternates in Latin lookup 0 subtable" uni1E1C.sc
Position2: "'cpsp' Capital Spacing in Latin lookup 0 subtable" dx=5 dy=0 dh=10 dv=0
EndChar

StartChar: Ecircumflex
Encoding: 202 202 54
Width: 644
GlyphClass: 2
Flags: MW
HStem: 0 43<35.5 41 40 41 41 62.5 40 501> 0 52<281.5 348 348 412.5> 325 56<216.5 312 216.5 312> 608 52<216.5 377 216.5 216.5> 616 44<40 62> 651 20G<488.5 492>
VStem: 105 111.5<126 136 136 325 381 533 533 560.5> 386 42<261 266 266 286 440 446>
AnchorPoint: "Anchor-7" 311 777 basechar 0
AnchorPoint: "Anchor-6" 511 0 basechar 0
AnchorPoint: "Anchor-5" 311 833 basechar 0
AnchorPoint: "Anchor-4" 319 0 basechar 0
LayerCount: 2
Fore
SplineSet
619 188.5 m 2x73
 628 184 628 179 624 170 c 2
 541 -4 l 2
 538.5 -10 535 -12 531 -12 c 0
 528 -12 525.5 -11.5 523 -9 c 2
 519 -4 l 2
 515.5 -0.5 512 0 501 0 c 2
 40 0 l 2
 31 0 26 4 26 13 c 2x73
 26 30 l 2
 26 38 32 43 40 43 c 2
 41 43 l 2
 84 43 105 70 105 126 c 2
 105 533 l 2
 105 588 84 616 40 616 c 0
 32 616 26 622 26 630 c 2xab
 26 646 l 2
 26 655 31 660 40 660 c 2
 460 660 l 2x73
 469 660 473 660.5 477 664 c 2
 482 669 l 2
 484 671 487 671 490 671 c 0
 494 671 498 669 501 664 c 2x67
 570 545 l 2
 572 542 573 539 573 537 c 0
 573 532 570 528.5 566 526 c 2
 541 512 l 2
 536 509 534 508 531 508 c 0
 527 508 524 511 521 516 c 2
 518 521 l 2
 477.5 588 445 608 377 608 c 2
 216.5 608 l 1
 216.5 381 l 1
 312 381 l 2
 360 381 386 401 386 440 c 2
 386 446 l 2
 386 455 390 459 399 459 c 2
 415 459 l 2
 424 459 428 455 428 446 c 2
 428 261 l 2
 428 252 424 248 415 248 c 2
 399 248 l 2
 390 248 386 252 386 261 c 2
 386 266 l 2
 386 306 361 325 312 325 c 2
 216.5 325 l 1
 216.5 136 l 2
 216.5 82 242.5 52 281.5 52 c 2
 348 52 l 2
 477 52 523 81.5 576.5 189 c 2
 579.5 195 l 2
 582.5 201.5 590 204.5 598 200 c 2
 619 188.5 l 2x73
311 800.950195312 m 1
 288.969726562 759.440429688 251.690429688 712.840820312 203.390625 712.840820312 c 0
 177.970703125 712.840820312 166.110351562 737.411132812 166.110351562 765.37109375 c 0
 166.110351562 778.081054688 166.950195312 789.090820312 176.270507812 793.331054688 c 0
 225.41015625 811.9609375 250.830078125 824.670898438 311 872.970703125 c 1
 371.16015625 824.670898438 396.580078125 811.9609375 445.719726562 793.331054688 c 0
 455.040039062 789.090820312 455.879882812 778.081054688 455.879882812 765.37109375 c 0
 455.879882812 737.411132812 444.01953125 712.840820312 418.599609375 712.840820312 c 0
 370.299804688 712.840820312 333.01953125 759.440429688 311 800.950195312 c 1
EndSplineSet
Substitution2: "'c2sc' Capitals to Small Capitals in Latin lookup 11 subtable" Ecircumflex.sc
AlternateSubs2: "'aalt' Access All Alternates in Latin lookup 0 subtable" Ecircumflex.sc
Position2: "'cpsp' Capital Spacing in Latin lookup 0 subtable" dx=5 dy=0 dh=10 dv=0
EndChar

StartChar: uni1EBE
Encoding: 7870 7870 55
Width: 644
GlyphClass: 2
Flags: MW
HStem: 0 43<35.5 41 40 41 41 62.5 40 501> 0 52<281.5 348 348 412.5> 325 56<216.5 312 216.5 312> 608 52<216.5 377 216.5 216.5> 616 44<40 62> 651 20G<488.5 492>
VStem: 105 111.5<126 136 136 325 381 533 533 560.5> 386 42<261 266 266 286 440 446>
AnchorPoint: "Anchor-7" 488 1021 basechar 0
AnchorPoint: "Anchor-6" 511 0 basechar 0
AnchorPoint: "Anchor-5" 311 833 basechar 0
AnchorPoint: "Anchor-4" 319 0 basechar 0
LayerCount: 2
Fore
SplineSet
619 188.5 m 2x73
 628 184 628 179 624 170 c 2
 541 -4 l 2
 538.5 -10 535 -12 531 -12 c 0
 528 -12 525.5 -11.5 523 -9 c 2
 519 -4 l 2
 515.5 -0.5 512 0 501 0 c 2
 40 0 l 2
 31 0 26 4 26 13 c 2x73
 26 30 l 2
 26 38 32 43 40 43 c 2
 41 43 l 2
 84 43 105 70 105 126 c 2
 105 533 l 2
 105 588 84 616 40 616 c 0
 32 616 26 622 26 630 c 2xab
 26 646 l 2
 26 655 31 660 40 660 c 2
 460 660 l 2x73
 469 660 473 660.5 477 664 c 2
 482 669 l 2
 484 671 487 671 490 671 c 0
 494 671 498 669 501 664 c 2x67
 570 545 l 2
 572 542 573 539 573 537 c 0
 573 532 570 528.5 566 526 c 2
 541 512 l 2
 536 509 534 508 531 508 c 0
 527 508 524 511 521 516 c 2
 518 521 l 2
 477.5 588 445 608 377 608 c 2
 216.5 608 l 1
 216.5 381 l 1
 312 381 l 2
 360 381 386 401 386 440 c 2
 386 446 l 2
 386 455 390 459 399 459 c 2
 415 459 l 2
 424 459 428 455 428 446 c 2
 428 261 l 2
 428 252 424 248 415 248 c 2
 399 248 l 2
 390 248 386 252 386 261 c 2
 386 266 l 2
 386 306 361 325 312 325 c 2
 216.5 325 l 1
 216.5 136 l 2
 216.5 82 242.5 52 281.5 52 c 2
 348 52 l 2
 477 52 523 81.5 576.5 189 c 2
 579.5 195 l 2
 582.5 201.5 590 204.5 598 200 c 2
 619 188.5 l 2x73
311 800.950195312 m 1
 288.969726562 759.440429688 251.690429688 712.840820312 203.390625 712.840820312 c 0
 177.970703125 712.840820312 166.110351562 737.411132812 166.110351562 765.37109375 c 0
 166.110351562 778.081054688 166.950195312 789.090820312 176.270507812 793.331054688 c 0
 225.41015625 811.9609375 250.830078125 824.670898438 311 872.970703125 c 1
 371.16015625 824.670898438 396.580078125 811.9609375 445.719726562 793.331054688 c 0
 455.040039062 789.090820312 455.879882812 778.081054688 455.879882812 765.37109375 c 0
 455.879882812 737.411132812 444.01953125 712.840820312 418.599609375 712.840820312 c 0
 370.299804688 712.840820312 333.01953125 759.440429688 311 800.950195312 c 1
393.840820312 850.860351562 m 1
 446.940429688 917.459960938 460.100585938 942.190429688 482.510742188 994.690429688 c 0
 487.201171875 1005.02050781 499.37109375 1007.01074219 510.741210938 1007.01074219 c 0
 541.090820312 1007.01074219 560.23046875 992.80078125 560.23046875 965.661132812 c 0
 560.23046875 907.880859375 490.000976562 867.331054688 438.951171875 840.021484375 c 0
 434.920898438 838.03125 430.810546875 836.12109375 427.090820312 836.241210938 c 0
 424.041015625 836.411132812 420.12109375 838.010742188 415.390625 840.340820312 c 2
 393.840820312 850.860351562 l 1
EndSplineSet
Substitution2: "'c2sc' Capitals to Small Capitals in Latin lookup 11 subtable" uni1EBE.sc
AlternateSubs2: "'aalt' Access All Alternates in Latin lookup 0 subtable" uni1EBE.sc
Position2: "'cpsp' Capital Spacing in Latin lookup 0 subtable" dx=5 dy=0 dh=10 dv=0
EndChar

StartChar: uni1EC6
Encoding: 7878 7878 56
Width: 644
GlyphClass: 2
Flags: MW
HStem: -190.48 137.66 1.52588e-05 43 1.52588e-05 52 325 56 608 52 616 44 651 20G
VStem: 105 111.5<126 136 136 325 381 533 533 560.5> 250.15 138.7 386 42
AnchorPoint: "Anchor-7" 311 777 basechar 0
AnchorPoint: "Anchor-6" 511 0 basechar 0
AnchorPoint: "Anchor-5" 311 833 basechar 0
AnchorPoint: "Anchor-4" 319 0 basechar 0
LayerCount: 2
Fore
SplineSet
619 188.5 m 2x3940
 628 184 628 179 624 170 c 2
 541 -4 l 2
 538.5 -10 535 -12 531 -12 c 0
 528 -12 525.5 -11.5 523 -9 c 2
 519 -4 l 2
 515.5 -0.5 512 0 501 0 c 2
 40 0 l 2
 31 0 26 4 26 13 c 2x3940
 26 30 l 2
 26 38 32 43 40 43 c 2
 41 43 l 2
 84 43 105 70 105 126 c 2
 105 533 l 2
 105 588 84 616 40 616 c 0
 32 616 26 622 26 630 c 2x5540
 26 646 l 2
 26 655 31 660 40 660 c 2
 460 660 l 2x3940
 469 660 473 660.5 477 664 c 2
 482 669 l 2
 484 671 487 671 490 671 c 0
 494 671 498 669 501 664 c 2x3340
 570 545 l 2
 572 542 573 539 573 537 c 0
 573 532 570 528.5 566 526 c 2
 541 512 l 2
 536 509 534 508 531 508 c 0
 527 508 524 511 521 516 c 2
 518 521 l 2
 477.5 588 445 608 377 608 c 2
 216.5 608 l 1
 216.5 381 l 1
 312 381 l 2
 360 381 386 401 386 440 c 2
 386 446 l 2
 386 455 390 459 399 459 c 2
 415 459 l 2
 424 459 428 455 428 446 c 2
 428 261 l 2
 428 252 424 248 415 248 c 2
 399 248 l 2
 390 248 386 252 386 261 c 2
 386 266 l 2
 386 306 361 325 312 325 c 2
 216.5 325 l 1
 216.5 136 l 2
 216.5 82 242.5 52 281.5 52 c 2
 348 52 l 2
 477 52 523 81.5 576.5 189 c 2
 579.5 195 l 2
 582.5 201.5 590 204.5 598 200 c 2
 619 188.5 l 2x3940
318.98046875 -52.8203125 m 0xb980
 335.650390625 -52.8203125 349.220703125 -59.0703125 365.900390625 -75.7607421875 c 0
 382.580078125 -92.4404296875 388.830078125 -104.950195312 388.830078125 -121.629882812 c 0
 388.830078125 -138.309570312 381.530273438 -151.859375 365.890625 -167.499023438 c 0
 349.2109375 -184.178710938 335.651367188 -190.438476562 318.981445312 -190.438476562 c 0
 303.3515625 -190.438476562 290.831054688 -184.178710938 273.111328125 -167.499023438 c 0
 256.431640625 -151.859375 250.181640625 -138.309570312 250.181640625 -121.629882812 c 0
 250.181640625 -104.950195312 256.431640625 -92.4404296875 273.111328125 -75.7607421875 c 0
 289.791015625 -59.0703125 303.350585938 -52.8203125 318.98046875 -52.8203125 c 0xb980
311.021484375 800.959960938 m 1
 288.991210938 759.450195312 251.711914062 712.850585938 203.412109375 712.850585938 c 0
 177.9921875 712.850585938 166.131835938 737.420898438 166.131835938 765.380859375 c 0
 166.131835938 778.090820312 166.971679688 789.100585938 176.291992188 793.340820312 c 0
 225.431640625 811.970703125 250.8515625 824.680664062 311.021484375 872.98046875 c 1
 371.181640625 824.680664062 396.6015625 811.970703125 445.741210938 793.340820312 c 0
 455.061523438 789.100585938 455.901367188 778.090820312 455.901367188 765.380859375 c 0
 455.901367188 737.420898438 444.041015625 712.850585938 418.62109375 712.850585938 c 0
 370.321289062 712.850585938 333.041015625 759.450195312 311.021484375 800.959960938 c 1
EndSplineSet
Substitution2: "'c2sc' Capitals to Small Capitals in Latin lookup 11 subtable" uni1EC6.sc
AlternateSubs2: "'aalt' Access All Alternates in Latin lookup 0 subtable" uni1EC6.sc
Position2: "'cpsp' Capital Spacing in Latin lookup 0 subtable" dx=5 dy=0 dh=10 dv=0
EndChar

StartChar: uni1EC0
Encoding: 7872 7872 57
Width: 644
GlyphClass: 2
Flags: MW
HStem: 0 43<35.5 41 40 41 41 62.5 40 501> 0 52<281.5 348 348 412.5> 325 56<216.5 312 216.5 312> 608 52<216.5 377 216.5 216.5> 616 44<40 62> 651 20G<488.5 492>
VStem: 105 111.5<126 136 136 325 381 533 533 560.5> 386 42<261 266 266 286 440 446>
AnchorPoint: "Anchor-7" 143 1021 basechar 0
AnchorPoint: "Anchor-6" 511 0 basechar 0
AnchorPoint: "Anchor-5" 311 833 basechar 0
AnchorPoint: "Anchor-4" 319 0 basechar 0
LayerCount: 2
Fore
SplineSet
619 188.5 m 2x73
 628 184 628 179 624 170 c 2
 541 -4 l 2
 538.5 -10 535 -12 531 -12 c 0
 528 -12 525.5 -11.5 523 -9 c 2
 519 -4 l 2
 515.5 -0.5 512 0 501 0 c 2
 40 0 l 2
 31 0 26 4 26 13 c 2x73
 26 30 l 2
 26 38 32 43 40 43 c 2
 41 43 l 2
 84 43 105 70 105 126 c 2
 105 533 l 2
 105 588 84 616 40 616 c 0
 32 616 26 622 26 630 c 2xab
 26 646 l 2
 26 655 31 660 40 660 c 2
 460 660 l 2x73
 469 660 473 660.5 477 664 c 2
 482 669 l 2
 484 671 487 671 490 671 c 0
 494 671 498 669 501 664 c 2x67
 570 545 l 2
 572 542 573 539 573 537 c 0
 573 532 570 528.5 566 526 c 2
 541 512 l 2
 536 509 534 508 531 508 c 0
 527 508 524 511 521 516 c 2
 518 521 l 2
 477.5 588 445 608 377 608 c 2
 216.5 608 l 1
 216.5 381 l 1
 312 381 l 2
 360 381 386 401 386 440 c 2
 386 446 l 2
 386 455 390 459 399 459 c 2
 415 459 l 2
 424 459 428 455 428 446 c 2
 428 261 l 2
 428 252 424 248 415 248 c 2
 399 248 l 2
 390 248 386 252 386 261 c 2
 386 266 l 2
 386 306 361 325 312 325 c 2
 216.5 325 l 1
 216.5 136 l 2
 216.5 82 242.5 52 281.5 52 c 2
 348 52 l 2
 477 52 523 81.5 576.5 189 c 2
 579.5 195 l 2
 582.5 201.5 590 204.5 598 200 c 2
 619 188.5 l 2x73
311 800.950195312 m 1
 288.969726562 759.440429688 251.690429688 712.840820312 203.390625 712.840820312 c 0
 177.970703125 712.840820312 166.110351562 737.411132812 166.110351562 765.37109375 c 0
 166.110351562 778.081054688 166.950195312 789.090820312 176.270507812 793.331054688 c 0
 225.41015625 811.9609375 250.830078125 824.670898438 311 872.970703125 c 1
 371.16015625 824.670898438 396.580078125 811.9609375 445.719726562 793.331054688 c 0
 455.040039062 789.090820312 455.879882812 778.081054688 455.879882812 765.37109375 c 0
 455.879882812 737.411132812 444.01953125 712.840820312 418.599609375 712.840820312 c 0
 370.299804688 712.840820312 333.01953125 759.440429688 311 800.950195312 c 1
215.041015625 840.330078125 m 2
 210.310546875 838 206.389648438 836.360351562 203.33984375 836.190429688 c 0
 199.629882812 836.0703125 195.5 837.98046875 191.48046875 839.970703125 c 0
 140.440429688 867.280273438 70.1904296875 907.830078125 70.1904296875 965.610351562 c 0
 70.1904296875 992.75 89.3408203125 1006.95996094 119.680664062 1006.95996094 c 0
 131.060546875 1006.95996094 143.23046875 1004.96972656 147.920898438 994.639648438 c 0
 170.331054688 942.139648438 183.500976562 917.44921875 236.590820312 850.849609375 c 1
 215.041015625 840.330078125 l 2
EndSplineSet
Substitution2: "'c2sc' Capitals to Small Capitals in Latin lookup 11 subtable" uni1EC0.sc
AlternateSubs2: "'aalt' Access All Alternates in Latin lookup 0 subtable" uni1EC0.sc
Position2: "'cpsp' Capital Spacing in Latin lookup 0 subtable" dx=5 dy=0 dh=10 dv=0
EndChar

StartChar: uni1EC2
Encoding: 7874 7874 58
Width: 644
GlyphClass: 2
Flags: MW
HStem: 0 43<35.5 41 40 41 41 62.5 40 501> 0 52<281.5 348 348 412.5> 325 56<216.5 312 216.5 312> 608 52<216.5 377 216.5 216.5> 616 44<40 62> 651 20G<488.5 492> 933 81.27 946 68.27
VStem: 105 111.5<126 136 136 325 381 533 533 560.5> 386 42<261 266 266 286 440 446> 422.19 59.31
AnchorPoint: "Anchor-7" 412 1068 basechar 0
AnchorPoint: "Anchor-6" 511 0 basechar 0
AnchorPoint: "Anchor-5" 311 833 basechar 0
AnchorPoint: "Anchor-4" 319 0 basechar 0
LayerCount: 2
Fore
SplineSet
619 188.5 m 2x70c0
 628 184 628 179 624 170 c 2
 541 -4 l 2
 538.5 -10 535 -12 531 -12 c 0
 528 -12 525.5 -11.5 523 -9 c 2
 519 -4 l 2
 515.5 -0.5 512 0 501 0 c 2
 40 0 l 2
 31 0 26 4 26 13 c 2x70c0
 26 30 l 2
 26 38 32 43 40 43 c 2
 41 43 l 2
 84 43 105 70 105 126 c 2
 105 533 l 2
 105 588 84 616 40 616 c 0
 32 616 26 622 26 630 c 2xa8c0
 26 646 l 2
 26 655 31 660 40 660 c 2
 460 660 l 2x70c0
 469 660 473 660.5 477 664 c 2
 482 669 l 2
 484 671 487 671 490 671 c 0
 494 671 498 669 501 664 c 2x64c0
 570 545 l 2
 572 542 573 539 573 537 c 0
 573 532 570 528.5 566 526 c 2
 541 512 l 2
 536 509 534 508 531 508 c 0
 527 508 524 511 521 516 c 2
 518 521 l 2
 477.5 588 445 608 377 608 c 2
 216.5 608 l 1
 216.5 381 l 1
 312 381 l 2
 360 381 386 401 386 440 c 2
 386 446 l 2
 386 455 390 459 399 459 c 2
 415 459 l 2
 424 459 428 455 428 446 c 2
 428 261 l 2
 428 252 424 248 415 248 c 2
 399 248 l 2
 390 248 386 252 386 261 c 2
 386 266 l 2
 386 306 361 325 312 325 c 2
 216.5 325 l 1
 216.5 136 l 2
 216.5 82 242.5 52 281.5 52 c 2
 348 52 l 2
 477 52 523 81.5 576.5 189 c 2
 579.5 195 l 2
 582.5 201.5 590 204.5 598 200 c 2
 619 188.5 l 2x70c0
311 800.950195312 m 1
 288.969726562 759.440429688 251.690429688 712.840820312 203.390625 712.840820312 c 0
 177.970703125 712.840820312 166.110351562 737.411132812 166.110351562 765.37109375 c 0
 166.110351562 778.081054688 166.950195312 789.090820312 176.270507812 793.331054688 c 0
 225.41015625 811.9609375 250.830078125 824.670898438 311 872.970703125 c 1
 371.16015625 824.670898438 396.580078125 811.9609375 445.719726562 793.331054688 c 0
 455.040039062 789.090820312 455.879882812 778.081054688 455.879882812 765.37109375 c 0
 455.879882812 737.411132812 444.01953125 712.840820312 418.599609375 712.840820312 c 0
 370.299804688 712.840820312 333.01953125 759.440429688 311 800.950195312 c 1
443.571289062 839.690429688 m 0x72a0
 433.791015625 826.880859375 392.483398438 850.650390625 400.153320312 861.629882812 c 0
 410.7734375 877.459960938 422.18359375 891.620117188 422.18359375 913.530273438 c 0
 422.18359375 939.48046875 407.903320312 945.98046875 394.153320312 945.98046875 c 0
 373.54296875 945.98046875 358.762695312 925.870117188 352.692382812 935.8203125 c 0x71a0
 343.952148438 950.240234375 335.381835938 964.470703125 336.401367188 981.380859375 c 0
 336.87109375 993.090820312 373.510742188 1014.23046875 406.000976562 1014.23046875 c 0
 462.840820312 1014.23046875 481.491210938 969.720703125 481.491210938 933.740234375 c 0
 481.491210938 903.520507812 467.581054688 870.400390625 443.571289062 839.690429688 c 0x72a0
EndSplineSet
Substitution2: "'c2sc' Capitals to Small Capitals in Latin lookup 11 subtable" uni1EC2.sc
AlternateSubs2: "'aalt' Access All Alternates in Latin lookup 0 subtable" uni1EC2.sc
Position2: "'cpsp' Capital Spacing in Latin lookup 0 subtable" dx=5 dy=0 dh=10 dv=0
EndChar

StartChar: uni1EC4
Encoding: 7876 7876 59
Width: 644
GlyphClass: 2
Flags: MW
HStem: 0 43<35.5 41 40 41 41 62.5 40 501> 0 52<281.5 348 348 412.5> 325 56<216.5 312 216.5 312> 608 52<216.5 377 216.5 216.5> 616 44<40 62> 651 20G<488.5 492> 893.72 59 977.72 58
VStem: 105 111.5<126 136 136 325 381 533 533 560.5> 165.5 63 386 42<261 266 266 286 440 446> 393.5 63
AnchorPoint: "Anchor-7" 311 777 basechar 0
AnchorPoint: "Anchor-6" 511 0 basechar 0
AnchorPoint: "Anchor-5" 311 1018 basechar 0
AnchorPoint: "Anchor-4" 319 0 basechar 0
LayerCount: 2
Fore
SplineSet
619 188.5 m 2x70a0
 628 184 628 179 624 170 c 2
 541 -4 l 2
 538.5 -10 535 -12 531 -12 c 0
 528 -12 525.5 -11.5 523 -9 c 2
 519 -4 l 2
 515.5 -0.5 512 0 501 0 c 2
 40 0 l 2
 31 0 26 4 26 13 c 2x70a0
 26 30 l 2
 26 38 32 43 40 43 c 2
 41 43 l 2
 84 43 105 70 105 126 c 2
 105 533 l 2
 105 588 84 616 40 616 c 0
 32 616 26 622 26 630 c 2xa8a0
 26 646 l 2
 26 655 31 660 40 660 c 2
 460 660 l 2x70a0
 469 660 473 660.5 477 664 c 2
 482 669 l 2
 484 671 487 671 490 671 c 0
 494 671 498 669 501 664 c 2x64a0
 570 545 l 2
 572 542 573 539 573 537 c 0
 573 532 570 528.5 566 526 c 2
 541 512 l 2
 536 509 534 508 531 508 c 0
 527 508 524 511 521 516 c 2
 518 521 l 2
 477.5 588 445 608 377 608 c 2
 216.5 608 l 1
 216.5 381 l 1
 312 381 l 2
 360 381 386 401 386 440 c 2
 386 446 l 2
 386 455 390 459 399 459 c 2
 415 459 l 2
 424 459 428 455 428 446 c 2
 428 261 l 2
 428 252 424 248 415 248 c 2
 399 248 l 2
 390 248 386 252 386 261 c 2
 386 266 l 2
 386 306 361 325 312 325 c 2
 216.5 325 l 1
 216.5 136 l 2
 216.5 82 242.5 52 281.5 52 c 2
 348 52 l 2
 477 52 523 81.5 576.5 189 c 2
 579.5 195 l 2
 582.5 201.5 590 204.5 598 200 c 2
 619 188.5 l 2x70a0
311 800.950195312 m 1
 288.969726562 759.440429688 251.690429688 712.840820312 203.390625 712.840820312 c 0
 177.970703125 712.840820312 166.110351562 737.411132812 166.110351562 765.37109375 c 0
 166.110351562 778.081054688 166.950195312 789.090820312 176.270507812 793.331054688 c 0
 225.41015625 811.9609375 250.830078125 824.670898438 311 872.970703125 c 1
 371.16015625 824.670898438 396.580078125 811.9609375 445.719726562 793.331054688 c 0
 455.040039062 789.090820312 455.879882812 778.081054688 455.879882812 765.37109375 c 0
 455.879882812 737.411132812 444.01953125 712.840820312 418.599609375 712.840820312 c 0
 370.299804688 712.840820312 333.01953125 759.440429688 311 800.950195312 c 1
332.760742188 980.740234375 m 0x7160
 345.9609375 960.330078125 356.270507812 952.721679688 368.970703125 952.721679688 c 0
 384.970703125 952.721679688 393.470703125 965.571289062 393.470703125 981.2109375 c 0
 393.470703125 992.581054688 390.900390625 1004.40136719 382.870117188 1016.82128906 c 1
 392.030273438 1025.72167969 407.169921875 1036.68164062 420.969726562 1036.68164062 c 0
 435.08984375 1036.68164062 456.459960938 1008.90136719 456.459960938 977.19140625 c 0
 456.459960938 925.271484375 418.780273438 893.701171875 378.970703125 893.701171875 c 0x7290
 322.87109375 893.701171875 303.141601562 924.771484375 289.361328125 948.401367188 c 0
 277.381835938 969.971679688 266.69140625 977.681640625 254.000976562 977.681640625 c 0
 238.000976562 977.681640625 228.500976562 962.881835938 228.500976562 948.19140625 c 0
 228.500976562 936.611328125 231.920898438 924.811523438 240.010742188 912.53125 c 1
 230.840820312 903.661132812 215.630859375 892.720703125 201.010742188 892.720703125 c 0
 187.360351562 892.720703125 165.520507812 920.810546875 165.520507812 951.2109375 c 0
 165.520507812 1004.06054688 204.130859375 1035.70019531 244.010742188 1035.70019531 c 0
 299.170898438 1035.70019531 319.770507812 1002.70996094 332.760742188 980.740234375 c 0x7160
EndSplineSet
Substitution2: "'c2sc' Capitals to Small Capitals in Latin lookup 11 subtable" uni1EC4.sc
AlternateSubs2: "'aalt' Access All Alternates in Latin lookup 0 subtable" uni1EC4.sc
Position2: "'cpsp' Capital Spacing in Latin lookup 0 subtable" dx=5 dy=0 dh=10 dv=0
EndChar

StartChar: uni0204
Encoding: 516 516 60
Width: 644
GlyphClass: 2
Flags: MW
HStem: 0 43<35.5 41 40 41 41 62.5 40 501> 0 52<281.5 348 348 412.5> 325 56<216.5 312 216.5 312> 608 52<216.5 377 216.5 216.5> 616 44<40 62> 651 20G<488.5 492>
VStem: 105 111.5<126 136 136 325 381 533 533 560.5> 386 42<261 266 266 286 440 446>
AnchorPoint: "Anchor-6" 511 0 basechar 0
AnchorPoint: "Anchor-5" 311 899 basechar 0
AnchorPoint: "Anchor-4" 319 0 basechar 0
LayerCount: 2
Fore
SplineSet
619 188.5 m 2x73
 628 184 628 179 624 170 c 2
 541 -4 l 2
 538.5 -10 535 -12 531 -12 c 0
 528 -12 525.5 -11.5 523 -9 c 2
 519 -4 l 2
 515.5 -0.5 512 0 501 0 c 2
 40 0 l 2
 31 0 26 4 26 13 c 2x73
 26 30 l 2
 26 38 32 43 40 43 c 2
 41 43 l 2
 84 43 105 70 105 126 c 2
 105 533 l 2
 105 588 84 616 40 616 c 0
 32 616 26 622 26 630 c 2xab
 26 646 l 2
 26 655 31 660 40 660 c 2
 460 660 l 2x73
 469 660 473 660.5 477 664 c 2
 482 669 l 2
 484 671 487 671 490 671 c 0
 494 671 498 669 501 664 c 2x67
 570 545 l 2
 572 542 573 539 573 537 c 0
 573 532 570 528.5 566 526 c 2
 541 512 l 2
 536 509 534 508 531 508 c 0
 527 508 524 511 521 516 c 2
 518 521 l 2
 477.5 588 445 608 377 608 c 2
 216.5 608 l 1
 216.5 381 l 1
 312 381 l 2
 360 381 386 401 386 440 c 2
 386 446 l 2
 386 455 390 459 399 459 c 2
 415 459 l 2
 424 459 428 455 428 446 c 2
 428 261 l 2
 428 252 424 248 415 248 c 2
 399 248 l 2
 390 248 386 252 386 261 c 2
 386 266 l 2
 386 306 361 325 312 325 c 2
 216.5 325 l 1
 216.5 136 l 2
 216.5 82 242.5 52 281.5 52 c 2
 348 52 l 2
 477 52 523 81.5 576.5 189 c 2
 579.5 195 l 2
 582.5 201.5 590 204.5 598 200 c 2
 619 188.5 l 2x73
469.799804688 718.559570312 m 2
 465.069335938 716.229492188 461.161132812 714.608398438 458.12109375 714.448242188 c 0
 454.390625 714.30859375 450.270507812 716.21875 446.240234375 718.21875 c 0
 395.209960938 745.5390625 324.959960938 786.069335938 324.959960938 843.849609375 c 0
 324.959960938 870.989257812 344.099609375 885.189453125 374.44921875 885.189453125 c 0
 385.819335938 885.189453125 397.989257812 883.209960938 402.689453125 872.879882812 c 0
 425.099609375 820.379882812 438.259765625 795.689453125 491.359375 729.08984375 c 1
 469.799804688 718.559570312 l 2
297.201171875 718.528320312 m 2
 292.481445312 716.198242188 288.541992188 714.577148438 285.4921875 714.416992188 c 0
 281.782226562 714.27734375 277.662109375 716.1875 273.631835938 718.1875 c 0
 222.58203125 745.5078125 152.3515625 786.038085938 152.3515625 843.818359375 c 0
 152.3515625 870.958007812 171.491210938 885.158203125 201.840820312 885.158203125 c 0
 213.2109375 885.158203125 225.380859375 883.178710938 230.081054688 872.848632812 c 0
 252.491210938 820.348632812 265.651367188 795.658203125 318.750976562 729.05859375 c 1
 297.201171875 718.528320312 l 2
EndSplineSet
Substitution2: "'c2sc' Capitals to Small Capitals in Latin lookup 11 subtable" uni0204.sc
AlternateSubs2: "'aalt' Access All Alternates in Latin lookup 0 subtable" uni0204.sc
Position2: "'cpsp' Capital Spacing in Latin lookup 0 subtable" dx=5 dy=0 dh=10 dv=0
EndChar

StartChar: Edieresis
Encoding: 203 203 61
Width: 644
GlyphClass: 2
Flags: MW
HStem: 0 43<35.5 41 40 41 41 62.5 40 501> 0 52<281.5 348 348 412.5> 325 56<216.5 312 216.5 312> 608 52<216.5 377 216.5 216.5> 616 44<40 62> 651 20G<488.5 492> 716.17 137.66
VStem: 105 111.5<126 136 136 325 381 533 533 560.5> 139.55 138.7 344.55 138.7 386 42<261 266 266 286 440 446>
AnchorPoint: "Anchor-6" 511 0 basechar 0
AnchorPoint: "Anchor-5" 311 845 basechar 0
AnchorPoint: "Anchor-4" 319 0 basechar 0
LayerCount: 2
Fore
SplineSet
619 188.5 m 2x7120
 628 184 628 179 624 170 c 2
 541 -4 l 2
 538.5 -10 535 -12 531 -12 c 0
 528 -12 525.5 -11.5 523 -9 c 2
 519 -4 l 2
 515.5 -0.5 512 0 501 0 c 2
 40 0 l 2
 31 0 26 4 26 13 c 2x7120
 26 30 l 2
 26 38 32 43 40 43 c 2
 41 43 l 2
 84 43 105 70 105 126 c 2
 105 533 l 2
 105 588 84 616 40 616 c 0
 32 616 26 622 26 630 c 2xa920
 26 646 l 2
 26 655 31 660 40 660 c 2
 460 660 l 2x7120
 469 660 473 660.5 477 664 c 2
 482 669 l 2
 484 671 487 671 490 671 c 0
 494 671 498 669 501 664 c 2x6520
 570 545 l 2
 572 542 573 539 573 537 c 0
 573 532 570 528.5 566 526 c 2
 541 512 l 2
 536 509 534 508 531 508 c 0
 527 508 524 511 521 516 c 2
 518 521 l 2
 477.5 588 445 608 377 608 c 2
 216.5 608 l 1
 216.5 381 l 1
 312 381 l 2
 360 381 386 401 386 440 c 2
 386 446 l 2
 386 455 390 459 399 459 c 2
 415 459 l 2
 424 459 428 455 428 446 c 2
 428 261 l 2
 428 252 424 248 415 248 c 2
 399 248 l 2
 390 248 386 252 386 261 c 2
 386 266 l 2
 386 306 361 325 312 325 c 2
 216.5 325 l 1
 216.5 136 l 2
 216.5 82 242.5 52 281.5 52 c 2
 348 52 l 2
 477 52 523 81.5 576.5 189 c 2
 579.5 195 l 2
 582.5 201.5 590 204.5 598 200 c 2
 619 188.5 l 2x7120
208.379882812 853.8203125 m 0x72c0
 225.059570312 853.8203125 238.608398438 847.560546875 255.298828125 830.890625 c 0
 271.989257812 814.2109375 278.239257812 801.701171875 278.239257812 785.021484375 c 0
 278.239257812 768.331054688 270.939453125 754.78125 255.299804688 739.141601562 c 0
 238.609375 722.471679688 225.059570312 716.211914062 208.379882812 716.211914062 c 0
 192.740234375 716.211914062 180.23046875 722.471679688 162.5 739.141601562 c 0
 145.830078125 754.78125 139.5703125 768.331054688 139.5703125 785.021484375 c 0
 139.5703125 801.701171875 145.830078125 814.2109375 162.5 830.890625 c 0
 179.190429688 847.560546875 192.740234375 853.8203125 208.379882812 853.8203125 c 0x72c0
413.37890625 853.8203125 m 0
 430.05859375 853.8203125 443.607421875 847.560546875 460.297851562 830.890625 c 0
 476.98828125 814.2109375 483.23828125 801.701171875 483.23828125 785.021484375 c 0
 483.23828125 768.331054688 475.938476562 754.78125 460.298828125 739.141601562 c 0
 443.608398438 722.471679688 430.05859375 716.211914062 413.37890625 716.211914062 c 0
 397.739257812 716.211914062 385.229492188 722.471679688 367.499023438 739.141601562 c 0
 350.829101562 754.78125 344.569335938 768.331054688 344.569335938 785.021484375 c 0
 344.569335938 801.701171875 350.829101562 814.2109375 367.499023438 830.890625 c 0
 384.189453125 847.560546875 397.739257812 853.8203125 413.37890625 853.8203125 c 0
EndSplineSet
Substitution2: "'c2sc' Capitals to Small Capitals in Latin lookup 11 subtable" Edieresis.sc
AlternateSubs2: "'aalt' Access All Alternates in Latin lookup 0 subtable" Edieresis.sc
Position2: "'cpsp' Capital Spacing in Latin lookup 0 subtable" dx=5 dy=0 dh=10 dv=0
EndChar

StartChar: Edotaccent
Encoding: 278 278 62
Width: 644
GlyphClass: 2
Flags: MW
HStem: 0 43<35.5 41 40 41 41 62.5 40 501> 0 52<281.5 348 348 412.5> 325 56<216.5 312 216.5 312> 608 52<216.5 377 216.5 216.5> 616 44<40 62> 651 20G<488.5 492> 716.17 137.66
VStem: 105 111.5<126 136 136 325 381 533 533 560.5> 242.15 138.7 386 42
AnchorPoint: "Anchor-6" 511 0 basechar 0
AnchorPoint: "Anchor-5" 311 845 basechar 0
AnchorPoint: "Anchor-4" 319 0 basechar 0
LayerCount: 2
Fore
SplineSet
619 188.5 m 2x7140
 628 184 628 179 624 170 c 2
 541 -4 l 2
 538.5 -10 535 -12 531 -12 c 0
 528 -12 525.5 -11.5 523 -9 c 2
 519 -4 l 2
 515.5 -0.5 512 0 501 0 c 2
 40 0 l 2
 31 0 26 4 26 13 c 2x7140
 26 30 l 2
 26 38 32 43 40 43 c 2
 41 43 l 2
 84 43 105 70 105 126 c 2
 105 533 l 2
 105 588 84 616 40 616 c 0
 32 616 26 622 26 630 c 2xa940
 26 646 l 2
 26 655 31 660 40 660 c 2
 460 660 l 2x7140
 469 660 473 660.5 477 664 c 2
 482 669 l 2
 484 671 487 671 490 671 c 0
 494 671 498 669 501 664 c 2x6540
 570 545 l 2
 572 542 573 539 573 537 c 0
 573 532 570 528.5 566 526 c 2
 541 512 l 2
 536 509 534 508 531 508 c 0
 527 508 524 511 521 516 c 2
 518 521 l 2
 477.5 588 445 608 377 608 c 2
 216.5 608 l 1
 216.5 381 l 1
 312 381 l 2
 360 381 386 401 386 440 c 2
 386 446 l 2
 386 455 390 459 399 459 c 2
 415 459 l 2
 424 459 428 455 428 446 c 2
 428 261 l 2
 428 252 424 248 415 248 c 2
 399 248 l 2
 390 248 386 252 386 261 c 2
 386 266 l 2
 386 306 361 325 312 325 c 2
 216.5 325 l 1
 216.5 136 l 2
 216.5 82 242.5 52 281.5 52 c 2
 348 52 l 2
 477 52 523 81.5 576.5 189 c 2
 579.5 195 l 2
 582.5 201.5 590 204.5 598 200 c 2
 619 188.5 l 2x7140
310.98046875 853.8203125 m 0x7380
 327.650390625 853.8203125 341.220703125 847.560546875 357.900390625 830.890625 c 0
 374.580078125 814.2109375 380.830078125 801.701171875 380.830078125 785.021484375 c 0
 380.830078125 768.331054688 373.530273438 754.78125 357.890625 739.141601562 c 0
 341.2109375 722.471679688 327.651367188 716.211914062 310.981445312 716.211914062 c 0
 295.3515625 716.211914062 282.831054688 722.471679688 265.111328125 739.141601562 c 0
 248.431640625 754.78125 242.181640625 768.331054688 242.181640625 785.021484375 c 0
 242.181640625 801.701171875 248.431640625 814.2109375 265.111328125 830.890625 c 0
 281.791015625 847.560546875 295.350585938 853.8203125 310.98046875 853.8203125 c 0x7380
EndSplineSet
Substitution2: "'c2sc' Capitals to Small Capitals in Latin lookup 11 subtable" Edotaccent.sc
AlternateSubs2: "'aalt' Access All Alternates in Latin lookup 0 subtable" Edotaccent.sc
Position2: "'cpsp' Capital Spacing in Latin lookup 0 subtable" dx=5 dy=0 dh=10 dv=0
EndChar

StartChar: uni1EB8
Encoding: 7864 7864 63
Width: 644
GlyphClass: 2
Flags: MW
HStem: -190.48 137.66 1.52588e-05 43 1.52588e-05 52 325 56 608 52 616 44 651 20G
VStem: 105 111.5<126 136 136 325 381 533 533 560.5> 250.15 138.7 386 42
AnchorPoint: "Anchor-6" 511 0 basechar 0
AnchorPoint: "Anchor-5" 311 660 basechar 0
AnchorPoint: "Anchor-4" 319 0 basechar 0
LayerCount: 2
Fore
SplineSet
619 188.5 m 2x3940
 628 184 628 179 624 170 c 2
 541 -4 l 2
 538.5 -10 535 -12 531 -12 c 0
 528 -12 525.5 -11.5 523 -9 c 2
 519 -4 l 2
 515.5 -0.5 512 0 501 0 c 2
 40 0 l 2
 31 0 26 4 26 13 c 2x3940
 26 30 l 2
 26 38 32 43 40 43 c 2
 41 43 l 2
 84 43 105 70 105 126 c 2
 105 533 l 2
 105 588 84 616 40 616 c 0
 32 616 26 622 26 630 c 2x5540
 26 646 l 2
 26 655 31 660 40 660 c 2
 460 660 l 2x3940
 469 660 473 660.5 477 664 c 2
 482 669 l 2
 484 671 487 671 490 671 c 0
 494 671 498 669 501 664 c 2x3340
 570 545 l 2
 572 542 573 539 573 537 c 0
 573 532 570 528.5 566 526 c 2
 541 512 l 2
 536 509 534 508 531 508 c 0
 527 508 524 511 521 516 c 2
 518 521 l 2
 477.5 588 445 608 377 608 c 2
 216.5 608 l 1
 216.5 381 l 1
 312 381 l 2
 360 381 386 401 386 440 c 2
 386 446 l 2
 386 455 390 459 399 459 c 2
 415 459 l 2
 424 459 428 455 428 446 c 2
 428 261 l 2
 428 252 424 248 415 248 c 2
 399 248 l 2
 390 248 386 252 386 261 c 2
 386 266 l 2
 386 306 361 325 312 325 c 2
 216.5 325 l 1
 216.5 136 l 2
 216.5 82 242.5 52 281.5 52 c 2
 348 52 l 2
 477 52 523 81.5 576.5 189 c 2
 579.5 195 l 2
 582.5 201.5 590 204.5 598 200 c 2
 619 188.5 l 2x3940
318.98046875 -52.8203125 m 0xb980
 335.650390625 -52.8203125 349.220703125 -59.0703125 365.900390625 -75.7607421875 c 0
 382.580078125 -92.4404296875 388.830078125 -104.950195312 388.830078125 -121.629882812 c 0
 388.830078125 -138.309570312 381.530273438 -151.859375 365.890625 -167.499023438 c 0
 349.2109375 -184.178710938 335.651367188 -190.438476562 318.981445312 -190.438476562 c 0
 303.3515625 -190.438476562 290.831054688 -184.178710938 273.111328125 -167.499023438 c 0
 256.431640625 -151.859375 250.181640625 -138.309570312 250.181640625 -121.629882812 c 0
 250.181640625 -104.950195312 256.431640625 -92.4404296875 273.111328125 -75.7607421875 c 0
 289.791015625 -59.0703125 303.350585938 -52.8203125 318.98046875 -52.8203125 c 0xb980
EndSplineSet
Substitution2: "'c2sc' Capitals to Small Capitals in Latin lookup 11 subtable" uni1EB8.sc
AlternateSubs2: "'aalt' Access All Alternates in Latin lookup 0 subtable" uni1EB8.sc
Position2: "'cpsp' Capital Spacing in Latin lookup 0 subtable" dx=5 dy=0 dh=10 dv=0
EndChar

StartChar: Egrave
Encoding: 200 200 64
Width: 644
GlyphClass: 2
Flags: MW
HStem: 0 43<35.5 41 40 41 41 62.5 40 501> 0 52<281.5 348 348 412.5> 325 56<216.5 312 216.5 312> 608 52<216.5 377 216.5 216.5> 616 44<40 62> 651 20G<488.5 492>
VStem: 105 111.5<126 136 136 325 381 533 533 560.5> 386 42<261 266 266 286 440 446>
AnchorPoint: "Anchor-6" 511 0 basechar 0
AnchorPoint: "Anchor-5" 286 899 basechar 0
AnchorPoint: "Anchor-4" 319 0 basechar 0
LayerCount: 2
Fore
SplineSet
619 188.5 m 2x73
 628 184 628 179 624 170 c 2
 541 -4 l 2
 538.5 -10 535 -12 531 -12 c 0
 528 -12 525.5 -11.5 523 -9 c 2
 519 -4 l 2
 515.5 -0.5 512 0 501 0 c 2
 40 0 l 2
 31 0 26 4 26 13 c 2x73
 26 30 l 2
 26 38 32 43 40 43 c 2
 41 43 l 2
 84 43 105 70 105 126 c 2
 105 533 l 2
 105 588 84 616 40 616 c 0
 32 616 26 622 26 630 c 2xab
 26 646 l 2
 26 655 31 660 40 660 c 2
 460 660 l 2x73
 469 660 473 660.5 477 664 c 2
 482 669 l 2
 484 671 487 671 490 671 c 0
 494 671 498 669 501 664 c 2x67
 570 545 l 2
 572 542 573 539 573 537 c 0
 573 532 570 528.5 566 526 c 2
 541 512 l 2
 536 509 534 508 531 508 c 0
 527 508 524 511 521 516 c 2
 518 521 l 2
 477.5 588 445 608 377 608 c 2
 216.5 608 l 1
 216.5 381 l 1
 312 381 l 2
 360 381 386 401 386 440 c 2
 386 446 l 2
 386 455 390 459 399 459 c 2
 415 459 l 2
 424 459 428 455 428 446 c 2
 428 261 l 2
 428 252 424 248 415 248 c 2
 399 248 l 2
 390 248 386 252 386 261 c 2
 386 266 l 2
 386 306 361 325 312 325 c 2
 216.5 325 l 1
 216.5 136 l 2
 216.5 82 242.5 52 281.5 52 c 2
 348 52 l 2
 477 52 523 81.5 576.5 189 c 2
 579.5 195 l 2
 582.5 201.5 590 204.5 598 200 c 2
 619 188.5 l 2x73
358.450195312 718.559570312 m 2
 353.719726562 716.229492188 349.798828125 714.608398438 346.749023438 714.448242188 c 0
 343.0390625 714.30859375 338.909179688 716.21875 334.889648438 718.21875 c 0
 283.849609375 745.5390625 213.599609375 786.069335938 213.599609375 843.849609375 c 0
 213.599609375 870.989257812 232.75 885.189453125 263.08984375 885.189453125 c 0
 274.469726562 885.189453125 286.639648438 883.209960938 291.330078125 872.879882812 c 0
 313.740234375 820.379882812 326.900390625 795.689453125 380 729.08984375 c 1
 358.450195312 718.559570312 l 2
EndSplineSet
Substitution2: "'c2sc' Capitals to Small Capitals in Latin lookup 11 subtable" Egrave.sc
AlternateSubs2: "'aalt' Access All Alternates in Latin lookup 0 subtable" Egrave.sc
Position2: "'cpsp' Capital Spacing in Latin lookup 0 subtable" dx=5 dy=0 dh=10 dv=0
EndChar

StartChar: uni1EBA
Encoding: 7866 7866 65
Width: 644
GlyphClass: 2
Flags: MW
HStem: 0 43<35.5 41 40 41 41 62.5 40 501> 0 52<281.5 348 348 412.5> 325 56<216.5 312 216.5 312> 608 52<216.5 377 216.5 216.5> 616 44<40 62> 651 20G<488.5 492> 811 81.5 824.23 68.27
VStem: 105 111.5<126 136 136 325 381 533 533 560.5> 321.19 59.31 386 42<261 266 266 286 440 446>
AnchorPoint: "Anchor-6" 511 0 basechar 0
AnchorPoint: "Anchor-5" 311 946 basechar 0
AnchorPoint: "Anchor-4" 319 0 basechar 0
LayerCount: 2
Fore
SplineSet
619 188.5 m 2x70a0
 628 184 628 179 624 170 c 2
 541 -4 l 2
 538.5 -10 535 -12 531 -12 c 0
 528 -12 525.5 -11.5 523 -9 c 2
 519 -4 l 2
 515.5 -0.5 512 0 501 0 c 2
 40 0 l 2
 31 0 26 4 26 13 c 2x70a0
 26 30 l 2
 26 38 32 43 40 43 c 2
 41 43 l 2
 84 43 105 70 105 126 c 2
 105 533 l 2
 105 588 84 616 40 616 c 0
 32 616 26 622 26 630 c 2xa8a0
 26 646 l 2
 26 655 31 660 40 660 c 2
 460 660 l 2x70a0
 469 660 473 660.5 477 664 c 2
 482 669 l 2
 484 671 487 671 490 671 c 0
 494 671 498 669 501 664 c 2x64a0
 570 545 l 2
 572 542 573 539 573 537 c 0
 573 532 570 528.5 566 526 c 2
 541 512 l 2
 536 509 534 508 531 508 c 0
 527 508 524 511 521 516 c 2
 518 521 l 2
 477.5 588 445 608 377 608 c 2
 216.5 608 l 1
 216.5 381 l 1
 312 381 l 2
 360 381 386 401 386 440 c 2
 386 446 l 2
 386 455 390 459 399 459 c 2
 415 459 l 2
 424 459 428 455 428 446 c 2
 428 261 l 2
 428 252 424 248 415 248 c 2
 399 248 l 2
 390 248 386 252 386 261 c 2
 386 266 l 2
 386 306 361 325 312 325 c 2
 216.5 325 l 1
 216.5 136 l 2
 216.5 82 242.5 52 281.5 52 c 2
 348 52 l 2
 477 52 523 81.5 576.5 189 c 2
 579.5 195 l 2
 582.5 201.5 590 204.5 598 200 c 2
 619 188.5 l 2x70a0
342.580078125 717.919921875 m 0x72c0
 332.799804688 705.120117188 291.4921875 728.888671875 299.162109375 739.869140625 c 0
 309.782226562 755.69921875 321.192382812 769.859375 321.192382812 791.76953125 c 0
 321.192382812 817.709960938 306.912109375 824.209960938 293.162109375 824.209960938 c 0
 272.551757812 824.209960938 257.771484375 804.110351562 251.701171875 814.05078125 c 0x71c0
 242.9609375 828.48046875 234.390625 842.700195312 235.41015625 859.620117188 c 0
 235.879882812 871.330078125 272.51953125 892.469726562 305.009765625 892.469726562 c 0
 361.849609375 892.469726562 380.5 847.959960938 380.5 811.979492188 c 0
 380.5 781.759765625 366.58984375 748.639648438 342.580078125 717.919921875 c 0x72c0
EndSplineSet
Substitution2: "'c2sc' Capitals to Small Capitals in Latin lookup 11 subtable" uni1EBA.sc
AlternateSubs2: "'aalt' Access All Alternates in Latin lookup 0 subtable" uni1EBA.sc
Position2: "'cpsp' Capital Spacing in Latin lookup 0 subtable" dx=5 dy=0 dh=10 dv=0
EndChar

StartChar: uni0206
Encoding: 518 518 66
Width: 644
GlyphClass: 2
Flags: MW
HStem: 0 43<35.5 41 40 41 41 62.5 40 501> 0 52<281.5 348 348 412.5> 325 56<216.5 312 216.5 312> 608 52<216.5 377 216.5 216.5> 616 44<40 62> 651 20G<488.5 492> 816.76 56.24
VStem: 105 111.5<126 136 136 325 381 533 533 560.5> 386 42<261 266 266 286 440 446>
AnchorPoint: "Anchor-6" 511 0 basechar 0
AnchorPoint: "Anchor-5" 311 899 basechar 0
AnchorPoint: "Anchor-4" 319 0 basechar 0
LayerCount: 2
Fore
SplineSet
619 188.5 m 2x7380
 628 184 628 179 624 170 c 2
 541 -4 l 2
 538.5 -10 535 -12 531 -12 c 0
 528 -12 525.5 -11.5 523 -9 c 2
 519 -4 l 2
 515.5 -0.5 512 0 501 0 c 2
 40 0 l 2
 31 0 26 4 26 13 c 2x7380
 26 30 l 2
 26 38 32 43 40 43 c 2
 41 43 l 2
 84 43 105 70 105 126 c 2
 105 533 l 2
 105 588 84 616 40 616 c 0
 32 616 26 622 26 630 c 2xab80
 26 646 l 2
 26 655 31 660 40 660 c 2
 460 660 l 2x7380
 469 660 473 660.5 477 664 c 2
 482 669 l 2
 484 671 487 671 490 671 c 0
 494 671 498 669 501 664 c 2x6780
 570 545 l 2
 572 542 573 539 573 537 c 0
 573 532 570 528.5 566 526 c 2
 541 512 l 2
 536 509 534 508 531 508 c 0
 527 508 524 511 521 516 c 2
 518 521 l 2
 477.5 588 445 608 377 608 c 2
 216.5 608 l 1
 216.5 381 l 1
 312 381 l 2
 360 381 386 401 386 440 c 2
 386 446 l 2
 386 455 390 459 399 459 c 2
 415 459 l 2
 424 459 428 455 428 446 c 2
 428 261 l 2
 428 252 424 248 415 248 c 2
 399 248 l 2
 390 248 386 252 386 261 c 2
 386 266 l 2
 386 306 361 325 312 325 c 2
 216.5 325 l 1
 216.5 136 l 2
 216.5 82 242.5 52 281.5 52 c 2
 348 52 l 2
 477 52 523 81.5 576.5 189 c 2
 579.5 195 l 2
 582.5 201.5 590 204.5 598 200 c 2
 619 188.5 l 2x7380
313 873 m 1
 312.881835938 873 l 1
 403.881835938 873 446.971679688 801.150390625 446.971679688 762.260742188 c 0
 446.971679688 752.260742188 441.151367188 748.360351562 431.981445312 747.270507812 c 0
 421.471679688 746.030273438 401.811523438 743.8203125 393.87109375 743.490234375 c 0
 383.340820312 742.830078125 378.970703125 746.400390625 378.190429688 758.05078125 c 0
 373.450195312 794.78125 352.330078125 816.78125 312.940429688 816.78125 c 0
 274.040039062 816.78125 252.919921875 794.78125 248.1796875 758.05078125 c 0
 246.899414062 746.400390625 243.029296875 742.830078125 232.499023438 743.490234375 c 0
 224.05859375 743.8203125 204.918945312 746.030273438 193.899414062 747.270507812 c 0
 184.719726562 748.360351562 178.91015625 752.260742188 178.91015625 762.260742188 c 0
 178.91015625 801.150390625 222.5 873 313 873 c 1
EndSplineSet
Substitution2: "'c2sc' Capitals to Small Capitals in Latin lookup 11 subtable" uni0206.sc
AlternateSubs2: "'aalt' Access All Alternates in Latin lookup 0 subtable" uni0206.sc
Position2: "'cpsp' Capital Spacing in Latin lookup 0 subtable" dx=5 dy=0 dh=10 dv=0
EndChar

StartChar: Emacron
Encoding: 274 274 67
Width: 644
GlyphClass: 2
Flags: MW
HStem: 0 43<35.5 41 40 41 41 62.5 40 501> 0 52<281.5 348 348 412.5> 325 56<216.5 312 216.5 312> 608 52<216.5 377 216.5 216.5> 616 44<40 62> 651 20G<488.5 492> 721 64<193.5 424 198 424>
VStem: 105 111.5<126 136 136 325 381 533 533 560.5> 386 42<261 266 266 286 440 446>
AnchorPoint: "Anchor-6" 511 0 basechar 0
AnchorPoint: "Anchor-5" 311 765 basechar 0
AnchorPoint: "Anchor-4" 319 0 basechar 0
LayerCount: 2
Fore
SplineSet
619 188.5 m 2x7380
 628 184 628 179 624 170 c 2
 541 -4 l 2
 538.5 -10 535 -12 531 -12 c 0
 528 -12 525.5 -11.5 523 -9 c 2
 519 -4 l 2
 515.5 -0.5 512 0 501 0 c 2
 40 0 l 2
 31 0 26 4 26 13 c 2x7380
 26 30 l 2
 26 38 32 43 40 43 c 2
 41 43 l 2
 84 43 105 70 105 126 c 2
 105 533 l 2
 105 588 84 616 40 616 c 0
 32 616 26 622 26 630 c 2xab80
 26 646 l 2
 26 655 31 660 40 660 c 2
 460 660 l 2x7380
 469 660 473 660.5 477 664 c 2
 482 669 l 2
 484 671 487 671 490 671 c 0
 494 671 498 669 501 664 c 2x6780
 570 545 l 2
 572 542 573 539 573 537 c 0
 573 532 570 528.5 566 526 c 2
 541 512 l 2
 536 509 534 508 531 508 c 0
 527 508 524 511 521 516 c 2
 518 521 l 2
 477.5 588 445 608 377 608 c 2
 216.5 608 l 1
 216.5 381 l 1
 312 381 l 2
 360 381 386 401 386 440 c 2
 386 446 l 2
 386 455 390 459 399 459 c 2
 415 459 l 2
 424 459 428 455 428 446 c 2
 428 261 l 2
 428 252 424 248 415 248 c 2
 399 248 l 2
 390 248 386 252 386 261 c 2
 386 266 l 2
 386 306 361 325 312 325 c 2
 216.5 325 l 1
 216.5 136 l 2
 216.5 82 242.5 52 281.5 52 c 2
 348 52 l 2
 477 52 523 81.5 576.5 189 c 2
 579.5 195 l 2
 582.5 201.5 590 204.5 598 200 c 2
 619 188.5 l 2x7380
437 734 m 2
 437 726 433 721 424 721 c 2
 198 721 l 2
 189 721 185 726 185 734 c 2
 185 772 l 2
 185 781 189 785 198 785 c 2
 424 785 l 2
 433 785 437 781 437 772 c 2
 437 734 l 2
EndSplineSet
Substitution2: "'c2sc' Capitals to Small Capitals in Latin lookup 11 subtable" Emacron.sc
AlternateSubs2: "'aalt' Access All Alternates in Latin lookup 0 subtable" Emacron.sc
Position2: "'cpsp' Capital Spacing in Latin lookup 0 subtable" dx=5 dy=0 dh=10 dv=0
EndChar

StartChar: uni1E16
Encoding: 7702 7702 68
Width: 644
GlyphClass: 2
Flags: MW
HStem: 0 43<35.5 41 40 41 41 62.5 40 501> 0 52<281.5 348 348 412.5> 325 56<216.5 312 216.5 312> 608 52<216.5 377 216.5 216.5> 616 44<40 62> 651 20G<488.5 492> 721 64<193.5 424 198 424>
VStem: 105 111.5<126 136 136 325 381 533 533 560.5> 386 42<261 266 266 286 440 446>
AnchorPoint: "Anchor-6" 511 0 basechar 0
AnchorPoint: "Anchor-5" 343 1004 basechar 0
AnchorPoint: "Anchor-4" 319 0 basechar 0
LayerCount: 2
Fore
SplineSet
619 188.5 m 2x7380
 628 184 628 179 624 170 c 2
 541 -4 l 2
 538.5 -10 535 -12 531 -12 c 0
 528 -12 525.5 -11.5 523 -9 c 2
 519 -4 l 2
 515.5 -0.5 512 0 501 0 c 2
 40 0 l 2
 31 0 26 4 26 13 c 2x7380
 26 30 l 2
 26 38 32 43 40 43 c 2
 41 43 l 2
 84 43 105 70 105 126 c 2
 105 533 l 2
 105 588 84 616 40 616 c 0
 32 616 26 622 26 630 c 2xab80
 26 646 l 2
 26 655 31 660 40 660 c 2
 460 660 l 2x7380
 469 660 473 660.5 477 664 c 2
 482 669 l 2
 484 671 487 671 490 671 c 0
 494 671 498 669 501 664 c 2x6780
 570 545 l 2
 572 542 573 539 573 537 c 0
 573 532 570 528.5 566 526 c 2
 541 512 l 2
 536 509 534 508 531 508 c 0
 527 508 524 511 521 516 c 2
 518 521 l 2
 477.5 588 445 608 377 608 c 2
 216.5 608 l 1
 216.5 381 l 1
 312 381 l 2
 360 381 386 401 386 440 c 2
 386 446 l 2
 386 455 390 459 399 459 c 2
 415 459 l 2
 424 459 428 455 428 446 c 2
 428 261 l 2
 428 252 424 248 415 248 c 2
 399 248 l 2
 390 248 386 252 386 261 c 2
 386 266 l 2
 386 306 361 325 312 325 c 2
 216.5 325 l 1
 216.5 136 l 2
 216.5 82 242.5 52 281.5 52 c 2
 348 52 l 2
 477 52 523 81.5 576.5 189 c 2
 579.5 195 l 2
 582.5 201.5 590 204.5 598 200 c 2
 619 188.5 l 2x7380
437 734 m 2
 437 726 433 721 424 721 c 2
 198 721 l 2
 189 721 185 726 185 734 c 2
 185 772 l 2
 185 781 189 785 198 785 c 2
 424 785 l 2
 433 785 437 781 437 772 c 2
 437 734 l 2
248.990234375 834.33984375 m 1
 302.08984375 900.939453125 315.249023438 925.6796875 337.659179688 978.1796875 c 0
 342.349609375 988.51953125 354.51953125 990.5 365.899414062 990.5 c 0
 396.239257812 990.5 415.389648438 976.290039062 415.389648438 949.150390625 c 0
 415.389648438 891.379882812 345.139648438 850.830078125 294.099609375 823.509765625 c 0
 290.079101562 821.509765625 285.94921875 819.599609375 282.239257812 819.739257812 c 0
 279.189453125 819.899414062 275.26953125 821.479492188 270.540039062 823.809570312 c 2
 248.990234375 834.33984375 l 1
EndSplineSet
Substitution2: "'c2sc' Capitals to Small Capitals in Latin lookup 11 subtable" uni1E16.sc
AlternateSubs2: "'aalt' Access All Alternates in Latin lookup 0 subtable" uni1E16.sc
Position2: "'cpsp' Capital Spacing in Latin lookup 0 subtable" dx=5 dy=0 dh=10 dv=0
EndChar

StartChar: uni1E14
Encoding: 7700 7700 69
Width: 644
GlyphClass: 2
Flags: MW
HStem: 0 43<35.5 41 40 41 41 62.5 40 501> 0 52<281.5 348 348 412.5> 325 56<216.5 312 216.5 312> 608 52<216.5 377 216.5 216.5> 616 44<40 62> 651 20G<488.5 492> 721 64<193.5 424 198 424>
VStem: 105 111.5<126 136 136 325 381 533 533 560.5> 386 42<261 266 266 286 440 446>
AnchorPoint: "Anchor-6" 511 0 basechar 0
AnchorPoint: "Anchor-5" 286 1004 basechar 0
AnchorPoint: "Anchor-4" 319 0 basechar 0
LayerCount: 2
Fore
SplineSet
619 188.5 m 2x7380
 628 184 628 179 624 170 c 2
 541 -4 l 2
 538.5 -10 535 -12 531 -12 c 0
 528 -12 525.5 -11.5 523 -9 c 2
 519 -4 l 2
 515.5 -0.5 512 0 501 0 c 2
 40 0 l 2
 31 0 26 4 26 13 c 2x7380
 26 30 l 2
 26 38 32 43 40 43 c 2
 41 43 l 2
 84 43 105 70 105 126 c 2
 105 533 l 2
 105 588 84 616 40 616 c 0
 32 616 26 622 26 630 c 2xab80
 26 646 l 2
 26 655 31 660 40 660 c 2
 460 660 l 2x7380
 469 660 473 660.5 477 664 c 2
 482 669 l 2
 484 671 487 671 490 671 c 0
 494 671 498 669 501 664 c 2x6780
 570 545 l 2
 572 542 573 539 573 537 c 0
 573 532 570 528.5 566 526 c 2
 541 512 l 2
 536 509 534 508 531 508 c 0
 527 508 524 511 521 516 c 2
 518 521 l 2
 477.5 588 445 608 377 608 c 2
 216.5 608 l 1
 216.5 381 l 1
 312 381 l 2
 360 381 386 401 386 440 c 2
 386 446 l 2
 386 455 390 459 399 459 c 2
 415 459 l 2
 424 459 428 455 428 446 c 2
 428 261 l 2
 428 252 424 248 415 248 c 2
 399 248 l 2
 390 248 386 252 386 261 c 2
 386 266 l 2
 386 306 361 325 312 325 c 2
 216.5 325 l 1
 216.5 136 l 2
 216.5 82 242.5 52 281.5 52 c 2
 348 52 l 2
 477 52 523 81.5 576.5 189 c 2
 579.5 195 l 2
 582.5 201.5 590 204.5 598 200 c 2
 619 188.5 l 2x7380
437 734 m 2
 437 726 433 721 424 721 c 2
 198 721 l 2
 189 721 185 726 185 734 c 2
 185 772 l 2
 185 781 189 785 198 785 c 2
 424 785 l 2
 433 785 437 781 437 772 c 2
 437 734 l 2
358.450195312 823.809570312 m 2
 353.719726562 821.479492188 349.798828125 819.850585938 346.749023438 819.690429688 c 0
 343.0390625 819.55078125 338.909179688 821.4609375 334.889648438 823.4609375 c 0
 283.849609375 850.78125 213.599609375 891.331054688 213.599609375 949.100585938 c 0
 213.599609375 976.240234375 232.75 990.450195312 263.08984375 990.450195312 c 0
 274.469726562 990.450195312 286.639648438 988.469726562 291.330078125 978.129882812 c 0
 313.740234375 925.629882812 326.900390625 900.939453125 380 834.33984375 c 1
 358.450195312 823.809570312 l 2
EndSplineSet
Substitution2: "'c2sc' Capitals to Small Capitals in Latin lookup 11 subtable" uni1E14.sc
AlternateSubs2: "'aalt' Access All Alternates in Latin lookup 0 subtable" uni1E14.sc
Position2: "'cpsp' Capital Spacing in Latin lookup 0 subtable" dx=5 dy=0 dh=10 dv=0
EndChar

StartChar: Eogonek
Encoding: 280 280 70
Width: 644
GlyphClass: 2
Flags: MW
HStem: -12 21G
AnchorPoint: "Anchor-6" 511 0 basechar 0
AnchorPoint: "Anchor-5" 311 660 basechar 0
AnchorPoint: "Anchor-4" 319 0 basechar 0
LayerCount: 2
Fore
SplineSet
619 188.5 m 2
 628 184 627.997070312 178.999023438 623.997070312 169.999023438 c 2
 540.997070312 -4.0009765625 l 2
 538.497070312 -10.0009765625 534.997070312 -12.0009765625 530.997070312 -12.0009765625 c 0
 527.997070312 -12.0009765625 525.497070312 -11.5009765625 522.997070312 -9.0009765625 c 2
 518.997070312 -4.0009765625 l 2
 516.4375 -1.44140625 513.877929688 -0.4814453125 508.368164062 -0.1611328125 c 0
 489.7578125 -1.9306640625 407.038085938 -19.640625 407.038085938 -92.3505859375 c 0
 407.038085938 -140.970703125 436.688476562 -167.73046875 490.048828125 -167.73046875 c 0
 527.999023438 -167.73046875 563.999023438 -142 572.999023438 -142 c 0
 576.999023438 -142 580.999023438 -146 580.999023438 -153 c 2
 580.999023438 -178 l 2
 580.999023438 -184 578.999023438 -189 573.999023438 -192 c 0
 540.999023438 -212 507.999023438 -223 477.999023438 -223 c 0
 381.999023438 -223 338.999023438 -156 338.999023438 -102 c 0
 338.999023438 -53.8203125 365.359375 -21.25 396.719726562 0 c 1
 40 0 l 2
 31 0 26 4 26 13 c 2
 26 30 l 2
 26 38 32 43 40 43 c 2
 41 43 l 2
 84 43 105 70 105 126 c 2
 105 533 l 2
 105 588 84 616 40 616 c 0
 32 616 26 622 26 630 c 2
 26 646 l 2
 26 655 31 660 40 660 c 2
 460 660 l 2
 469 660 473 660.5 477 664 c 2
 482 669 l 2
 484 671 487 671 490 671 c 0
 494 671 498 669 501 664 c 2
 570 545 l 2
 572 542 573 539 573 537 c 0
 573 532 570 528.5 566 526 c 2
 541 512 l 2
 536 509 534 508 531 508 c 0
 527 508 524 511 521 516 c 2
 518 521 l 2
 477.5 588 445 608 377 608 c 2
 216.5 608 l 1
 216.5 381 l 1
 312 381 l 2
 360 381 386 401 386 440 c 2
 386 446 l 2
 386 455 390 459 399 459 c 2
 415 459 l 2
 424 459 428 455 428 446 c 2
 428 261 l 2
 428 252 424 248 415 248 c 2
 399 248 l 2
 390 248 386 252 386 261 c 2
 386 266 l 2
 386 306 361 325 312 325 c 2
 216.5 325 l 1
 216.5 136 l 2
 216.5 82 242.5 52 281.5 52 c 2
 348 52 l 2
 477 52 523 81.5 576.5 189 c 2
 579.5 195 l 2
 582.5 201.5 590 204.5 598 200 c 2
 619 188.5 l 2
EndSplineSet
Substitution2: "'c2sc' Capitals to Small Capitals in Latin lookup 11 subtable" Eogonek.sc
AlternateSubs2: "'aalt' Access All Alternates in Latin lookup 0 subtable" Eogonek.sc
Position2: "'cpsp' Capital Spacing in Latin lookup 0 subtable" dx=5 dy=0 dh=10 dv=0
EndChar

StartChar: uni1EBC
Encoding: 7868 7868 71
Width: 644
GlyphClass: 2
Flags: MW
HStem: 0 43<35.5 41 40 41 41 62.5 40 501> 0 52<281.5 348 348 412.5> 325 56<216.5 312 216.5 312> 608 52<216.5 377 216.5 216.5> 616 44<40 62> 651 20G<488.5 492> 720.5 59 804.5 58
VStem: 105 111.5<126 136 136 325 381 533 533 560.5> 165.5 63 386 42<261 266 266 286 440 446> 393.5 63
AnchorPoint: "Anchor-6" 511 0 basechar 0
AnchorPoint: "Anchor-5" 311 845 basechar 0
AnchorPoint: "Anchor-4" 319 0 basechar 0
LayerCount: 2
Fore
SplineSet
619 188.5 m 2x70a0
 628 184 628 179 624 170 c 2
 541 -4 l 2
 538.5 -10 535 -12 531 -12 c 0
 528 -12 525.5 -11.5 523 -9 c 2
 519 -4 l 2
 515.5 -0.5 512 0 501 0 c 2
 40 0 l 2
 31 0 26 4 26 13 c 2x70a0
 26 30 l 2
 26 38 32 43 40 43 c 2
 41 43 l 2
 84 43 105 70 105 126 c 2
 105 533 l 2
 105 588 84 616 40 616 c 0
 32 616 26 622 26 630 c 2xa8a0
 26 646 l 2
 26 655 31 660 40 660 c 2
 460 660 l 2x70a0
 469 660 473 660.5 477 664 c 2
 482 669 l 2
 484 671 487 671 490 671 c 0
 494 671 498 669 501 664 c 2x64a0
 570 545 l 2
 572 542 573 539 573 537 c 0
 573 532 570 528.5 566 526 c 2
 541 512 l 2
 536 509 534 508 531 508 c 0
 527 508 524 511 521 516 c 2
 518 521 l 2
 477.5 588 445 608 377 608 c 2
 216.5 608 l 1
 216.5 381 l 1
 312 381 l 2
 360 381 386 401 386 440 c 2
 386 446 l 2
 386 455 390 459 399 459 c 2
 415 459 l 2
 424 459 428 455 428 446 c 2
 428 261 l 2
 428 252 424 248 415 248 c 2
 399 248 l 2
 390 248 386 252 386 261 c 2
 386 266 l 2
 386 306 361 325 312 325 c 2
 216.5 325 l 1
 216.5 136 l 2
 216.5 82 242.5 52 281.5 52 c 2
 348 52 l 2
 477 52 523 81.5 576.5 189 c 2
 579.5 195 l 2
 582.5 201.5 590 204.5 598 200 c 2
 619 188.5 l 2x70a0
332.76953125 807.51953125 m 0x7160
 345.969726562 787.109375 356.28125 779.512695312 368.981445312 779.512695312 c 0
 384.981445312 779.512695312 393.481445312 792.362304688 393.481445312 808.001953125 c 0
 393.481445312 819.362304688 390.911132812 831.192382812 382.880859375 843.612304688 c 1
 392.041015625 852.501953125 407.180664062 863.471679688 420.98046875 863.471679688 c 0
 435.100585938 863.471679688 456.470703125 835.69140625 456.470703125 803.981445312 c 0
 456.470703125 752.061523438 418.791015625 720.491210938 378.981445312 720.491210938 c 0x7290
 322.881835938 720.491210938 303.151367188 751.561523438 289.37109375 775.181640625 c 0
 277.390625 796.751953125 266.700195312 804.471679688 254.009765625 804.471679688 c 0
 238.009765625 804.471679688 228.509765625 789.671875 228.509765625 774.981445312 c 0
 228.509765625 763.401367188 231.9296875 751.6015625 240.01953125 739.311523438 c 1
 230.849609375 730.451171875 215.639648438 719.510742188 201.01953125 719.510742188 c 0
 187.369140625 719.510742188 165.529296875 747.600585938 165.529296875 778.000976562 c 0
 165.529296875 830.850585938 204.139648438 862.490234375 244.01953125 862.490234375 c 0
 299.1796875 862.490234375 319.779296875 829.5 332.76953125 807.51953125 c 0x7160
EndSplineSet
Substitution2: "'c2sc' Capitals to Small Capitals in Latin lookup 11 subtable" uni1EBC.sc
AlternateSubs2: "'aalt' Access All Alternates in Latin lookup 0 subtable" uni1EBC.sc
Position2: "'cpsp' Capital Spacing in Latin lookup 0 subtable" dx=5 dy=0 dh=10 dv=0
EndChar

StartChar: uni018F
Encoding: 399 399 72
Width: 686
GlyphClass: 1
Flags: MW
HStem: -11 51 424.46 20G 614.5 56.5
VStem: 59.47 117.5 521.47 126
LayerCount: 2
Fore
SplineSet
322.459960938 -11 m 1
 322.44921875 -10.94921875 l 1
 120.44921875 -10.94921875 59.44921875 151.05078125 59.44921875 212.55078125 c 0
 59.44921875 224.690429688 61.369140625 231.470703125 72.2392578125 236.73046875 c 2
 504.529296875 444.48046875 l 1
 475.689453125 549.290039062 411.69921875 614.520507812 312.94921875 614.520507812 c 0
 176.44921875 614.520507812 114.5390625 528.490234375 85.5791015625 449.010742188 c 0
 82.029296875 440.030273438 76.1796875 438.600585938 68.4697265625 442.030273438 c 2
 45.9697265625 451.530273438 l 2
 38.4599609375 454.760742188 36.5498046875 456.791015625 39.330078125 465.140625 c 0
 75.1298828125 563.440429688 160.459960938 671 324.959960938 671 c 0
 531.459960938 671 647.459960938 527 647.459960938 338 c 0
 647.459960938 191 570.959960938 -11 322.459960938 -11 c 1
325.94921875 40.05078125 m 0
 465.94921875 40.05078125 521.439453125 194.061523438 521.439453125 300.561523438 c 0
 521.439453125 330.861328125 519.299804688 359.87109375 515.609375 386.791015625 c 1
 177.5390625 212.630859375 l 1
 177.279296875 207.510742188 176.958984375 201.520507812 176.958984375 196.05078125 c 0
 176.958984375 126.05078125 216.529296875 40.05078125 325.94921875 40.05078125 c 0
EndSplineSet
Substitution2: "'c2sc' Capitals to Small Capitals in Latin lookup 11 subtable" uni018F.sc
AlternateSubs2: "'aalt' Access All Alternates in Latin lookup 0 subtable" uni018F.sc
Position2: "'cpsp' Capital Spacing in Latin lookup 0 subtable" dx=5 dy=0 dh=10 dv=0
EndChar

StartChar: F
Encoding: 70 70 73
Width: 588
GlyphClass: 1
Flags: MW
HStem: 0 43<35.5 41 40 41 41 62.5 275.5 282.5> 317 55<216.5 308.5 216.5 308.5> 430 20G<405.5 421.5 421.5 426> 608 52<216.5 346.5 216.5 216.5> 616 44<40 62> 651 20G<485 488.5>
VStem: 105 111.5<126 317 372 533 533 560.5> 392.5 42<252 258 258 277.5 431 437>
LayerCount: 2
Fore
SplineSet
216.5 126 m 2xf3
 216.5 74 236.5 43 275.5 43 c 2
 282.5 43 l 2
 290.5 43 295.5 38 295.5 30 c 2
 295.5 13 l 2
 295.5 5 290.5 0 282.5 0 c 2
 40 0 l 2
 31 0 26 4 26 13 c 2
 26 30 l 2
 26 38 32 43 40 43 c 2
 41 43 l 2
 84 43 105 70 105 126 c 2
 105 533 l 2
 105 588 84 616 40 616 c 0
 32 616 26 622 26 630 c 2xeb
 26 646 l 2
 26 655 31 660 40 660 c 2
 456.5 660 l 2xf3
 465.5 660 469.5 661 473.5 664 c 2
 478.5 669 l 2
 480.5 671 483.5 671 486.5 671 c 0
 490.5 671 494.5 669 497.5 664 c 2xe7
 566.5 545 l 2
 568.5 542 569.5 539 569.5 537 c 0
 569.5 532 566.5 529 562.5 526 c 2
 537.5 512 l 2
 532.5 509 530.5 508 527.5 508 c 0
 523.5 508 519.5 511 517.5 516 c 2
 514.5 521 l 2
 474 588 423.5 608 346.5 608 c 2
 216.5 608 l 1
 216.5 372 l 1
 308.5 372 l 2
 367.5 372 392.5 392 392.5 431 c 2
 392.5 437 l 2
 392.5 446 396.5 450 405.5 450 c 2
 421.5 450 l 2
 430.5 450 434.5 446 434.5 437 c 2
 434.5 252 l 2
 434.5 243 430.5 239 421.5 239 c 2
 405.5 239 l 2
 396.5 239 392.5 243 392.5 252 c 2
 392.5 258 l 2
 392.5 297 368.5 317 308.5 317 c 2
 216.5 317 l 1
 216.5 126 l 2xf3
EndSplineSet
Substitution2: "'ss04' Style Set 4 in Latin lookup 33 subtable" u1F155
Substitution2: "'ss03' Style Set 3 in Latin lookup 31 subtable" uni24BB
Substitution2: "'c2sc' Capitals to Small Capitals in Latin lookup 11 subtable" F.sc
AlternateSubs2: "'aalt' Access All Alternates in Latin lookup 0 subtable" F.sc uni24BB u1F155
Position2: "'cpsp' Capital Spacing in Latin lookup 0 subtable" dx=5 dy=0 dh=10 dv=0
EndChar

StartChar: G
Encoding: 71 71 74
Width: 679
GlyphClass: 2
Flags: MW
HStem: -11 57.5<294 390.5 294 416> 285 42<397 649 401 408 633.5 642 642 649> 621 50<288.25 402>
VStem: 31 125.5<277.5 397> 501.5 113.5<473.5 497 473.5 512> 502 117<150 183 183 233>
AnchorPoint: "Anchor-5" 348 660 basechar 0
AnchorPoint: "Anchor-4" 348 0 basechar 0
LayerCount: 2
Fore
SplineSet
156.5 361 m 0xf4
 156.5 194 224 46.5 364 46.5 c 0
 417 46.5 502 70 502 127 c 2
 502 183 l 2
 502 283 453 285 408 285 c 2
 401 285 l 2
 393 285 388 289 388 298 c 2
 388 314 l 2
 388 323 393 327 401 327 c 2
 649 327 l 2
 657 327 662 322 662 314 c 2
 662 298 l 2
 662 289 657 285 649 285 c 2
 642 285 l 2
 625 285 619 276 619 256 c 2
 619 150 l 1xf4
 578 56 483 -11 349 -11 c 0
 152 -11 31 135 31 323 c 0
 31 471 103 671 356 671 c 0
 568 671 615 515.5 615 478.5 c 0
 615 468.5 610 464 600 461.5 c 2
 525.5 437.5 l 2
 520.5 436 515.5 434.5 510.5 434.5 c 0
 504.5 434.5 499.5 434.5 499.5 442.5 c 0
 499.5 448.5 501.5 456.5 501.5 471.5 c 0xf8
 501.5 552.5 452 621 352 621 c 0
 224.5 621 156.5 488.5 156.5 361 c 0xf4
EndSplineSet
Substitution2: "'ss04' Style Set 4 in Latin lookup 33 subtable" u1F156
Substitution2: "'ss03' Style Set 3 in Latin lookup 31 subtable" uni24BC
Substitution2: "'c2sc' Capitals to Small Capitals in Latin lookup 11 subtable" G.sc
AlternateSubs2: "'aalt' Access All Alternates in Latin lookup 0 subtable" G.sc uni24BC u1F156
Position2: "'cpsp' Capital Spacing in Latin lookup 0 subtable" dx=5 dy=0 dh=10 dv=0
EndChar

StartChar: Gbreve
Encoding: 286 286 75
Width: 679
GlyphClass: 2
Flags: MW
HStem: -11 57.5<294 390.5 294 416> 285 42<397 649 401 408 633.5 642 642 649> 621 50<288.25 402> 711 56.24
VStem: 31 125.5<277.5 397> 501.5 113.5<473.5 497 473.5 512> 502 117<150 183 183 233>
AnchorPoint: "Anchor-5" 348 825 basechar 0
AnchorPoint: "Anchor-4" 348 0 basechar 0
LayerCount: 2
Fore
SplineSet
156.5 361 m 0xfa
 156.5 194 224 46.5 364 46.5 c 0
 417 46.5 502 70 502 127 c 2
 502 183 l 2
 502 283 453 285 408 285 c 2
 401 285 l 2
 393 285 388 289 388 298 c 2
 388 314 l 2
 388 323 393 327 401 327 c 2
 649 327 l 2
 657 327 662 322 662 314 c 2
 662 298 l 2
 662 289 657 285 649 285 c 2
 642 285 l 2
 625 285 619 276 619 256 c 2
 619 150 l 1xfa
 578 56 483 -11 349 -11 c 0
 152 -11 31 135 31 323 c 0
 31 471 103 671 356 671 c 0
 568 671 615 515.5 615 478.5 c 0
 615 468.5 610 464 600 461.5 c 2
 525.5 437.5 l 2
 520.5 436 515.5 434.5 510.5 434.5 c 0
 504.5 434.5 499.5 434.5 499.5 442.5 c 0
 499.5 448.5 501.5 456.5 501.5 471.5 c 0xfc
 501.5 552.5 452 621 352 621 c 0
 224.5 621 156.5 488.5 156.5 361 c 0xfa
348 711 m 1
 348.118164062 711 l 1
 257.618164062 711 214.028320312 782.83984375 214.028320312 821.740234375 c 0
 214.028320312 831.740234375 219.837890625 835.629882812 229.017578125 836.729492188 c 0
 240.037109375 837.959960938 259.176757812 840.169921875 267.6171875 840.509765625 c 0
 278.147460938 841.169921875 282.017578125 837.599609375 283.297851562 825.94921875 c 0
 288.038085938 789.21875 309.158203125 767.21875 348.05859375 767.21875 c 0
 387.448242188 767.21875 408.568359375 789.21875 413.30859375 825.94921875 c 0
 414.088867188 837.599609375 418.458984375 841.169921875 428.989257812 840.509765625 c 0
 436.9296875 840.169921875 456.58984375 837.959960938 467.099609375 836.729492188 c 0
 476.26953125 835.629882812 482.08984375 831.740234375 482.08984375 821.740234375 c 0
 482.08984375 782.83984375 439 711 348 711 c 1
EndSplineSet
Substitution2: "'c2sc' Capitals to Small Capitals in Latin lookup 11 subtable" Gbreve.sc
AlternateSubs2: "'aalt' Access All Alternates in Latin lookup 0 subtable" Gbreve.sc
Position2: "'cpsp' Capital Spacing in Latin lookup 0 subtable" dx=5 dy=0 dh=10 dv=0
EndChar

StartChar: Gcaron
Encoding: 486 486 76
Width: 679
GlyphClass: 2
Flags: MW
HStem: -11 57.5<294 390.5 294 416> 285 42<397 649 401 408 633.5 642 642 649> 621 50<288.25 402>
VStem: 31 125.5<277.5 397> 501.5 113.5<473.5 497 473.5 512> 502 117<150 183 183 233>
AnchorPoint: "Anchor-5" 348 845 basechar 0
AnchorPoint: "Anchor-4" 348 0 basechar 0
LayerCount: 2
Fore
SplineSet
156.5 361 m 0xf4
 156.5 194 224 46.5 364 46.5 c 0
 417 46.5 502 70 502 127 c 2
 502 183 l 2
 502 283 453 285 408 285 c 2
 401 285 l 2
 393 285 388 289 388 298 c 2
 388 314 l 2
 388 323 393 327 401 327 c 2
 649 327 l 2
 657 327 662 322 662 314 c 2
 662 298 l 2
 662 289 657 285 649 285 c 2
 642 285 l 2
 625 285 619 276 619 256 c 2
 619 150 l 1xf4
 578 56 483 -11 349 -11 c 0
 152 -11 31 135 31 323 c 0
 31 471 103 671 356 671 c 0
 568 671 615 515.5 615 478.5 c 0
 615 468.5 610 464 600 461.5 c 2
 525.5 437.5 l 2
 520.5 436 515.5 434.5 510.5 434.5 c 0
 504.5 434.5 499.5 434.5 499.5 442.5 c 0
 499.5 448.5 501.5 456.5 501.5 471.5 c 0xf8
 501.5 552.5 452 621 352 621 c 0
 224.5 621 156.5 488.5 156.5 361 c 0xf4
348 789.030273438 m 1
 370.01953125 830.540039062 407.298828125 877.139648438 455.598632812 877.139648438 c 0
 481.018554688 877.139648438 492.87890625 852.569335938 492.87890625 824.609375 c 0
 492.87890625 811.899414062 492.0390625 800.889648438 482.71875 796.659179688 c 0
 433.579101562 778.01953125 408.159179688 765.309570312 347.999023438 717.009765625 c 1
 287.829101562 765.309570312 262.409179688 778.01953125 213.26953125 796.659179688 c 0
 203.94921875 800.889648438 203.109375 811.899414062 203.109375 824.609375 c 0
 203.109375 852.569335938 214.969726562 877.139648438 240.389648438 877.139648438 c 0
 288.689453125 877.139648438 325.969726562 830.540039062 348 789.030273438 c 1
EndSplineSet
Substitution2: "'c2sc' Capitals to Small Capitals in Latin lookup 11 subtable" Gcaron.sc
AlternateSubs2: "'aalt' Access All Alternates in Latin lookup 0 subtable" Gcaron.sc
Position2: "'cpsp' Capital Spacing in Latin lookup 0 subtable" dx=5 dy=0 dh=10 dv=0
EndChar

StartChar: Gcircumflex
Encoding: 284 284 77
Width: 679
GlyphClass: 2
Flags: MW
HStem: -11 57.5<294 390.5 294 416> 285 42<397 649 401 408 633.5 642 642 649> 621 50<288.25 402>
VStem: 31 125.5<277.5 397> 501.5 113.5<473.5 497 473.5 512> 502 117<150 183 183 233>
AnchorPoint: "Anchor-7" 348 777 basechar 0
AnchorPoint: "Anchor-5" 348 833 basechar 0
AnchorPoint: "Anchor-4" 348 0 basechar 0
LayerCount: 2
Fore
SplineSet
156.5 361 m 0xf4
 156.5 194 224 46.5 364 46.5 c 0
 417 46.5 502 70 502 127 c 2
 502 183 l 2
 502 283 453 285 408 285 c 2
 401 285 l 2
 393 285 388 289 388 298 c 2
 388 314 l 2
 388 323 393 327 401 327 c 2
 649 327 l 2
 657 327 662 322 662 314 c 2
 662 298 l 2
 662 289 657 285 649 285 c 2
 642 285 l 2
 625 285 619 276 619 256 c 2
 619 150 l 1xf4
 578 56 483 -11 349 -11 c 0
 152 -11 31 135 31 323 c 0
 31 471 103 671 356 671 c 0
 568 671 615 515.5 615 478.5 c 0
 615 468.5 610 464 600 461.5 c 2
 525.5 437.5 l 2
 520.5 436 515.5 434.5 510.5 434.5 c 0
 504.5 434.5 499.5 434.5 499.5 442.5 c 0
 499.5 448.5 501.5 456.5 501.5 471.5 c 0xf8
 501.5 552.5 452 621 352 621 c 0
 224.5 621 156.5 488.5 156.5 361 c 0xf4
348 800.950195312 m 1
 325.969726562 759.440429688 288.690429688 712.840820312 240.390625 712.840820312 c 0
 214.970703125 712.840820312 203.110351562 737.411132812 203.110351562 765.37109375 c 0
 203.110351562 778.081054688 203.950195312 789.090820312 213.270507812 793.331054688 c 0
 262.41015625 811.9609375 287.830078125 824.670898438 348 872.970703125 c 1
 408.16015625 824.670898438 433.580078125 811.9609375 482.719726562 793.331054688 c 0
 492.040039062 789.090820312 492.879882812 778.081054688 492.879882812 765.37109375 c 0
 492.879882812 737.411132812 481.01953125 712.840820312 455.599609375 712.840820312 c 0
 407.299804688 712.840820312 370.01953125 759.440429688 348 800.950195312 c 1
EndSplineSet
Substitution2: "'c2sc' Capitals to Small Capitals in Latin lookup 11 subtable" Gcircumflex.sc
AlternateSubs2: "'aalt' Access All Alternates in Latin lookup 0 subtable" Gcircumflex.sc
Position2: "'cpsp' Capital Spacing in Latin lookup 0 subtable" dx=5 dy=0 dh=10 dv=0
EndChar

StartChar: uni0122
Encoding: 290 290 78
Width: 679
GlyphClass: 2
Flags: MW
HStem: -11 57.5<294 390.5 294 416> 285 42<397 649 401 408 633.5 642 642 649> 621 50<288.25 402>
VStem: 31 125.5<277.5 397> 329.43 74.68 501.5 113.5 502 117
AnchorPoint: "Anchor-5" 348 660 basechar 0
AnchorPoint: "Anchor-4" 348 0 basechar 0
LayerCount: 2
Fore
SplineSet
156.5 361 m 0xf2
 156.5 194 224 46.5 364 46.5 c 0
 417 46.5 502 70 502 127 c 2
 502 183 l 2
 502 283 453 285 408 285 c 2
 401 285 l 2
 393 285 388 289 388 298 c 2
 388 314 l 2
 388 323 393 327 401 327 c 2
 649 327 l 2
 657 327 662 322 662 314 c 2
 662 298 l 2
 662 289 657 285 649 285 c 2
 642 285 l 2
 625 285 619 276 619 256 c 2
 619 150 l 1xf2
 578 56 483 -11 349 -11 c 0
 152 -11 31 135 31 323 c 0
 31 471 103 671 356 671 c 0
 568 671 615 515.5 615 478.5 c 0
 615 468.5 610 464 600 461.5 c 2
 525.5 437.5 l 2
 520.5 436 515.5 434.5 510.5 434.5 c 0
 504.5 434.5 499.5 434.5 499.5 442.5 c 0
 499.5 448.5 501.5 456.5 501.5 471.5 c 0xf4
 501.5 552.5 452 621 352 621 c 0
 224.5 621 156.5 488.5 156.5 361 c 0xf2
392.259765625 -81.6904296875 m 2xfa
 399.540039062 -88.970703125 404.120117188 -98.94140625 404.120117188 -113.51171875 c 0
 404.120117188 -118.971679688 403.209960938 -124.431640625 402.299804688 -130.801757812 c 0
 393.200195312 -176.33203125 320.33984375 -239.181640625 306.6796875 -239.181640625 c 0
 303.040039062 -239.181640625 300.309570312 -237.361328125 283.919921875 -230.071289062 c 1
 312.150390625 -208.221679688 329.459960938 -179.991210938 329.459960938 -161.78125 c 0
 329.459960938 -157.231445312 327.639648438 -152.681640625 323.989257812 -149.041992188 c 2
 301.229492188 -126.282226562 l 2
 294.859375 -119.001953125 291.219726562 -111.721679688 291.219726562 -104.44140625 c 0
 291.219726562 -97.1611328125 294.859375 -88.970703125 301.229492188 -81.6904296875 c 2
 323.989257812 -58.9306640625 l 2
 332.1796875 -51.640625 339.469726562 -48.0107421875 346.739257812 -48.0107421875 c 0
 354.029296875 -48.0107421875 361.309570312 -51.640625 369.5 -58.9306640625 c 2
 392.259765625 -81.6904296875 l 2xfa
EndSplineSet
Substitution2: "'c2sc' Capitals to Small Capitals in Latin lookup 11 subtable" uni0122.sc
AlternateSubs2: "'aalt' Access All Alternates in Latin lookup 0 subtable" uni0122.sc
Position2: "'cpsp' Capital Spacing in Latin lookup 0 subtable" dx=5 dy=0 dh=10 dv=0
EndChar

StartChar: Gdotaccent
Encoding: 288 288 79
Width: 679
GlyphClass: 2
Flags: MW
HStem: -11 57.5<294 390.5 294 416> 285 42<397 649 401 408 633.5 642 642 649> 621 50<288.25 402> 716.17 137.66
VStem: 31 125.5<277.5 397> 279.15 138.7 501.5 113.5 502 117
AnchorPoint: "Anchor-5" 348 845 basechar 0
AnchorPoint: "Anchor-4" 348 0 basechar 0
LayerCount: 2
Fore
SplineSet
156.5 361 m 0xe9
 156.5 194 224 46.5 364 46.5 c 0
 417 46.5 502 70 502 127 c 2
 502 183 l 2
 502 283 453 285 408 285 c 2
 401 285 l 2
 393 285 388 289 388 298 c 2
 388 314 l 2
 388 323 393 327 401 327 c 2
 649 327 l 2
 657 327 662 322 662 314 c 2
 662 298 l 2
 662 289 657 285 649 285 c 2
 642 285 l 2
 625 285 619 276 619 256 c 2
 619 150 l 1xe9
 578 56 483 -11 349 -11 c 0
 152 -11 31 135 31 323 c 0
 31 471 103 671 356 671 c 0
 568 671 615 515.5 615 478.5 c 0
 615 468.5 610 464 600 461.5 c 2
 525.5 437.5 l 2
 520.5 436 515.5 434.5 510.5 434.5 c 0
 504.5 434.5 499.5 434.5 499.5 442.5 c 0
 499.5 448.5 501.5 456.5 501.5 471.5 c 0xea
 501.5 552.5 452 621 352 621 c 0
 224.5 621 156.5 488.5 156.5 361 c 0xe9
347.969726562 853.8203125 m 0xfd
 364.639648438 853.8203125 378.208984375 847.560546875 394.888671875 830.890625 c 0
 411.568359375 814.2109375 417.818359375 801.701171875 417.818359375 785.021484375 c 0
 417.818359375 768.331054688 410.518554688 754.78125 394.87890625 739.141601562 c 0
 378.19921875 722.471679688 364.639648438 716.211914062 347.969726562 716.211914062 c 0
 332.33984375 716.211914062 319.8203125 722.471679688 302.100585938 739.141601562 c 0
 285.420898438 754.78125 279.170898438 768.331054688 279.170898438 785.021484375 c 0
 279.170898438 801.701171875 285.420898438 814.2109375 302.100585938 830.890625 c 0
 318.780273438 847.560546875 332.33984375 853.8203125 347.969726562 853.8203125 c 0xfd
EndSplineSet
Substitution2: "'c2sc' Capitals to Small Capitals in Latin lookup 11 subtable" Gdotaccent.sc
AlternateSubs2: "'aalt' Access All Alternates in Latin lookup 0 subtable" Gdotaccent.sc
Position2: "'cpsp' Capital Spacing in Latin lookup 0 subtable" dx=5 dy=0 dh=10 dv=0
EndChar

StartChar: uni1E20
Encoding: 7712 7712 80
Width: 679
GlyphClass: 2
Flags: MW
HStem: -11 57.5<294 390.5 294 416> 285 42<397 649 401 408 633.5 642 642 649> 621 50<288.25 402> 721 64<230.5 461 235 461>
VStem: 31 125.5<277.5 397> 501.5 113.5<473.5 497 473.5 512> 502 117<150 183 183 233>
AnchorPoint: "Anchor-5" 348 765 basechar 0
AnchorPoint: "Anchor-4" 348 0 basechar 0
LayerCount: 2
Fore
SplineSet
156.5 361 m 0xfa
 156.5 194 224 46.5 364 46.5 c 0
 417 46.5 502 70 502 127 c 2
 502 183 l 2
 502 283 453 285 408 285 c 2
 401 285 l 2
 393 285 388 289 388 298 c 2
 388 314 l 2
 388 323 393 327 401 327 c 2
 649 327 l 2
 657 327 662 322 662 314 c 2
 662 298 l 2
 662 289 657 285 649 285 c 2
 642 285 l 2
 625 285 619 276 619 256 c 2
 619 150 l 1xfa
 578 56 483 -11 349 -11 c 0
 152 -11 31 135 31 323 c 0
 31 471 103 671 356 671 c 0
 568 671 615 515.5 615 478.5 c 0
 615 468.5 610 464 600 461.5 c 2
 525.5 437.5 l 2
 520.5 436 515.5 434.5 510.5 434.5 c 0
 504.5 434.5 499.5 434.5 499.5 442.5 c 0
 499.5 448.5 501.5 456.5 501.5 471.5 c 0xfc
 501.5 552.5 452 621 352 621 c 0
 224.5 621 156.5 488.5 156.5 361 c 0xfa
474 734 m 2
 474 726 470 721 461 721 c 2
 235 721 l 2
 226 721 222 726 222 734 c 2
 222 772 l 2
 222 781 226 785 235 785 c 2
 461 785 l 2
 470 785 474 781 474 772 c 2
 474 734 l 2
EndSplineSet
Substitution2: "'c2sc' Capitals to Small Capitals in Latin lookup 11 subtable" uni1E20.sc
AlternateSubs2: "'aalt' Access All Alternates in Latin lookup 0 subtable" uni1E20.sc
Position2: "'cpsp' Capital Spacing in Latin lookup 0 subtable" dx=5 dy=0 dh=10 dv=0
EndChar

StartChar: H
Encoding: 72 72 81
Width: 748
GlyphClass: 2
Flags: MW
HStem: 0 43<35.5 45 40 45 45 67.5 275 281 466 472 472 494.5 702.5 708.5> 314 53<216 532 216 532> 617 43<35.5 281 40 45 253 275 275 281 466 472 680 702.5 702.5 708.5>
VStem: 104 112<126 314 367 534> 532 111.5<126 314 314 314 367 534>
AnchorPoint: "Anchor-5" 374 660 basechar 0
AnchorPoint: "Anchor-4" 374 0 basechar 0
LayerCount: 2
Fore
SplineSet
643.5 126 m 2
 643.5 80 657.5 43 702.5 43 c 2
 708.5 43 l 2
 716.5 43 721.5 38 721.5 30 c 2
 721.5 13 l 2
 721.5 4 716.5 0 708.5 0 c 2
 466 0 l 2
 458 0 453 4 453 13 c 2
 453 30 l 2
 453 38 458 43 466 43 c 2
 472 43 l 2
 517 43 532 80 532 126 c 2
 532 314 l 1
 216 314 l 1
 216 126 l 2
 216 80 231 43 275 43 c 2
 281 43 l 2
 290 43 294 38 294 30 c 2
 294 13 l 2
 294 4 290 0 281 0 c 2
 40 0 l 2
 31 0 26 4 26 13 c 2
 26 30 l 2
 26 38 31 43 40 43 c 2
 45 43 l 2
 90 43 104 80 104 126 c 2
 104 534 l 2
 104 580 90 617 45 617 c 2
 40 617 l 2
 31 617 26 622 26 630 c 2
 26 647 l 2
 26 656 31 660 40 660 c 2
 281 660 l 2
 290 660 294 656 294 647 c 2
 294 630 l 2
 294 622 290 617 281 617 c 2
 275 617 l 2
 231 617 216 580 216 534 c 2
 216 367 l 1
 532 367 l 1
 532 534 l 2
 532 580 517 617 472 617 c 2
 466 617 l 2
 458 617 453 622 453 630 c 2
 453 647 l 2
 453 656 458 660 466 660 c 2
 708.5 660 l 2
 716.5 660 721.5 656 721.5 647 c 2
 721.5 630 l 2
 721.5 622 716.5 617 708.5 617 c 2
 702.5 617 l 2
 657.5 617 643.5 580 643.5 534 c 2
 643.5 126 l 2
EndSplineSet
Substitution2: "'ss04' Style Set 4 in Latin lookup 33 subtable" u1F157
Substitution2: "'ss03' Style Set 3 in Latin lookup 31 subtable" uni24BD
Substitution2: "'c2sc' Capitals to Small Capitals in Latin lookup 11 subtable" H.sc
AlternateSubs2: "'aalt' Access All Alternates in Latin lookup 0 subtable" H.sc uni24BD u1F157
Position2: "'cpsp' Capital Spacing in Latin lookup 0 subtable" dx=5 dy=0 dh=10 dv=0
EndChar

StartChar: Hbar
Encoding: 294 294 82
Width: 748
GlyphClass: 2
Flags: MW
HStem: 0 43<35.5 45 40 45 45 67.5 275 281 466 472 472 494.5 702.5 708.5> 314 53<216 532 216 532> 440 55<38.75 104 42.75 104 216 532 643.5 704.75> 617 43<35.5 281 40 45 253 275 275 281 466 472 680 702.5 702.5 708.5>
VStem: 104 112<126 314 367 440 495 534> 532 111.5<126 314 314 314 367 440 495 534>
AnchorPoint: "Anchor-5" 374 660 basechar 0
AnchorPoint: "Anchor-4" 374 0 basechar 0
LayerCount: 2
Fore
SplineSet
643.5 126 m 2
 643.5 80 657.5 43 702.5 43 c 2
 708.5 43 l 2
 716.5 43 721.5 38 721.5 30 c 2
 721.5 13 l 2
 721.5 4 716.5 0 708.5 0 c 2
 466 0 l 2
 458 0 453 4 453 13 c 2
 453 30 l 2
 453 38 458 43 466 43 c 2
 472 43 l 2
 517 43 532 80 532 126 c 2
 532 314 l 1
 216 314 l 1
 216 126 l 2
 216 80 231 43 275 43 c 2
 281 43 l 2
 290 43 294 38 294 30 c 2
 294 13 l 2
 294 4 290 0 281 0 c 2
 40 0 l 2
 31 0 26 4 26 13 c 2
 26 30 l 2
 26 38 31 43 40 43 c 2
 45 43 l 2
 90 43 104 80 104 126 c 2
 104 440 l 1
 42.75 440 l 2
 34.75 440 29.75 444 29.75 453 c 2
 29.75 482 l 2
 29.75 491 34.75 495 42.75 495 c 2
 104 495 l 1
 104 534 l 2
 104 580 90 617 45 617 c 2
 40 617 l 2
 31 617 26 622 26 630 c 2
 26 647 l 2
 26 656 31 660 40 660 c 2
 281 660 l 2
 290 660 294 656 294 647 c 2
 294 630 l 2
 294 622 290 617 281 617 c 2
 275 617 l 2
 231 617 216 580 216 534 c 2
 216 495 l 1
 532 495 l 1
 532 534 l 2
 532 580 517 617 472 617 c 2
 466 617 l 2
 458 617 453 622 453 630 c 2
 453 647 l 2
 453 656 458 660 466 660 c 2
 708.5 660 l 2
 716.5 660 721.5 656 721.5 647 c 2
 721.5 630 l 2
 721.5 622 716.5 617 708.5 617 c 2
 702.5 617 l 2
 657.5 617 643.5 580 643.5 534 c 2
 643.5 495 l 1
 704.75 495 l 2
 713.75 495 717.75 491 717.75 482 c 2
 717.75 453 l 2
 717.75 444 713.75 440 704.75 440 c 2
 643.5 440 l 1
 643.5 126 l 2
216 367 m 1
 532 367 l 1
 532 440 l 1
 216 440 l 1
 216 367 l 1
EndSplineSet
Substitution2: "'c2sc' Capitals to Small Capitals in Latin lookup 11 subtable" Hbar.sc
AlternateSubs2: "'aalt' Access All Alternates in Latin lookup 0 subtable" Hbar.sc
Position2: "'cpsp' Capital Spacing in Latin lookup 0 subtable" dx=5 dy=0 dh=10 dv=0
EndChar

StartChar: uni1E2A
Encoding: 7722 7722 83
Width: 748
GlyphClass: 2
Flags: MW
HStem: -188.79 56.24 1.52588e-05 43 314 53 617 43
VStem: 104 112<126 314 367 534> 532 111.5<126 314 314 314 367 534>
AnchorPoint: "Anchor-5" 374 660 basechar 0
AnchorPoint: "Anchor-4" 374 0 basechar 0
LayerCount: 2
Fore
SplineSet
643.5 126 m 2
 643.5 80 657.5 43 702.5 43 c 2
 708.5 43 l 2
 716.5 43 721.5 38 721.5 30 c 2
 721.5 13 l 2
 721.5 4 716.5 0 708.5 0 c 2
 466 0 l 2
 458 0 453 4 453 13 c 2
 453 30 l 2
 453 38 458 43 466 43 c 2
 472 43 l 2
 517 43 532 80 532 126 c 2
 532 314 l 1
 216 314 l 1
 216 126 l 2
 216 80 231 43 275 43 c 2
 281 43 l 2
 290 43 294 38 294 30 c 2
 294 13 l 2
 294 4 290 0 281 0 c 2
 40 0 l 2
 31 0 26 4 26 13 c 2
 26 30 l 2
 26 38 31 43 40 43 c 2
 45 43 l 2
 90 43 104 80 104 126 c 2
 104 534 l 2
 104 580 90 617 45 617 c 2
 40 617 l 2
 31 617 26 622 26 630 c 2
 26 647 l 2
 26 656 31 660 40 660 c 2
 281 660 l 2
 290 660 294 656 294 647 c 2
 294 630 l 2
 294 622 290 617 281 617 c 2
 275 617 l 2
 231 617 216 580 216 534 c 2
 216 367 l 1
 532 367 l 1
 532 534 l 2
 532 580 517 617 472 617 c 2
 466 617 l 2
 458 617 453 622 453 630 c 2
 453 647 l 2
 453 656 458 660 466 660 c 2
 708.5 660 l 2
 716.5 660 721.5 656 721.5 647 c 2
 721.5 630 l 2
 721.5 622 716.5 617 708.5 617 c 2
 702.5 617 l 2
 657.5 617 643.5 580 643.5 534 c 2
 643.5 126 l 2
374 -188.790039062 m 1
 374.107421875 -188.790039062 l 1
 283.607421875 -188.790039062 240.017578125 -116.950195312 240.017578125 -78.0498046875 c 0
 240.017578125 -68.0498046875 245.827148438 -64.16015625 255.006835938 -63.060546875 c 0
 266.016601562 -61.830078125 285.176757812 -59.6298828125 293.6171875 -59.2802734375 c 0
 304.147460938 -58.6201171875 308.017578125 -62.1904296875 309.297851562 -73.830078125 c 0
 314.038085938 -110.5703125 335.158203125 -132.5703125 374.05859375 -132.5703125 c 0
 413.448242188 -132.5703125 434.568359375 -110.5703125 439.30859375 -73.830078125 c 0
 440.088867188 -62.1904296875 444.458984375 -58.6201171875 454.989257812 -59.2802734375 c 0
 462.9296875 -59.6298828125 482.58984375 -61.830078125 493.099609375 -63.060546875 c 0
 502.26953125 -64.16015625 508.08984375 -68.0498046875 508.08984375 -78.0498046875 c 0
 508.08984375 -116.950195312 465 -188.790039062 374 -188.790039062 c 1
EndSplineSet
Substitution2: "'c2sc' Capitals to Small Capitals in Latin lookup 11 subtable" uni1E2A.sc
AlternateSubs2: "'aalt' Access All Alternates in Latin lookup 0 subtable" uni1E2A.sc
Position2: "'cpsp' Capital Spacing in Latin lookup 0 subtable" dx=5 dy=0 dh=10 dv=0
EndChar

